<svg width="60" height="60" xmlns="http://www.w3.org/2000/svg">
 <!-- Created with Method Draw - http://github.com/duopixel/Method-Draw/ -->

 <g>
  <title>background</title>
  <rect fill="none" id="canvas_background" height="62" width="62" y="-1" x="-1"/>
  <g display="none" overflow="visible" y="0" x="0" height="100%" width="100%" id="canvasGrid">
   <rect fill="url(#gridpattern)" stroke-width="0" y="0" x="0" height="100%" width="100%"/>
  </g>
 </g>
 <g>
  <title>Layer 1</title>
  <g stroke="null" id="svg_725">
   <g stroke="null" transform="matrix(0.1575640340118875,0,0,0.08665035515114744,82.0144462737292,-53.89985335372694) " id="svg_730">
    <path stroke="null" id="svg_726" fill="#6b6b6b" class="active-path" d="m-182.297668,877.775147l0,-49.660156c0,-6.8125 -4.539063,-12.5625 -10.753906,-14.410157c-0.035157,-0.011719 -0.0625,-0.023437 -0.101563,-0.035156l-254.972656,-73.882813c-7.976563,-2.316406 -16.320313,2.277344 -18.632813,10.257813c-2.3125,7.976563 2.28125,16.320313 10.257813,18.628906l153.226562,44.402344l-114.4375,0c-27.371093,0 -49.640625,22.269531 -49.640625,49.640625l0,15.058594l285.054688,0zm0,0"/>
    <path stroke="null" id="svg_727" fill="#6b6b6b" class="active-path" d="m-391.278137,907.853272l208.980469,0l0,23.832031l-208.980469,0l0,-23.832031zm0,0"/>
    <path stroke="null" id="svg_728" fill="#6b6b6b" class="active-path" d="m-452.59845,961.767334c-9.113281,9.238281 -14.753906,21.917969 -14.753906,35.890625l0,131.917969l285.054688,0l0,-167.808594l-270.300782,0zm149.917969,106.355469l-48.921875,0c-8.308594,0 -15.039062,-6.730469 -15.039062,-15.039062c0,-8.304688 6.730468,-15.039063 15.039062,-15.039063l48.921875,0c8.308594,0 15.042969,6.734375 15.042969,15.039063c0,8.308593 -6.734375,15.039062 -15.042969,15.039062zm0,0"/>
    <path stroke="null" id="svg_729" fill="#6b6b6b" class="active-path" d="m-467.352356,1159.654053l0,76.492188c0,8.304687 6.734375,15.039062 15.039063,15.039062l254.972656,0c8.308594,0 15.042969,-6.734375 15.042969,-15.039062l0,-76.492188l-285.054688,0zm115.75,26.714844l48.921875,0c8.308594,0 15.042969,6.734375 15.042969,15.042968c0,8.304688 -6.734375,15.039063 -15.042969,15.039063l-48.921875,0c-8.308594,0 -15.039062,-6.734375 -15.039062,-15.039063c0,-8.308593 6.730468,-15.042968 15.039062,-15.042968zm0,0"/>
   </g>
  </g>
  <rect id="svg_733" height="8.666773" width="19.333571" y="32.500033" x="21.499898" stroke-width="1.5" stroke="null" fill="#6b6b6b"/>
  <text stroke="null" transform="matrix(1,0,0,1.133334994316101,0,-5.710487803444266) " font-weight="bold" xml:space="preserve" text-anchor="start" font-family="'Palatino Linotype', 'Book Antiqua', Palatino, serif" font-size="11" id="svg_732" y="39.500119" x="15.499824" fill-opacity="null" stroke-opacity="null" stroke-width="0" fill="#ffffff">canon</text>
 </g>
</svg>