<svg xmlns="http://www.w3.org/2000/svg" xmlns:xlink="http://www.w3.org/1999/xlink" width="60" height="60"><style><![CDATA[.B{stroke-width:.097}.C{fill:#6f6571}.D{fill:#5d5360}.E{fill:#857e87}.F{fill:#dad8db}]]></style><g stroke="null"><g stroke-width="1.5"><ellipse ry="28.879" rx="29.004" cy="30.625" cx="29.875" fill="#00a4e3"/><ellipse ry="23.503" rx="23.878" cy="25.249" cx="30" fill="#51d1ff"/></g><g class="B"><path d="M42.898 3H29.1v7.326h7.67V7.06c0-.45.343-.814.767-.814h5.37c.424 0 .767-.364.767-.814v-1.63c0-.45-.343-.814-.767-.814z" class="C"/><path d="M49.802 9.5H29.1v5.7h21.48v-4.884c0-.45-.343-.814-.767-.814z" class="D"/><path fill="#eceaec" d="M12.98 1.36c-1.27 0-2.3 1.093-2.3 2.442V15.2h19.945V2.175c0-.45-.343-.814-.767-.814H12.98z"/><path d="M12.214 1.5c-.892.336-1.534 1.243-1.534 2.304V15.2h1.534V1.5z" class="F"/><path d="M14.515 52.64H12.98c-.424 0-.767-.364-.767-.814V50.2h3.068v1.628c0 .45-.343.814-.767.814zm33.753 0h-1.534c-.424 0-.767-.364-.767-.814V50.2h3.068v1.628c0 .45-.343.814-.767.814z" class="E"/><path fill="#eceaec" d="M10.68 23.338V50.2c0 .45.343.814.767.814h38.355c.424 0 .767-.364.767-.814V23.34H10.68z"/><path d="M16.05 49.386c-2.118 0-3.836-1.822-3.836-4.07V23.338H10.68V50.2c0 .45.343.814.767.814h38.355c.424 0 .767-.364.767-.814v-.814H16.05z" class="F"/><path d="M10.68 21.7h39.9v9.768h-39.9z" class="C"/><g class="D"><path d="M10.68 22.524h39.9v2.442h-39.9z"/><path d="M15.282 23.338h30.684v8.14H15.282z"/></g><path fill="#4b3f4e" d="M15.282 22.524h30.684v2.442H15.282z"/><path d="M50.57 23.338h-39.9c-.847 0-1.534-.73-1.534-1.628v-6.5c0-.9.687-1.628 1.534-1.628h39.9c.847 0 1.534.73 1.534 1.628v6.5c0 .9-.687 1.628-1.534 1.628z" class="E"/><path d="M35.994 20.083h-10.74c-.424 0-.767-.364-.767-.814v-6.512c0-.45.343-.814.767-.814h10.74c.424 0 .767.364.767.814v6.512c0 .45-.343.814-.767.814z" class="C"/><g class="D"><use xlink:href="#A"/><use xlink:href="#A" x="-19.177"/><use xlink:href="#A" x="-19.177" y="3.256"/><use xlink:href="#A" x="3.835"/></g><use xlink:href="#B" fill="#ff8086"/><g class="D"><use xlink:href="#A" y="3.256"/><use xlink:href="#A" x="3.835" y="3.256"/></g><use xlink:href="#B" y="3.256" fill="#ffe07d"/><path fill="#9b959d" d="M39.063 47.758H22.186c-.847 0-1.534.73-1.534 1.628v1.628h19.945v-1.628c0-.9-.687-1.628-1.534-1.628z"/><path d="M10.68 43.688h39.9v1.628h-39.9z" class="F"/><path fill="#c8c5c9" d="M10.68 43.688h1.534v1.628H10.68z"/><path d="M39.063 47.758H22.186c-.847 0-1.534.73-1.534 1.628h19.945c0-.9-.687-1.628-1.534-1.628z" class="E"/><path d="M17.584 23.338h1.534v8.14h-1.534z" class="C"/><path d="M17.584 23.338h1.534v1.628h-1.534z" class="D"/><path d="M42.13 23.338h1.534v8.14H42.13z" class="C"/><path d="M42.13 23.338h1.534v1.628H42.13z" class="D"/><path d="M18.35 26.594h24.547v1.628H18.35z" class="C"/><g class="E"><use xlink:href="#C"/><use xlink:href="#C" x="15.342"/><use xlink:href="#C" x="7.671"/></g><path fill="#c3ddff" d="M26.022 13.57h9.205v4.884h-9.205z"/><path fill="#a4ccff" d="M27.556 16.013V13.57h-1.534v4.884h9.205v-1.628h-6.904c-.424 0-.767-.364-.767-.814z"/></g></g><defs><path id="A" d="M40.597 17.64h-.767c-.424 0-.767-.364-.767-.814s.343-.814.767-.814h.767c.424 0 .767.364.767.814s-.343.814-.767.814z"/><path id="B" d="M48.268 17.64H47.5c-.424 0-.767-.364-.767-.814s.343-.814.767-.814h.767c.424 0 .767.364.767.814s-.343.814-.767.814z"/><path id="C" d="M22.953 29.85c-.424 0-.767-.364-.767-.814v-1.628c0-.45.343-.814.767-.814s.767.364.767.814v1.628c0 .45-.343.814-.767.814z"/></defs></svg>