<svg width="60" height="60" xmlns="http://www.w3.org/2000/svg">
 <!-- Created with Method Draw - http://github.com/duopixel/Method-Draw/ -->

 <g>
  <title>background</title>
  <rect fill="none" id="canvas_background" height="62" width="62" y="-1" x="-1"/>
  <g display="none" overflow="visible" y="0" x="0" height="100%" width="100%" id="canvasGrid">
   <rect fill="url(#gridpattern)" stroke-width="0" y="0" x="0" height="100%" width="100%"/>
  </g>
 </g>
 <g>
  <title>Layer 1</title>
  <rect stroke="null" id="svg_32" height="38.671103" width="10.667888" y="11.498697" x="2.830221" stroke-width="1.5" fill="#083d77"/>
  <g stroke="null" id="svg_57">
   <g stroke="null" transform="matrix(0.07121449941921623,0,0,0.09112036398108432,-103.45045338875155,-123.32248394182889) " id="svg_48">
    <g stroke="null" id="svg_49">
     <path stroke="null" id="svg_50" fill="#FFFDFD" class="active-path" d="m1755.560746,1502.792268l-166.491,0l0,-3.904l132.953,-17.156c4.107,-0.53 7.009,-4.29 6.479,-8.398s-4.286,-7.007 -8.398,-6.479l-131.034,16.908l0,-9.469c0,-2.126 -0.902,-4.152 -2.482,-5.574c-1.58,-1.422 -3.688,-2.103 -5.803,-1.885l-85.496,9c-3.817,0.402 -6.715,3.621 -6.715,7.459l0,413.979c0,4.142 3.358,7.5 7.5,7.5l14.999,0l0,4.5c0,4.142 3.358,7.5 7.5,7.5s7.5,-3.358 7.5,-7.5l0,-4.5l199.489,0l0,4.5c0,4.142 3.357,7.5 7.5,7.5s7.5,-3.358 7.5,-7.5l0,-4.5l14.999,0c4.143,0 7.5,-3.358 7.5,-7.5l0,-386.981c0,-4.142 -3.357,-7.5 -7.5,-7.5zm-251.987,282.486l244.487,0l0,48.497l-244.487,0l0,-48.497zm0,-10l0,-48.497l244.487,0l0,48.497l-244.487,0zm0,-58.497l0,-153.491l63.996,0l0,87.457c0,1.652 0.816,3.197 2.18,4.128c0.843,0.576 1.828,0.871 2.82,0.871c0.614,0 1.23,-0.113 1.818,-0.342c55.09,-21.504 115.064,-28.749 173.672,-21.035l0,82.413l-244.486,0l0,-0.001zm73.996,-87.174c54.211,-20.554 113.007,-27.39 170.491,-19.823l0,14.5c-57.448,-7.348 -116.136,-0.732 -170.491,19.223l0,-13.9zm170.491,-29.912c-57.451,-7.35 -116.135,-0.72 -170.491,19.236l0,-55.642l170.491,0l0,36.406zm-126.493,-46.406l-100.995,0l0,-3.51c0,-6.611 5.378,-11.989 11.988,-11.989l77.018,0c6.611,0 11.989,5.378 11.989,11.989l0,3.51zm126.493,0l-116.493,0l0,-3.51c0,-12.125 -9.864,-21.989 -21.989,-21.989l-77.018,0c-12.125,0 -21.988,9.864 -21.988,21.989l0,3.51l-6.999,0l0,-35.498l244.487,0l0,35.498zm-244.487,-63.244l70.496,-7.421l0,20.167l-70.496,0l0,-12.746zm0,399.727l0,-45.997l244.487,0l0,45.997l-244.487,0z"/>
     <path stroke="null" id="svg_51" fill="#FFFDFD" class="active-path" d="m1632.566746,1851.775268l-13.499,0c-2.761,0 -5,2.239 -5,5s2.239,5 5,5l13.499,0c2.762,0 5,-2.239 5,-5s-2.238,-5 -5,-5z"/>
     <path stroke="null" id="svg_52" fill="#FFFDFD" class="active-path" d="m1632.566746,1793.277268l-13.499,0c-2.761,0 -5,2.239 -5,5s2.239,5 5,5l13.499,0c2.762,0 5,-2.239 5,-5s-2.238,-5 -5,-5z"/>
     <path stroke="null" id="svg_53" fill="#FFFDFD" class="active-path" d="m1632.566746,1734.780268l-13.499,0c-2.761,0 -5,2.239 -5,5s2.239,5 5,5l13.499,0c2.762,0 5,-2.239 5,-5s-2.238,-5 -5,-5z"/>
     <path stroke="null" id="svg_54" fill="#FFFDFD" class="active-path" d="m1535.070746,1540.542268c-1.31,0 -2.6,0.53 -3.53,1.46c-0.94,0.93 -1.47,2.22 -1.47,3.54c0,1.31 0.53,2.6 1.47,3.53c0.93,0.93 2.22,1.47 3.53,1.47c1.32,0 2.61,-0.54 3.54,-1.47c0.93,-0.93 1.46,-2.22 1.46,-3.53c0,-1.32 -0.53,-2.61 -1.46,-3.54c-0.93,-0.93 -2.22,-1.46 -3.54,-1.46z"/>
     <path stroke="null" id="svg_55" fill="#FFFDFD" class="active-path" d="m1553.070746,1540.542268c-1.32,0 -2.6,0.53 -3.54,1.46c-0.93,0.93 -1.46,2.22 -1.46,3.54c0,1.32 0.53,2.6 1.46,3.53c0.94,0.93 2.22,1.47 3.54,1.47c1.32,0 2.61,-0.54 3.54,-1.47c0.93,-0.93 1.46,-2.21 1.46,-3.53c0,-1.32 -0.53,-2.61 -1.46,-3.54c-0.93,-0.93 -2.22,-1.46 -3.54,-1.46z"/>
     <path stroke="null" id="svg_56" fill="#FFFDFD" class="active-path" d="m1554.570746,1571.289268l-37.498,0c-2.761,0 -5,2.239 -5,5l0,26.999c0,2.761 2.239,5 5,5l37.498,0c2.761,0 5,-2.239 5,-5l0,-26.999c0,-2.761 -2.239,-5 -5,-5zm-5,26.998l-27.498,0l0,-16.999l27.498,0l0,16.999z"/>
    </g>
   </g>
  </g>
  <g stroke="null" id="svg_44">
   <g stroke="null" transform="matrix(0.10575418775269091,0,0,0.10488602535414891,-192.19239447596195,-197.7819861859588) " id="svg_37">
    <g stroke="null" id="svg_38">
     <g stroke="null" id="svg_39">
      <path stroke="null" id="svg_40" fill="#083d77" class="active-path" d="m2231.464008,1928.638878l-34.752,0c-6.592,-18.624 -24.384,-32 -45.248,-32s-38.656,13.376 -45.28,32l-34.72,0c-8.832,0 -16,7.168 -16,16l0,64c0,8.832 7.168,16 16,16l160,0c8.832,0 16,-7.168 16,-16l0,-64c0,-8.832 -7.168,-16 -16,-16z"/>
     </g>
    </g>
    <g stroke="null" id="svg_41">
     <g stroke="null" id="svg_42">
      <path stroke="null" id="svg_43" fill="#083d77" class="active-path" d="m2311.464008,1960.638878l-32,0l0,48c0,26.464 -21.536,48 -48,48l-160,0c-26.464,0 -48,-21.536 -48,-48l0,-48l-32,0c-17.632,0 -32,14.368 -32,32l0,384c0,17.952 14.048,32 32,32l320,0c17.952,0 32,-14.048 32,-32l0,-384c0,-17.952 -14.048,-32 -32,-32zm-164.672,283.328l-64,64c-3.136,3.104 -7.232,4.672 -11.328,4.672s-8.192,-1.568 -11.328,-4.672l-32,-32c-6.24,-6.24 -6.24,-16.384 0,-22.624s16.384,-6.24 22.624,0l20.704,20.672l52.672,-52.672c6.24,-6.24 16.384,-6.24 22.624,0s6.272,16.352 0.032,22.624zm0,-128l-64,64c-3.136,3.104 -7.232,4.672 -11.328,4.672s-8.192,-1.568 -11.328,-4.672l-32,-32c-6.24,-6.24 -6.24,-16.384 0,-22.624s16.384,-6.24 22.624,0l20.704,20.672l52.672,-52.672c6.24,-6.24 16.384,-6.24 22.624,0c6.24,6.24 6.272,16.352 0.032,22.624zm116.672,164.672l-64,0c-8.832,0 -16,-7.168 -16,-16c0,-8.832 7.168,-16 16,-16l64,0c8.832,0 16,7.168 16,16c0,8.832 -7.168,16 -16,16zm0,-128l-64,0c-8.832,0 -16,-7.168 -16,-16c0,-8.832 7.168,-16 16,-16l64,0c8.832,0 16,7.168 16,16c0,8.832 -7.168,16 -16,16z"/>
     </g>
    </g>
   </g>
  </g>
  <rect stroke="null" id="svg_59" height="8.334288" width="60.673623" y="-1.170239" x="-0.503499" stroke-width="1.5" fill="#ffffff"/>
  <rect stroke="null" id="svg_61" height="28.00321" width="17.33532" y="20.832283" x="18.832053" stroke-width="1.5" fill="#083d77"/>
  <text font-weight="bold" xml:space="preserve" text-anchor="start" font-family="'Trebuchet MS', Gadget, sans-serif" font-size="12" id="svg_62" y="30.500057" x="19.165425" stroke-width="0" stroke="null" fill="#ffffff">Rp</text>
  <text font-weight="bold" xml:space="preserve" text-anchor="start" font-family="'Trebuchet MS', Gadget, sans-serif" font-size="12" id="svg_63" y="44.16829" x="19.165425" stroke-width="0" stroke="null" fill="#ffffff">Rp</text>
 </g>
</svg>