<svg xmlns="http://www.w3.org/2000/svg" xmlns:xlink="http://www.w3.org/1999/xlink" width="60" height="60"><g transform="matrix(.11378 0 0 .11573 -109.971 -112.375)" stroke="null"><path fill="#11d1b0" d="M1487.342 1235.653c0 57-18.64 109.672-50.155 152.22a257.495 257.495 0 0 1-39.706 42.548c-44.7 38.18-102.724 61.23-166.14 61.23-36.728 0-71.638-7.732-103.205-21.66a254.21 254.21 0 0 1-38.902-21.38 256.7 256.7 0 0 1-24.033-18.192 257.537 257.537 0 0 1-39.706-42.548c-31.513-42.548-50.154-95.2-50.154-152.22s18.64-109.672 50.155-152.22a257.38 257.38 0 0 1 73.446-66.926c38.63-23.395 83.937-36.853 132.4-36.853l1.003.01c48.086.178 93.038 13.605 131.396 36.843a257.365 257.365 0 0 1 73.446 66.926c31.514 42.548 50.155 95.2 50.155 152.22z"/><path fill="#29ffdc" d="M1451.957 1200.268c0 49.13-16.064 94.513-43.222 131.18a222.01 222.01 0 0 1-34.217 36.668c-38.53 32.903-88.525 52.767-143.174 52.767-31.65 0-61.736-6.663-88.94-18.667a219.13 219.13 0 0 1-33.525-18.424 219.7 219.7 0 0 1-20.71-15.677 221.89 221.89 0 0 1-34.217-36.668c-27.158-36.667-43.222-82.05-43.222-131.18s16.063-94.513 43.22-131.18a221.82 221.82 0 0 1 63.294-57.675c33.3-20.16 72.334-31.76 114.098-31.76l.864.01c41.44.153 80.178 11.724 113.234 31.75a221.795 221.795 0 0 1 63.294 57.675c27.158 36.667 43.223 82.052 43.223 131.18z"/><path fill="#343a6e" d="M1437.187 1054.55v333.322a257.495 257.495 0 0 1-39.706 42.548c-44.7 38.182-102.724 61.232-166.14 61.232-36.728 0-71.638-7.732-103.205-21.66a254.21 254.21 0 0 1-38.902-21.38 256.7 256.7 0 0 1-24.033-18.192 257.537 257.537 0 0 1-39.706-42.548V1054.55c0-21.013 17.032-38.045 38.045-38.045h335.6c21.014.001 38.046 17.032 38.046 38.045z"/><path fill="#f0f0f0" d="M1397.48 1126.17v304.253c-44.7 38.18-102.724 61.23-166.14 61.23-36.728 0-71.638-7.732-103.205-21.66a254.21 254.21 0 0 1-38.902-21.38 256.7 256.7 0 0 1-24.033-18.192v-304.25c0-13.25 10.73-23.98 23.97-23.98h284.33c13.24-.001 23.982 10.73 23.982 23.98z"/><path fill="#f2ae5a" d="M1333.216 1026.737v67.312c0 12.58-10.188 22.768-22.768 22.768H1152.23c-12.58 0-22.768-10.188-22.768-22.768v-67.312c0-12.58 10.188-22.768 22.768-22.768h39.832c7.19-14.41 22.08-24.315 39.278-24.315 2.675 0 5.298.24 7.837.7 12.037 2.163 22.36 9.247 28.83 19.08.084.125.157.24.23.366.616.95 1.202 1.933 1.735 2.936.24.44.46.857.648 1.233h39.832c12.578 0 22.765 10.188 22.765 22.768z"/><path fill="#f9df73" d="M1333.216 1026.737v67.312c0 12.58-10.188 22.768-22.768 22.768h-142.545c-12.58 0-22.768-10.188-22.768-22.768v-67.312c0-12.58 10.188-22.768 22.768-22.768h24.158c7.19-14.41 22.08-24.315 39.278-24.315 2.675 0 5.298.24 7.837.7 12.037 2.163 22.36 9.247 28.83 19.08.084.125.157.24.23.366a69.135 69.135 0 0 1 1.735 2.936c.24.44.46.857.648 1.233h39.832c12.58 0 22.766 10.188 22.766 22.768z"/><circle fill="#343a6e" r="15.151" cy="1015.462" cx="1231.342"/><path fill="#f2ae5a" d="M1287.763 1083.38h-112.85a10.97 10.97 0 0 1-10.97-10.97c0-6.058 4.912-10.97 10.97-10.97h112.85a10.97 10.97 0 1 1 0 21.94z"/><use xlink:href="#A" fill="#5897d1"/><g fill="#484b7f"><use xlink:href="#B"/><path d="M1352.55 1231.756h-147.33a10.45 10.45 0 0 1-10.449-10.449 10.45 10.45 0 0 1 10.449-10.449h147.33a10.45 10.45 0 0 1 10.449 10.449c0 5.77-4.68 10.45-10.45 10.45z"/></g><use xlink:href="#A" y="112.849" fill="#5897d1"/><g fill="#484b7f"><use xlink:href="#B" y="112.848"/><use xlink:href="#C"/></g><path fill="#5897d1" d="M1165.513 1383.266h-65.83c-5.768 0-10.45 4.68-10.45 10.45v54.9a254.555 254.555 0 0 0 38.902 21.38h37.376c5.768 0 10.45-4.68 10.45-10.45v-65.83c0-5.768-4.68-10.45-10.45-10.45zm-10.45 65.828h-44.93v-44.93h44.93v44.93z"/><g fill="#484b7f"><use xlink:href="#B" y="225.697"/><use xlink:href="#C" y="112.849"/></g><path fill="#11d1b0" d="M1132.075 1347.738a10.473 10.473 0 0 1-8.7-4.653l-33.437-50.155a10.45 10.45 0 0 1 17.388-11.591l23.2 34.8 29.716-62.734a10.45 10.45 0 0 1 18.886 8.946l-37.616 79.4a10.442 10.442 0 0 1-8.683 5.95 9.8 9.8 0 0 1-.763.028z"/></g><defs><path id="A" d="M1165.513 1244.294h-65.83a10.45 10.45 0 0 1-10.449-10.449v-65.83a10.45 10.45 0 0 1 10.449-10.449h65.83a10.45 10.45 0 0 1 10.449 10.449v65.83a10.45 10.45 0 0 1-10.449 10.449zm-55.38-20.898h44.93v-44.93h-44.93v44.93z"/><path id="B" d="M1271.048 1191.005h-65.83a10.45 10.45 0 0 1-10.449-10.449 10.45 10.45 0 0 1 10.449-10.449h65.83a10.45 10.45 0 0 1 10.449 10.449 10.45 10.45 0 0 1-10.449 10.449z"/><path id="C" d="M1352.55 1344.604h-147.33a10.45 10.45 0 0 1-10.449-10.449 10.45 10.45 0 0 1 10.449-10.449h147.33a10.45 10.45 0 0 1 10.449 10.449c-.001 5.77-4.68 10.45-10.45 10.45z"/></defs></svg>