<svg xmlns="http://www.w3.org/2000/svg" width="30" height="30" stroke="null" vector-effect="non-scaling-stroke"><path fill="none" d="M-1-1h32v32H-1z"/><path d="M17.955 6.635c1.335 0 2.417-1.1 2.417-2.437S19.3 1.762 17.955 1.762a2.42 2.42 0 0 0-2.418 2.436c0 1.346 1.082 2.437 2.418 2.437zm10.9 15.043c-.263-.5-.872-.687-1.362-.42l-3.4 1.87v-.368l3.538-1.987a.32.32 0 0 0 .122-.429c-.082-.153-.27-.2-.42-.125l-3.24 1.818v-.385l3.538-1.987a.32.32 0 0 0 .122-.43c-.082-.153-.27-.2-.42-.125l-3.24 1.82v-.385l3.538-1.986a.32.32 0 0 0 .122-.43c-.082-.153-.27-.2-.42-.125l-3.24 1.818v-2.1H4.972v5.363l-3.35-1.84a.99.99 0 0 0-1.36.42 1.04 1.04 0 0 0 .408 1.392l4.304 2.36v4.9c0 .382.3.686.684.686h17.758a.68.68 0 0 0 .679-.686V25.45l4.362-2.392a1.04 1.04 0 0 0 .41-1.392zM2.96 14.676l1.157.433a.67.67 0 0 0 .52-.022c.165-.077.3-.218.35-.4L7.82 6.792l7.242 1.95v6.713H5.656a.69.69 0 0 0-.684.692v.95h19.12v-.95a.69.69 0 0 0-.679-.696c.33-2.333.484-6.65-2.427-8.344-.114-.067-.238-.107-.36-.117l.001-.006H15.33L8.418 5.13l1.307-3.65c.13-.36-.052-.756-.403-.887L8.165.16a.67.67 0 0 0-.52.022c-.164.077-.3.218-.35.4l-4.74 13.215c-.13.36.052.756.404.888zm17.884-5.42c1.225 1.495 1.12 4.346.832 6.2h-.832v-6.2zM17.398 8.17c0-.216.167-.4.38-.4h.382c.212 0 .382.174.382.4v.4a.38.38 0 0 1-.382.386h-.382a.38.38 0 0 1-.38-.386v-.4zm-.23 3.97l.478-2.682c.022-.12.123-.203.242-.203h.165a.24.24 0 0 1 .24.203l.478 2.683a.62.62 0 0 1-.194.565l-.446.397a.24.24 0 0 1-.323 0l-.446-.397c-.158-.14-.232-.356-.194-.566z" fill="#083c76" stroke-width=".159"/></svg>