<svg xmlns="http://www.w3.org/2000/svg" width="60" height="60"><ellipse ry="29.167" rx="28.333" cy="30.167" cx="29.833" fill="#6b6b6b"/><ellipse ry="23.167" rx="22.5" cy="24.167" cx="29.667" fill="#8e8d8d"/><path fill="#187eb2" d="M53.37 32.174H33.804c-.896 0-1.63.73-1.63 1.63V53.37a1.63 1.63 0 0 0 1.63 1.63H53.37A1.63 1.63 0 0 0 55 53.37V33.805c0-.9-.734-1.63-1.63-1.63z"/><path fill="#083c76" d="M26.196 32.174H6.63c-.897 0-1.63.73-1.63 1.63V53.37A1.63 1.63 0 0 0 6.63 55h19.565a1.63 1.63 0 0 0 1.63-1.63V33.805c0-.9-.734-1.63-1.63-1.63z"/><path fill="#187eb2" d="M6.63 55h19.565a1.63 1.63 0 0 0 1.63-1.63V33.805c0-.45-.183-.857-.48-1.152l-21.87 21.87c.295.295.703.478 1.152.478z"/><path d="M26.196 5H6.63C5.734 5 5 5.73 5 6.63v19.565a1.63 1.63 0 0 0 1.63 1.63h19.565a1.63 1.63 0 0 0 1.63-1.63V6.63c0-.9-.734-1.63-1.63-1.63zM53.37 5H33.804c-.896 0-1.63.73-1.63 1.63v19.565a1.63 1.63 0 0 0 1.63 1.63H53.37a1.63 1.63 0 0 0 1.63-1.63V6.63c0-.9-.734-1.63-1.63-1.63z" fill="#083c76"/><path fill="#187eb2" d="M33.804 27.826H53.37a1.63 1.63 0 0 0 1.63-1.63V6.63c0-.45-.183-.857-.48-1.152l-21.87 21.87c.295.295.703.478 1.152.478z"/></svg>