<svg width="40" height="40" xmlns="http://www.w3.org/2000/svg">
 <!-- Created with Method Draw - http://github.com/duopixel/Method-Draw/ -->

 <g>
  <title>background</title>
  <rect fill="#fff" id="canvas_background" height="42" width="42" y="-1" x="-1"/>
  <g display="none" overflow="visible" y="0" x="0" height="100%" width="100%" id="canvasGrid">
   <rect fill="url(#gridpattern)" stroke-width="0" y="0" x="0" height="100%" width="100%"/>
  </g>
 </g>
 <g>
  <title>Layer 1</title>
  <g stroke="null" id="svg_17">
   <g stroke="null" transform="matrix(1.6706315317252347,0,0,1.6882545611087765,-38.67343285339421,-53.475354016311286) " id="svg_16">
    <title stroke="null" transform="translate(0,0.1482601761817932) translate(0,-0.1482601761817932) translate(0,-0.1482601761817932) translate(-0.1507757306098938,0) translate(-0.1507757306098938,0) translate(0.1507757306098938,0) translate(0,0.1482601761817932) translate(0,0.1482601761817932) translate(0,0.1482601761817932) translate(0,0.1482601761817932) translate(0,-0.1482601761817932) translate(0,-0.1482601761817932) translate(0,-0.1482601761817932) translate(0,-0.1482601761817932) translate(0,-0.1482601761817932) translate(-0.1507757306098938,0) translate(0.1507757306098938,0) translate(0.1507757306098938,0) translate(0.1507757306098938,0) translate(0.1507757306098938,0) translate(0.1507757306098938,0) translate(-15.982227325439453,0.1482601761817932) translate(15.529900550842285,0.1482601761817932) translate(0,-0.1482601761817932) translate(0,-0.1482601761817932) translate(0,-0.1482601761817932) translate(0,-0.1482601761817932) translate(0,-0.1482601761817932) translate(-12.6651611328125,-0.5930407047271729) translate(12.514385223388672,1.1860814094543457) translate(-0.2249763309955597,0) translate(0,0.14499019086360931) translate(0,0.14499019086360931) translate(0,0.14499019086360931) translate(0,0.14499019086360931) translate(0,0.14499019086360931) translate(0,-0.14499019086360931) translate(0,-0.14499019086360931) translate(0,-0.14499019086360931) translate(0,-0.14499019086360931) translate(0,-0.14499019086360931) translate(0,-0.14499019086360931) translate(0,-0.14499019086360931) translate(0,-0.14499019086360931) translate(-1.998513102531433,3.1066927909851074) translate(-2.141263961791992,-3.4025683403015137) translate(-3.5711679458618164,-1.009124517440796) translate(-18.872413635253906,-4.04883337020874) translate(-0.09880844503641129,1.4812804460525513) translate(-2.17378568649292,1.1850242614746094) translate(-0.09880844503641129,0) translate(-0.09880844503641129,0) translate(-0.09880844503641129,0) translate(-0.09880844503641129,0) translate(-0.09880844503641129,0) translate(-0.09880844503641129,0) translate(-0.09880844503641129,0) translate(-0.09880844503641129,0) translate(-0.09880844503641129,0) translate(-0.09880844503641129,0) translate(-0.09880844503641129,0) translate(-0.09880844503641129,0) translate(-0.09880844503641129,0) translate(-0.09880844503641129,0) translate(-0.09880844503641129,0) translate(-0.09880844503641129,0) translate(-0.09880844503641129,0) translate(-0.09880844503641129,0) translate(-0.09880844503641129,0) translate(-0.09880844503641129,0) translate(-0.09880844503641129,0) translate(-0.09880844503641129,0) translate(-0.09880844503641129,0) translate(-0.09880844503641129,0) translate(-0.09880844503641129,0) translate(-0.09880844503641129,0) translate(-0.09880844503641129,0) translate(-0.09880844503641129,0) translate(-0.09880844503641129,0) translate(-0.09880844503641129,0) translate(-0.09880844503641129,0) translate(-0.09880844503641129,0) translate(-0.09880844503641129,0) translate(-0.09880844503641129,0) translate(-0.09880844503641129,0) translate(-0.09880844503641129,0) translate(-0.09880844503641129,0) translate(-0.09880844503641129,0) translate(-0.09880844503641129,0) translate(-0.09880844503641129,0) translate(-0.09880844503641129,0) translate(-0.09880844503641129,0) translate(-0.09880844503641129,0) translate(-0.09880844503641129,0) translate(-0.09880844503641129,0) translate(-0.09880844503641129,0) translate(-0.09880844503641129,0) translate(-0.09880844503641129,0) translate(-0.09880844503641129,0) translate(-0.09880844503641129,0) translate(-0.09880844503641129,0) translate(-0.09880844503641129,0) translate(-0.09880844503641129,0) translate(-0.09880844503641129,0) translate(-0.09880844503641129,0) translate(-0.09880844503641129,0) translate(-0.09880844503641129,0) translate(-0.09880844503641129,0) translate(-0.09880844503641129,0) translate(-0.09880844503641129,0) translate(-0.09880844503641129,0) translate(-0.09880844503641129,0) translate(-0.09880844503641129,0) translate(-0.09880844503641129,0) translate(-0.09880844503641129,0) translate(-0.09880844503641129,0) translate(-0.09880844503641129,0) translate(-0.09880844503641129,0) translate(-0.09880844503641129,0) translate(-0.09880844503641129,0) translate(-0.09880844503641129,0) translate(-0.09880844503641129,0) translate(-0.09880844503641129,0) translate(-0.09880844503641129,0) translate(-0.09880844503641129,0) translate(-0.09880844503641129,0) translate(-0.09880844503641129,0) translate(-0.09880844503641129,0) translate(-0.09880844503641129,0) translate(-0.09880844503641129,0) translate(-0.09880844503641129,0) translate(-0.09880844503641129,0) translate(-0.09880844503641129,0) translate(-0.09880844503641129,0) translate(-0.09880844503641129,0) translate(-0.09880844503641129,0) translate(-0.09880844503641129,0) translate(-0.09880844503641129,0) translate(-0.09880844503641129,0) translate(-0.09880844503641129,0) translate(-0.09880844503641129,0) translate(-0.09880844503641129,0) translate(-0.09880844503641129,0) translate(-0.09880844503641129,0) translate(-0.09880844503641129,0) translate(-0.09880844503641129,0) translate(-0.09880844503641129,0) translate(-0.09880844503641129,0) translate(-0.09880844503641129,0) translate(-0.09880844503641129,0) translate(-0.09880844503641129,0) translate(-0.09880844503641129,0) translate(-0.09880844503641129,0) translate(-0.09880844503641129,0) translate(-0.09880844503641129,0) translate(-0.09880844503641129,0) translate(-0.09880844503641129,0) translate(-0.09880844503641129,0) translate(-0.09880844503641129,0) translate(-0.09880844503641129,0) translate(-0.09880844503641129,0) translate(-0.09880844503641129,0) translate(-0.09880844503641129,0) translate(-0.09880844503641129,0) translate(-0.09880844503641129,0) translate(25.986621856689453,-4.7400970458984375) translate(6.52135705947876,6.616385459899902) translate(31.200000762939453,0) translate(0,32.753990173339844) ">Layer 1</title>
    <g stroke="null" id="svg_8">
     <g stroke="null" id="svg_9" transform="matrix(0.1504510618562539,0,0,0.12368449481173735,-0.7301059794070396,-0.6921321808765448) ">
      <path stroke="null" d="m205.019662,270.866068l0,-9.746c0,-1.761 1.433,-3.193 3.193,-3.193l60.053,0c1.761,0 3.193,1.433 3.193,3.193l0,9.746c0,1.761 -1.433,3.193 -3.193,3.193l-60.052,0c-1.761,0.001 -3.194,-1.432 -3.194,-3.193zm51.644,-27.939c-0.768,-9.5 -8.729,-17 -18.424,-17s-17.656,7.5 -18.424,17l36.848,0zm60.468,38.334l0,151.333c0,11.12 -9.047,20.167 -20.167,20.167l-117.45,0c-11.12,0 -20.167,-9.047 -20.167,-20.167l0,-151.333c0,-11.12 9.047,-20.167 20.167,-20.167l10.506,0c0,0.009 -0.001,0.018 -0.001,0.026l0,9.746c0,10.032 8.162,18.193 18.193,18.193l60.053,0c10.032,0 18.193,-8.161 18.193,-18.193l0,-9.746c0,-0.009 -0.001,-0.018 -0.001,-0.026l10.506,0c11.121,0 20.168,9.047 20.168,20.167zm-104.126,88.115c-3.526,-2.173 -8.147,-1.077 -10.32,2.449l-7.092,11.504l-3.661,-2.884c-3.252,-2.563 -7.97,-2.002 -10.532,1.252c-2.563,3.255 -2.002,7.97 1.252,10.533l10.271,8.089c1.332,1.049 2.969,1.607 4.64,1.607c0.436,0 0.875,-0.038 1.311,-0.115c2.105,-0.374 3.952,-1.629 5.074,-3.449l11.506,-18.666c2.174,-3.526 1.077,-8.146 -2.449,-10.32zm0,-54c-3.526,-2.174 -8.147,-1.076 -10.32,2.449l-7.092,11.504l-3.661,-2.884c-3.252,-2.562 -7.97,-2.002 -10.532,1.252c-2.563,3.255 -2.002,7.97 1.252,10.533l10.271,8.089c1.332,1.049 2.969,1.607 4.64,1.607c0.436,0 0.875,-0.038 1.311,-0.115c2.105,-0.374 3.952,-1.629 5.074,-3.449l11.506,-18.665c2.174,-3.527 1.077,-8.147 -2.449,-10.321zm77.675,79.051c0,-4.143 -3.357,-7.5 -7.5,-7.5l-49,0c-4.142,0 -7.5,3.357 -7.5,7.5s3.358,7.5 7.5,7.5l49,0c4.143,0 7.5,-3.357 7.5,-7.5zm0,-54c0,-4.143 -3.357,-7.5 -7.5,-7.5l-49,0c-4.142,0 -7.5,3.357 -7.5,7.5s3.358,7.5 7.5,7.5l49,0c4.143,0 7.5,-3.357 7.5,-7.5z" class="active-path" fill="#9b9fa8" id="svg_10"/>
     </g>
    </g>
   </g>
  </g>
  <!-- Created with Method Draw - http://github.com/duopixel/Method-Draw/ -->
  <rect stroke="null" id="svg_20" height="29.785808" width="12.264745" y="7.34777" x="3.843547" stroke-width="1.5" fill="#9b9fa8"/>
  <text xml:space="preserve" text-anchor="start" font-family="Helvetica, Arial, sans-serif" font-size="10" id="svg_21" y="17.860408" x="1.340538" stroke-width="0" stroke="null" fill="#ffffff">Rp</text>
  <text xml:space="preserve" text-anchor="start" font-family="Helvetica, Arial, sans-serif" font-size="10" id="svg_25" y="29.123949" x="1.340538" stroke-width="0" stroke="null" fill="#ffffff">Rp</text>
 </g>
</svg>