<svg width="60" height="60" xmlns="http://www.w3.org/2000/svg">
 <!-- Created with Method Draw - http://github.com/duopixel/Method-Draw/ -->

 <g>
  <title>background</title>
  <rect fill="none" id="canvas_background" height="62" width="62" y="-1" x="-1"/>
  <g display="none" overflow="visible" y="0" x="0" height="100%" width="100%" id="canvasGrid">
   <rect fill="url(#gridpattern)" stroke-width="0" y="0" x="0" height="100%" width="100%"/>
  </g>
 </g>
 <g>
  <title>Layer 1</title>
  <g stroke="null" id="svg_1007">
   <g stroke="null" transform="matrix(0.12256265763965099,0,0,0.11548744957365853,-171.63573624355794,-161.79528165932896) " id="svg_989">
    <path stroke="null" id="svg_990" fill="#FFBA00" class="active-path" d="m1719.510254,1852.387573c-1.867187,-1.867188 -3.945312,-3.515625 -6.183594,-4.914062c-6.417968,-4.207032 -13.929687,-6.433594 -21.601562,-6.398438c-22.082031,0.027344 -39.972656,17.917969 -40,40c0.023438,2.691406 0.324219,5.371094 0.894531,8l78.226563,0c0.558594,-2.628906 0.851562,-5.3125 0.878906,-8c0.074219,-10.441406 -4.058594,-20.476562 -11.472656,-27.832031c-0.265625,-0.269531 -0.515625,-0.554688 -0.742188,-0.855469zm0,0"/>
    <path stroke="null" id="svg_991" fill="#FFBA00" class="active-path" d="m1507.725098,1721.075073l48,0l0,64l-48,0l0,-64zm0,0"/>
    <path stroke="null" id="svg_992" fill="#FFBA00" class="active-path" d="m1795.725098,1785.075073c8.140625,-0.003906 16.234375,1.238281 24,3.6875l0,-140.566406c-9.613281,-2.011719 -18.152344,-7.480469 -24,-15.367188c-7.460938,10.210938 -19.351562,16.25 -32,16.25s-24.539062,-6.039062 -32,-16.25c-7.460938,10.210938 -19.351562,16.25 -32,16.25s-24.539062,-6.039062 -32,-16.25c-7.460938,10.210938 -19.351562,16.25 -32,16.25s-24.539062,-6.039062 -32,-16.25c-7.460938,10.210938 -19.351562,16.25 -32,16.25s-24.539062,-6.039062 -32,-16.25c-7.460938,10.210938 -19.351562,16.25 -32,16.25s-24.539062,-6.039062 -32,-16.25c-5.847656,7.886719 -14.386719,13.355469 -24,15.367188l0,240.878906l16,0l0,-200c0,-4.417969 3.582031,-8 8,-8l112,0c4.417969,0 8,3.582031 8,8l0,200l40.6875,0c-0.421875,-2.644531 -0.652344,-5.320312 -0.6875,-8c0.035156,-30.914062 25.085938,-55.964844 56,-56c10.730469,-0.046875 21.242188,3.050781 30.230469,8.910156l0.066406,0.050782c12.472656,-29.667969 41.519531,-48.964844 73.703125,-48.960938zm-144,-8c-4.417969,0 -8,-3.582031 -8,-8l0,-80c0,-4.417969 3.582031,-8 8,-8l112,0c4.417969,0 8,3.582031 8,8l0,80c0,4.417969 -3.582031,8 -8,8l-112,0zm0,0"/>
    <path stroke="null" id="svg_993" fill="#FFBA00" class="active-path" d="m1659.725098,1697.075073l96,0l0,64l-96,0l0,-64zm0,0"/>
    <path stroke="null" id="svg_994" fill="#FFBA00" class="active-path" d="m1515.725098,1521.075073l240,0l0,-80l-240,0l0,80zm176,-72l32,0c8.835938,0 16,7.164062 16,16l0,8c0,8.835938 -7.164062,16 -16,16l-16,0l0,24l-16,0l0,-64zm-56,16c0,-8.835938 7.164062,-16 16,-16l16,0c8.835938,0 16,7.164062 16,16l0,32c0,8.835938 -7.164062,16 -16,16l-16,0c-8.835938,0 -16,-7.164062 -16,-16l0,-32zm-56,-16l16,0l0,24l16,0l0,-24l16,0l0,64l-16,0l0,-24l-16,0l0,24l-16,0l0,-64zm-48,48l24,0l0,-8l-8,0c-8.835938,0 -16,-7.164062 -16,-16l0,-8c0,-8.835938 7.164062,-16 16,-16l24,0l0,16l-24,0l0,8l8,0c8.835938,0 16,7.164062 16,16l0,8c0,8.835938 -7.164062,16 -16,16l-24,0l0,-16zm0,0"/>
    <path stroke="null" id="svg_995" fill="#FFBA00" class="active-path" d="m1707.725098,1465.075073l16,0l0,8l-16,0l0,-8zm0,0"/>
    <path stroke="null" id="svg_996" fill="#FFBA00" class="active-path" d="m1449.13916,1489.075073l-25.597656,64l424.367188,0l-25.597656,-64l-50.585938,0l0,48l-272,0l0,-48l-50.585938,0zm0,0"/>
    <path stroke="null" id="svg_997" fill="#FFBA00" class="active-path" d="m1651.725098,1465.075073l16.007812,0l0,32l-16.007812,0l0,-32zm0,0"/>
    <path stroke="null" id="svg_998" fill="#FFBA00" class="active-path" d="m1659.725098,1609.075073l0,-40l-48,0l0,40c0,13.253906 10.746094,24 24,24s24,-10.746094 24,-24zm0,0"/>
    <path stroke="null" id="svg_999" fill="#FFBA00" class="active-path" d="m1787.725098,1609.075073l0,-40l-48,0l0,40c0,13.253906 10.746094,24 24,24s24,-10.746094 24,-24zm0,0"/>
    <path stroke="null" id="svg_1000" fill="#FFBA00" class="active-path" d="m1803.725098,1609.075073c0,13.253906 10.746094,24 24,24s24,-10.746094 24,-24l0,-40l-48,0l0,40zm0,0"/>
    <path stroke="null" id="svg_1001" fill="#FFBA00" class="active-path" d="m1795.725098,1801.075073c-27.800781,0.011719 -52.414062,17.96875 -60.910156,44.441406c8.386718,9.941406 12.964844,22.546875 12.910156,35.558594c-0.035156,2.679688 -0.257812,5.351562 -0.671875,8l107.871094,0c3.144531,-7.613281 4.777343,-15.765625 4.800781,-24c-0.039062,-35.328125 -28.671875,-63.960938 -64,-64zm0,0"/>
    <path stroke="null" id="svg_1002" fill="#FFBA00" class="active-path" d="m1419.725098,1609.075073c0,13.253906 10.746094,24 24,24s24,-10.746094 24,-24l0,-40l-48,0l0,40zm0,0"/>
    <path stroke="null" id="svg_1003" fill="#FFBA00" class="active-path" d="m1723.725098,1609.075073l0,-40l-48,0l0,40c0,13.253906 10.746094,24 24,24s24,-10.746094 24,-24zm0,0"/>
    <path stroke="null" id="svg_1004" fill="#FFBA00" class="active-path" d="m1595.725098,1609.075073l0,-40l-48,0l0,40c0,13.253906 10.746094,24 24,24s24,-10.746094 24,-24zm0,0"/>
    <path stroke="null" id="svg_1005" fill="#FFBA00" class="active-path" d="m1531.725098,1609.075073l0,-40l-48,0l0,40c0,13.253906 10.746094,24 24,24s24,-10.746094 24,-24zm0,0"/>
    <path stroke="null" id="svg_1006" fill="#FFBA00" class="active-path" d="m1579.725098,1889.075073l0,-192l-96,0l0,192l96,0zm-24,-64l-8,0c-4.417969,0 -8,-3.582031 -8,-8s3.582031,-8 8,-8l8,0c4.417969,0 8,3.582031 8,8s-3.582031,8 -8,8zm-64,-112c0,-4.417969 3.582031,-8 8,-8l64,0c4.417969,0 8,3.582031 8,8l0,80c0,4.417969 -3.582031,8 -8,8l-64,0c-4.417969,0 -8,-3.582031 -8,-8l0,-80zm0,0"/>
   </g>
  </g>
  <rect stroke="null" id="svg_1008" height="9.333333" width="29.000001" y="4.5" x="14.166666" stroke-width="null" fill="#FFBA00"/>
  <text font-weight="bold" xml:space="preserve" text-anchor="start" font-family="'Trebuchet MS', Gadget, sans-serif" font-size="5" id="svg_1009" y="11.083333" x="16.25" stroke-width="0" stroke="null" fill="#ffffff">FOTOCOPY</text>
 </g>
</svg>