<svg xmlns="http://www.w3.org/2000/svg" width="60" height="60"><style><![CDATA[.B{fill:rgb(62.745098%,63.137255%,63.921569%)}.C{fill:rgb(71.372549%,72.156863%,72.941176%)}]]></style><ellipse ry="28.339" rx="28.673" cy="30.834" cx="30.167" fill="#6b6b6b"/><ellipse ry="22.838" rx="24.838" cy="25.332" cx="30.333" fill="#848688"/><g stroke="null" stroke-width=".09"><path d="M18.172 28.127H15.31a1 1 0 0 1-.612-.207l-11.45-8.97 1.223-1.38 11.186 8.76h2.517v1.794h-.002zm0 0" class="B"/><path fill="rgb(85.490196%,86.666667%,87.45098%)" d="M15.31 7.5h32.444v41.255H15.31V7.5zm0 0"/><path d="M15.3 48.754h5.725v3.588H15.3v-3.588zm26.718 0h5.725v3.588h-5.725v-3.588zm0 0" class="B"/><path d="M27.714 41.58h7.634v3.587h-7.634V41.58zm0-7.175h7.634v3.587h-7.634v-3.587zm0-7.175h7.634v3.587h-7.634V27.23zm0 0" fill="rgb(78.039216%,79.215686%,80%)"/><path d="M15.3 40.683h32.444v1.793H15.3v-1.793zm0-7.175h32.444V35.3H15.3v-1.793zm0-7.175h32.444v1.794H15.3v-1.794zm0-8.968h32.444v1.794H15.3v-1.794zm0 0" class="C"/><path fill="rgb(52.941176%,80.784314%,85.098039%)" d="M19.126 11.087h9.542v3.588h-9.542v-3.588zm0 0"/><path fill="rgb(53.333333%,70.196078%,21.568627%)" d="M43.936 12.88c0 .99-.854 1.794-1.908 1.794s-1.91-.803-1.91-1.794.854-1.794 1.91-1.794 1.908.803 1.908 1.794zm0 0"/><path d="M35.348 10.2h1.908v1.793h-1.908V10.2zm-3.818 0h1.9v1.793h-1.9V10.2zm3.818 3.577h1.908v1.794h-1.908v-1.794zm-3.818 0h1.9v1.794h-1.9v-1.794zm-13.358 7.175h5.725v1.793h-5.725v-1.793zm0 0" fill="rgb(26.27451%,59.607843%,81.960784%)"/><path d="M33.44 3.912l-1.91-1.793h11.45V.325H19.126L15.31 3.912V7.5h32.444V3.912H33.44zm0 0" class="C"/><path fill="rgb(44.313725%,76.862745%,81.960784%)" d="M19.126 11.087h9.542v1.794h-9.542v-1.794zm0 0"/></g></svg>