<svg width="60" height="60" xmlns="http://www.w3.org/2000/svg">
 <!-- Created with Method Draw - http://github.com/duopixel/Method-Draw/ -->

 <g>
  <title>background</title>
  <rect fill="none" id="canvas_background" height="62" width="62" y="-1" x="-1"/>
  <g display="none" overflow="visible" y="0" x="0" height="100%" width="100%" id="canvasGrid">
   <rect fill="url(#gridpattern)" stroke-width="0" y="0" x="0" height="100%" width="100%"/>
  </g>
 </g>
 <g>
  <title>Layer 1</title>
  <ellipse transform="rotate(1.1095306873321533 30.392986297606946,30.916664123535117) matrix(0.9687854985180556,0,0,1,0.5038731021989418,0) " ry="27.251837" rx="27.501854" id="svg_3" cy="30.916665" cx="30.852149" stroke-width="1.5" fill="#4a7282"/>
  <g stroke="null" id="svg_460">
   <g stroke="null" transform="matrix(0.020544968924152137,0,0,0.020889021832339295,26.20360764127492,-0.7926537272178393) " id="svg_447">
    <g stroke="null" id="svg_445">
     <path stroke="null" id="svg_448" fill="#ffffff" class="active-path" d="m11.805702,1948.284208c0,16.84375 -13.644532,30.492188 -30.492188,30.492188l-243.929688,0c-16.828124,0 -30.488281,-13.648438 -30.488281,-30.492188l0,-91.472656l-335.402343,0l0,182.945313l975.714843,0l0,-182.945313l-335.402343,0l0,91.472656zm0,0"/>
     <path stroke="null" id="svg_449" fill="#ffffff" class="active-path" d="m-232.123986,2100.74124l182.945312,0l0,60.980468l-182.945312,0l0,-60.980468zm0,0"/>
     <path stroke="null" id="svg_450" fill="#ffffff" class="active-path" d="m-628.506798,1551.901396l975.714843,0l0,-243.929688l-975.714843,0l0,243.929688zm60.980468,-182.945312l182.945313,0l0,60.980468l-182.945313,0l0,-60.980468zm0,0"/>
     <path stroke="null" id="svg_451" fill="#ffffff" class="active-path" d="m11.805702,1704.358427c0,16.84375 -13.644532,30.488281 -30.492188,30.488281l-243.929688,0c-16.828124,0 -30.488281,-13.644531 -30.488281,-30.488281l0,-91.476562l-335.402343,0l0,182.949219l975.714843,0l0,-182.949219l-335.402343,0l0,91.476562zm0,0"/>
     <path stroke="null" id="svg_452" fill="#ffffff" class="active-path" d="m11.805702,2192.213896c0,16.84375 -13.644532,30.492188 -30.492188,30.492188l-243.929688,0c-16.828124,0 -30.488281,-13.648438 -30.488281,-30.492188l0,-91.472656l-335.402343,0l0,182.945312l975.714843,0l0,-182.945312l-335.402343,0l0,91.472656zm0,0"/>
     <path stroke="null" id="svg_453" fill="#ffffff" class="active-path" d="m-232.123986,1856.811552l182.945312,0l0,60.984375l-182.945312,0l0,-60.984375zm0,0"/>
     <path stroke="null" id="svg_454" fill="#ffffff" class="active-path" d="m-232.123986,1612.881865l182.945312,0l0,60.984375l-182.945312,0l0,-60.984375zm0,0"/>
     <path stroke="null" id="svg_455" fill="#ffffff" class="active-path" d="m-628.506798,1246.99124l975.714843,0l0,-304.910156l-975.714843,0l0,304.910156zm823.257812,-213.4375c33.679688,0 60.980469,27.296875 60.980469,60.980468c0,33.691407 -27.300781,60.984376 -60.980469,60.984376c-33.660156,0 -60.980469,-27.292969 -60.980469,-60.984376c0,-33.683593 27.320313,-60.980468 60.980469,-60.980468zm-213.4375,-30.492188l60.980469,0l0,60.984375l-60.980469,0l0,-60.984375zm0,121.964844l60.980469,0l0,60.980469l-60.980469,0l0,-60.980469zm-121.964844,-121.964844l60.984375,0l0,60.984375l-60.984375,0l0,-60.984375zm0,121.964844l60.984375,0l0,60.980469l-60.984375,0l0,-60.980469zm-396.382812,-91.472656l304.910156,0l0,121.964844l-304.910156,0l0,-121.964844zm0,0"/>
     <path stroke="null" id="svg_456" fill="#ffffff" class="active-path" d="m225.243202,2344.670927l121.964843,0l0,60.980469l-121.964843,0l0,-60.980469zm0,0"/>
     <path stroke="null" id="svg_457" fill="#ffffff" class="active-path" d="m-79.666955,820.11624c-8.09375,0 -15.835937,-3.222656 -21.558593,-8.933594l-113.03125,-113.03125l-310.152344,0l-104.097656,104.097656l0,78.847656l975.714843,0l0,-60.980468l-426.875,0zm0,0"/>
     <path stroke="null" id="svg_458" fill="#ffffff" class="active-path" d="m-628.506798,2344.670927l121.964843,0l0,60.980469l-121.964843,0l0,-60.980469zm0,0"/>
     <path stroke="null" id="svg_459" fill="#ffffff" class="active-path" d="m-689.491174,1517.260771l-315.855468,-263.226563l-39.089844,46.898438l354.945312,295.761719l0,-79.433594zm0,0"/>
    </g>
   </g>
  </g>
  <!-- Created with Method Draw - http://github.com/duopixel/Method-Draw/ -->
  <!-- Created with Method Draw - http://github.com/duopixel/Method-Draw/ -->
  <ellipse stroke="null" ry="7.833643" rx="5.416866" id="svg_434" cy="26.249867" cx="36.500237" stroke-opacity="null" stroke-width="1.5" fill="#4a7282"/>
  <g stroke-width="1.5" fill="#4a7282" id="svg_466">
   <g stroke="null" transform="matrix(0.0830973047782618,0,0,0.09701019471243785,43.055356395638185,45.95571887035345) " id="svg_465">
    <g stroke="null" id="svg_464">
     <path stroke="null" id="svg_462" fill="#4a7282" class="active-path" d="m76.800534,-4.278138c-4.127,-25.664 -12.624,-58.724 -29.667,-70.472c-11.638,-8.024 -52.243,-29.719 -69.582,-38.981l-0.3,-0.16c-1.982,-1.059 -4.402,-0.847 -6.17,0.541c-9.083,7.131 -19.033,11.937 -29.573,14.284c-1.862,0.414 -3.39,1.737 -4.067,3.521l-9.733,25.655l-9.733,-25.655c-0.677,-1.783 -2.205,-3.106 -4.067,-3.521c-10.54,-2.348 -20.49,-7.153 -29.573,-14.284c-1.768,-1.388 -4.188,-1.6 -6.17,-0.541l-0.3,0.16c-17.339,9.263 -57.944,30.957 -69.582,38.981c-17.043,11.748 -25.54,44.808 -29.667,70.472c-0.151,0.938 -0.063,1.897 0.253,2.793c0.7,1.977 18.626,48.304 148.839,48.542c130.213,-0.238 148.139,-46.565 148.839,-48.542c0.317,-0.895 0.404,-1.855 0.253,-2.793zm-64.425,-18.66l-51.334,0l0,-10.811l51.334,0l0,10.811z"/>
     <path stroke="null" id="svg_463" fill="#4a7282" class="active-path" d="m-72.291466,-105.418138c22.083,0 79.846,-29.957 79.846,-98.584c0,-9.703 -0.237,-19.076 -1.036,-27.934c-1.313,-17.434 -4.884,-32.884 -13.776,-44.725c-11.289,-15.951 -30.97,-25.744 -65.034,-25.934c-34.064,0.19 -53.745,9.983 -65.035,25.935c-8.892,11.841 -12.463,27.291 -13.776,44.725c-0.799,8.857 -1.036,18.23 -1.036,27.934c0.001,68.626 57.764,98.583 79.847,98.583zm51.268,-98.602c1.002,1.535 1.708,4.911 1.715,6.982c0.021,4.695 -0.893,13.031 -7.246,16.111c-3.006,1.455 -7.541,2.324 -12.133,2.324c-8.734,0 -15.677,-2.906 -18.572,-7.775c-6.244,-10.49 -4.157,-16.57 -4.14,-16.619c0.163,-0.402 2.071,-3.951 18.895,-4.931c2.908,-0.169 5.366,-0.251 7.515,-0.251c9.368,0.001 12.289,1.593 13.966,4.159zm-51.268,-66.758c8.109,0.109 16.256,1.532 25.39,4.297c-2.355,5.951 -3.535,8.927 -5.89,14.877c-7.212,-2.038 -13.382,-3.097 -19.5,-3.202c-6.118,0.105 -12.288,1.164 -19.5,3.202c-2.356,-5.95 -3.535,-8.926 -5.89,-14.877c9.134,-2.764 17.281,-4.187 25.39,-4.297zm0,37.313c25.838,0.337 39.496,11.979 47.79,19.257c-3.494,-0.33 -7.167,-0.498 -10.998,-0.498c-3.237,0 -6.581,0.122 -9.936,0.363l-0.588,0.042c-6.839,0.483 -10.607,0.75 -15.186,2.801c-0.927,0.415 -1.956,0.914 -3.063,1.482c-1.573,0.811 -3.912,1.717 -5.108,1.98c-0.513,0.113 -1.568,0.39 -2.912,0.39c-1.344,0 -2.399,-0.276 -2.912,-0.39c-1.196,-0.264 -3.535,-1.17 -5.108,-1.98c-1.106,-0.568 -2.136,-1.067 -3.062,-1.482c-4.579,-2.051 -8.347,-2.317 -15.186,-2.801l-0.588,-0.042c-3.355,-0.241 -6.698,-0.363 -9.936,-0.363c-3.831,0 -7.503,0.168 -10.998,0.498c8.295,-7.279 21.953,-18.92 47.791,-19.257zm-51.267,29.445c1.677,-2.566 4.598,-4.158 13.967,-4.158c2.148,0 4.606,0.082 7.515,0.251c16.823,0.979 18.731,4.528 18.895,4.931c0.018,0.049 2.104,6.129 -4.14,16.619c-2.896,4.869 -9.838,7.775 -18.572,7.775c-4.592,0 -9.127,-0.869 -12.133,-2.324c-6.353,-3.08 -7.267,-11.416 -7.246,-16.111c0.006,-2.072 0.712,-5.448 1.714,-6.983zm-16.551,-15.069c0.678,1.482 2.965,6.042 6.527,8.694c-0.582,0.784 -1.003,1.777 -1.076,3.03c-0.038,0.672 -0.015,1.846 0.01,2.894l0.003,0.143c0.014,0.598 0.025,1.133 0.019,1.443c-0.06,2.466 0.925,3.529 1.577,4.232c0.169,0.186 0.291,0.319 0.361,0.438c0.224,0.376 0.384,0.854 0.478,1.422c2.479,15.049 3.085,17.647 9.905,21.238c3.162,1.666 9.577,2.784 15.964,2.784c4.979,0 12.18,-0.659 18.204,-3.803c8.943,-4.671 12.202,-20.455 12.337,-21.124c0.07,-0.494 0.766,-1.227 2.992,-1.227l1.035,0c2.227,0 2.922,0.732 2.992,1.227c0.135,0.669 3.394,16.453 12.337,21.124c6.024,3.144 13.225,3.803 18.204,3.803c6.387,0 12.802,-1.118 15.964,-2.784c6.82,-3.591 7.426,-6.189 9.905,-21.238c0.094,-0.567 0.254,-1.046 0.478,-1.422c0.07,-0.118 0.192,-0.252 0.361,-0.438c0.652,-0.703 1.637,-1.767 1.577,-4.232c-0.007,-0.311 0.005,-0.846 0.019,-1.443l0.003,-0.143c0.024,-1.048 0.048,-2.222 0.01,-2.894c-0.073,-1.253 -0.494,-2.246 -1.076,-3.03c3.562,-2.652 5.85,-7.212 6.527,-8.694c0.19,4.993 0.259,10.047 0.259,15.087c0,34.005 -15.016,55.075 -27.612,66.762c-15.254,14.153 -34.341,20.032 -40.466,20.032s-25.212,-5.879 -40.466,-20.032c-12.596,-11.687 -27.612,-32.757 -27.612,-66.762c0.001,-5.04 0.07,-10.094 0.26,-15.087z"/>
    </g>
   </g>
  </g>
  <g stroke="null" fill="#ffffff" id="svg_389">
   <g stroke="null" transform="matrix(0.0830973047782618,0,0,0.09701019471243785,43.055356395638185,45.95571887035345) " id="svg_385">
    <g stroke="null" id="svg_386">
     <path stroke="null" id="svg_387" fill="#ffffff" class="active-path" d="m89.837848,-0.84197c-4.127,-25.664 -12.624,-58.724 -29.667,-70.472c-11.638,-8.024 -52.243,-29.719 -69.582,-38.981l-0.3,-0.16c-1.982,-1.059 -4.402,-0.847 -6.17,0.541c-9.083,7.131 -19.033,11.937 -29.573,14.284c-1.862,0.414 -3.39,1.737 -4.067,3.521l-9.733,25.655l-9.733,-25.655c-0.677,-1.783 -2.205,-3.106 -4.067,-3.521c-10.54,-2.348 -20.49,-7.153 -29.573,-14.284c-1.768,-1.388 -4.188,-1.6 -6.17,-0.541l-0.3,0.16c-17.339,9.263 -57.944,30.957 -69.582,38.981c-17.043,11.748 -25.54,44.808 -29.667,70.472c-0.151,0.938 -0.063,1.897 0.253,2.793c0.7,1.977 18.626,48.304 148.839,48.542c130.213,-0.238 148.139,-46.565 148.839,-48.542c0.317,-0.895 0.404,-1.855 0.253,-2.793zm-64.425,-18.66l-51.334,0l0,-10.811l51.334,0l0,10.811z"/>
     <path stroke="null" id="svg_388" fill="#ffffff" class="active-path" d="m-59.254152,-101.98197c22.083,0 79.846,-29.957 79.846,-98.584c0,-9.703 -0.237,-19.076 -1.036,-27.934c-1.313,-17.434 -4.884,-32.884 -13.776,-44.725c-11.289,-15.951 -30.97,-25.744 -65.034,-25.934c-34.064,0.19 -53.745,9.983 -65.035,25.935c-8.892,11.841 -12.463,27.291 -13.776,44.725c-0.799,8.857 -1.036,18.23 -1.036,27.934c0.001,68.626 57.764,98.583 79.847,98.583zm51.268,-98.602c1.002,1.535 1.708,4.911 1.715,6.982c0.021,4.695 -0.893,13.031 -7.246,16.111c-3.006,1.455 -7.541,2.324 -12.133,2.324c-8.734,0 -15.677,-2.906 -18.572,-7.775c-6.244,-10.49 -4.157,-16.57 -4.14,-16.619c0.163,-0.402 2.071,-3.951 18.895,-4.931c2.908,-0.169 5.366,-0.251 7.515,-0.251c9.368,0.001 12.289,1.593 13.966,4.159zm-51.268,-66.758c8.109,0.109 16.256,1.532 25.39,4.297c-2.355,5.951 -3.535,8.927 -5.89,14.877c-7.212,-2.038 -13.382,-3.097 -19.5,-3.202c-6.118,0.105 -12.288,1.164 -19.5,3.202c-2.356,-5.95 -3.535,-8.926 -5.89,-14.877c9.134,-2.764 17.281,-4.187 25.39,-4.297zm0,37.313c25.838,0.337 39.496,11.979 47.79,19.257c-3.494,-0.33 -7.167,-0.498 -10.998,-0.498c-3.237,0 -6.581,0.122 -9.936,0.363l-0.588,0.042c-6.839,0.483 -10.607,0.75 -15.186,2.801c-0.927,0.415 -1.956,0.914 -3.063,1.482c-1.573,0.811 -3.912,1.717 -5.108,1.98c-0.513,0.113 -1.568,0.39 -2.912,0.39c-1.344,0 -2.399,-0.276 -2.912,-0.39c-1.196,-0.264 -3.535,-1.17 -5.108,-1.98c-1.106,-0.568 -2.136,-1.067 -3.062,-1.482c-4.579,-2.051 -8.347,-2.317 -15.186,-2.801l-0.588,-0.042c-3.355,-0.241 -6.698,-0.363 -9.936,-0.363c-3.831,0 -7.503,0.168 -10.998,0.498c8.295,-7.279 21.953,-18.92 47.791,-19.257zm-51.267,29.445c1.677,-2.566 4.598,-4.158 13.967,-4.158c2.148,0 4.606,0.082 7.515,0.251c16.823,0.979 18.731,4.528 18.895,4.931c0.018,0.049 2.104,6.129 -4.14,16.619c-2.896,4.869 -9.838,7.775 -18.572,7.775c-4.592,0 -9.127,-0.869 -12.133,-2.324c-6.353,-3.08 -7.267,-11.416 -7.246,-16.111c0.006,-2.072 0.712,-5.448 1.714,-6.983zm-16.551,-15.069c0.678,1.482 2.965,6.042 6.527,8.694c-0.582,0.784 -1.003,1.777 -1.076,3.03c-0.038,0.672 -0.015,1.846 0.01,2.894l0.003,0.143c0.014,0.598 0.025,1.133 0.019,1.443c-0.06,2.466 0.925,3.529 1.577,4.232c0.169,0.186 0.291,0.319 0.361,0.438c0.224,0.376 0.384,0.854 0.478,1.422c2.479,15.049 3.085,17.647 9.905,21.238c3.162,1.666 9.577,2.784 15.964,2.784c4.979,0 12.18,-0.659 18.204,-3.803c8.943,-4.671 12.202,-20.455 12.337,-21.124c0.07,-0.494 0.766,-1.227 2.992,-1.227l1.035,0c2.227,0 2.922,0.732 2.992,1.227c0.135,0.669 3.394,16.453 12.337,21.124c6.024,3.144 13.225,3.803 18.204,3.803c6.387,0 12.802,-1.118 15.964,-2.784c6.82,-3.591 7.426,-6.189 9.905,-21.238c0.094,-0.567 0.254,-1.046 0.478,-1.422c0.07,-0.118 0.192,-0.252 0.361,-0.438c0.652,-0.703 1.637,-1.767 1.577,-4.232c-0.007,-0.311 0.005,-0.846 0.019,-1.443l0.003,-0.143c0.024,-1.048 0.048,-2.222 0.01,-2.894c-0.073,-1.253 -0.494,-2.246 -1.076,-3.03c3.562,-2.652 5.85,-7.212 6.527,-8.694c0.19,4.993 0.259,10.047 0.259,15.087c0,34.005 -15.016,55.075 -27.612,66.762c-15.254,14.153 -34.341,20.032 -40.466,20.032s-25.212,-5.879 -40.466,-20.032c-12.596,-11.687 -27.612,-32.757 -27.612,-66.762c0.001,-5.04 0.07,-10.094 0.26,-15.087z"/>
    </g>
   </g>
  </g>
  <ellipse stroke="null" ry="7.583559" rx="4.375131" id="svg_461" cy="29.541653" cx="8.166015" fill-opacity="null" stroke-opacity="null" stroke-width="1.5" fill="#4a7282"/>
 </g>
</svg>