<svg width="60.00000000000001" height="60.00000000000001" xmlns="http://www.w3.org/2000/svg">
 <!-- Created with Method Draw - http://github.com/duopixel/Method-Draw/ -->

 <g>
  <title>background</title>
  <rect fill="none" id="canvas_background" height="62" width="62" y="-1" x="-1"/>
  <g display="none" overflow="visible" y="0" x="0" height="100%" width="100%" id="canvasGrid">
   <rect fill="url(#gridpattern)" stroke-width="0" y="0" x="0" height="100%" width="100%"/>
  </g>
 </g>
 <g>
  <title>Layer 1</title>
  <ellipse transform="rotate(1.1095306873321533 30.392986297606946,30.916664123535117) matrix(0.9687854985180556,0,0,1,0.5038731021989418,0) " ry="27.251837" rx="27.501854" id="svg_3" cy="30.916665" cx="30.852149" stroke-width="1.5" fill="#284854"/>
  <!-- Created with Method Draw - http://github.com/duopixel/Method-Draw/ -->
  <!-- Created with Method Draw - http://github.com/duopixel/Method-Draw/ -->
  <g stroke="null" id="svg_479">
   <g stroke="null" transform="matrix(0.0037952915695464184,0,0,0.003941834637903757,37.85846409133046,37.510789692233686) " id="svg_474">
    <g stroke="null" id="svg_472">
     <path stroke="null" id="svg_475" fill="#4a7282" class="active-path" d="m-4028.817763,-2771.544248c5.339844,1.339843 10.226563,4.109375 14.121094,8l435.074219,435.082031l78.726562,-78.71875l-435.082031,-435.082031c-3.902344,-3.898438 -6.660156,-8.800781 -8.007812,-14.15625l-27.382813,-109.15625l-181.523437,-103.777344l-88.890626,88.886719l103.808594,181.648437l109.15625,27.273438zm0,0"/>
     <path stroke="null" id="svg_476" fill="#4a7282" class="active-path" d="m-3641.93495,-1779.110655l690.394531,-690.40625c7.5625,-7.570312 18.535156,-10.605468 28.910156,-8.023437c90.898438,23.296875 187.449219,3.109375 261.429688,-54.609375c73.992187,-57.722656 117.03125,-146.488281 116.535156,-240.320312c0,-5.714844 -0.167969,-11.472657 -0.539062,-17.28125l-160.578126,160.558593c-8.136718,8.144531 -20.203124,11 -31.140624,7.351563l-182.636719,-60.886719c-9.09375,-3.011719 -16.226563,-10.144531 -19.261719,-19.230469l-60.871094,-182.640625c-3.652344,-10.921875 -0.804687,-22.992187 7.351563,-31.144531l160.574219,-160.570312c-96.695313,-6.015626 -190.441407,34.609374 -252.203126,109.25c-61.753906,74.65625 -84.070312,174.351562 -60.050781,268.199218c2.601563,10.390625 -0.429687,21.359375 -8,28.925782l-690.382812,690.359374c-7.574219,7.511719 -18.535157,10.558594 -28.917969,8.015626c-24.035156,-6.171876 -48.753906,-9.371094 -73.582031,-9.46875c-131.097657,-0.863282 -248.234375,81.78125 -291.398438,205.597656c-43.140625,123.804687 -2.738281,261.355468 100.511719,342.160156c103.25,80.804688 246.476562,86.984375 356.289062,15.34375c109.820313,-71.636719 161.890626,-205.199219 129.527344,-332.269531c-2.574218,-10.371094 0.46875,-21.359375 8.039063,-28.910157zm-228.875,224.242188l-148.164063,0l-73.074218,-121.753906l73.074218,-121.773438l148.164063,0l73.058593,121.773438l-73.058593,121.753906zm117.476562,-356.363281l669.671875,-669.679688l43.035156,43.042969l-669.671874,669.679688l-43.035157,-43.042969zm0,0"/>
     <path stroke="null" id="svg_477" fill="#4a7282" class="active-path" d="m-2794.259169,-1384.032529c67.800781,25.492187 144.242188,8.960937 195.464844,-42.257813c51.226562,-51.234375 67.761718,-127.6875 42.257812,-195.472656l-237.722656,237.730469zm0,0"/>
     <path stroke="null" id="svg_478" fill="#4a7282" class="active-path" d="m-2598.790419,-1687.700498l-341.886719,-342.023438c-37.710937,31.699219 -93.398437,29.289063 -128.253906,-5.523437c-34.859375,-34.804688 -37.316406,-90.476563 -5.671875,-128.226563l-48.417969,-48.476562l-261.355469,261.367187l48.710938,48.707032c37.710938,-31.699219 93.40625,-29.296876 128.242188,5.503906c34.855468,34.8125 37.328124,90.492187 5.679687,128.246094l341.597656,341.777343c3.726563,3.726563 7.660157,7.179688 11.632813,10.539063l260.269531,-260.269532c-3.351563,-3.980468 -6.820313,-7.898437 -10.546875,-11.621093zm-180.476562,123.90625l-304.394532,-304.394531l43.035156,-43.042969l304.402344,304.410156l-43.042968,43.027344zm0,0"/>
    </g>
   </g>
  </g>
  <g stroke="null" id="svg_492">
   <g stroke="null" transform="matrix(0.07507332230726614,0,0,0.06484544308983879,73.5034793231825,96.5915822094772) " id="svg_485">
    <g stroke="null" id="svg_486">
     <g stroke="null" id="svg_487">
      <g stroke="null" id="svg_488">
       <path stroke="null" id="svg_489" fill="#ffffff" class="active-path" d="m-695.529457,-1003.244029l-74.667,0c-5.896,0 -10.667,-4.771 -10.667,-10.667l0,-42.667c0,-5.896 4.771,-10.667 10.667,-10.667l74.667,0l0,-42.979c0,-42.75 16.646,-82.927 46.875,-113.146l14.542,-14.541l-93.417,0c-2.833,0 -5.542,1.125 -7.542,3.125l-26.5,26.51c-26.188,26.177 -40.625,61 -40.625,98.052l0,373.646c0,5.896 4.771,10.667 10.667,10.667l97.965,0c-1.195,-3.353 -1.965,-6.909 -1.965,-10.667l0,-266.666zm-53.333,170.666c-17.646,0 -32,-14.354 -32,-32c0,-13.635 16.25,-38.615 23.229,-48.729c3.958,-5.771 13.583,-5.771 17.542,0c6.979,10.115 23.229,35.094 23.229,48.729c0,17.646 -14.354,32 -32,32z"/>
       <path stroke="null" id="svg_490" fill="#ffffff" class="active-path" d="m-333.675457,-1231.328029c-1.646,-3.989 -5.541,-6.583 -9.854,-6.583l-128,0c-2.833,0 -5.542,1.125 -7.542,3.125l-26.5,26.51c-26.188,26.177 -40.625,61 -40.625,98.052l0,373.646c0,5.896 4.771,10.667 10.667,10.667l128,0c2.988,0 5.671,-1.24 7.607,-3.216l0.081,0.081l63.854,-64c2,-2 3.125,-4.708 3.125,-7.531l0,-426.667c0.001,-1.375 -0.267,-2.762 -0.813,-4.084zm-137.854,398.75c-17.646,0 -32,-14.354 -32,-32c0,-13.635 16.25,-38.615 23.229,-48.729c3.958,-5.771 13.583,-5.771 17.542,0c6.979,10.115 23.229,35.094 23.229,48.729c0,17.646 -14.354,32 -32,32zm53.333,-181.333c0,5.896 -4.771,10.667 -10.667,10.667l-85.333,0c-5.896,0 -10.667,-4.771 -10.667,-10.667l0,-42.667c0,-5.896 4.771,-10.667 10.667,-10.667l85.333,0c5.896,0 10.667,4.771 10.667,10.667l0,42.667zm64,208.927l-42.667,42.77l0,-348.009c0,-31.354 12.208,-60.823 34.375,-82.969l8.292,-8.296l0,396.504z"/>
       <path stroke="null" id="svg_491" fill="#ffffff" class="active-path" d="m-567.529457,-1003.244029l-74.667,0c-5.896,0 -10.667,-4.771 -10.667,-10.667l0,-42.667c0,-5.896 4.771,-10.667 10.667,-10.667l74.667,0l0,-42.979c0,-42.75 16.646,-82.927 46.875,-113.146l14.542,-14.541l-93.417,0c-2.833,0 -5.542,1.125 -7.542,3.125l-26.5,26.51c-26.188,26.177 -40.625,61 -40.625,98.052l0,373.646c0,5.896 4.771,10.667 10.667,10.667l97.965,0c-1.195,-3.353 -1.965,-6.909 -1.965,-10.667l0,-266.666zm-53.333,170.666c-17.646,0 -32,-14.354 -32,-32c0,-13.635 16.25,-38.615 23.229,-48.729c3.958,-5.771 13.583,-5.771 17.542,0c6.979,10.115 23.229,35.094 23.229,48.729c0,17.646 -14.354,32 -32,32z"/>
      </g>
     </g>
    </g>
   </g>
  </g>
  <text font-weight="bold" xml:space="preserve" text-anchor="start" font-family="Euphoria, sans-serif" font-size="6" id="svg_505" y="48.311414" x="15.065565" stroke-width="1.5" fill="#4a7282">C</text>
  <text font-weight="bold" xml:space="preserve" text-anchor="start" font-family="Euphoria, sans-serif" font-size="6" id="svg_511" y="48.311414" x="24.376134" stroke-width="1.5" fill="#4a7282">M</text>
  <text font-weight="bold" xml:space="preserve" text-anchor="start" font-family="Euphoria, sans-serif" font-size="6" id="svg_512" y="48.311414" x="35.498827" stroke-width="1.5" fill="#4a7282">K</text>
 </g>
</svg>