<svg xmlns="http://www.w3.org/2000/svg" xmlns:xlink="http://www.w3.org/1999/xlink" width="60" height="60"><style><![CDATA[.B{fill-opacity:NaN}.C{stroke-opacity:NaN}.D{fill:#f2f6fc}]]></style><g fill="#00a4e3" stroke="null"><path fill="#ad00e2" d="M59.125 30.562a28.9 28.9 0 0 1-8.312 20.333 28.79 28.79 0 0 1-10.388 6.771 28.27 28.27 0 0 1-3.675 1.108 28.76 28.76 0 0 1-6.438.725c-2.54 0-5.005-.33-7.35-.95-4.53-1.196-8.626-3.475-11.995-6.543C5.152 46.712 1.5 39.065 1.5 30.562 1.5 14.58 14.4 1.625 30.312 1.625S59.125 14.58 59.125 30.562z"/><path fill="#f651ff" d="M52.915 23.825c0 6.183-2.474 11.786-6.485 15.863a22.46 22.46 0 0 1-8.104 5.283 22.08 22.08 0 0 1-2.867.864c-1.615.37-3.296.566-5.022.566-1.983 0-3.905-.258-5.735-.742-3.535-.933-6.73-2.71-9.358-5.105A22.56 22.56 0 0 1 7.96 23.826C7.96 11.357 18.023 1.25 30.437 1.25s22.478 10.107 22.478 22.575z"/><g stroke-width="NaN" fill="#23272b" class="B C"><use xlink:href="#B" transform="rotate(39.013 18.246 5.904)"/><use xlink:href="#B" x="0.875" y="4.115" transform="rotate(39.013 19.121 10.029)"/><use xlink:href="#B" x="0.75" y="9.5" transform="rotate(39.013 18.996 15.404)"/><use xlink:href="#B" x="1" y="15.5" transform="rotate(39.013 19.246 21.404)"/><use xlink:href="#B" x="0.75" y="21.375" transform="rotate(39.013 18.996 27.279)"/><use xlink:href="#B" x="0.5" y="27.25" transform="rotate(39.013 18.746 33.154)"/><use xlink:href="#B" x="0.5" y="32.115" transform="rotate(39.013 18.746 38.029)"/><use xlink:href="#B" x="1" y="35.75" transform="rotate(1.77 19.246 41.654)"/><use xlink:href="#B" x="13.375" y="35.875" transform="rotate(1.77 31.621 41.779)"/><use xlink:href="#B" x="24.625" y="35.875" transform="rotate(1.77 42.871 41.779)"/><use xlink:href="#B" x="12.5" y="30.5" transform="rotate(39.013 30.746 36.404)"/><use xlink:href="#B" x="24.125" y="30.375" transform="rotate(39.013 42.371 36.279)"/><use xlink:href="#B" x="12.375" y="24.5" transform="rotate(39.013 30.621 30.404)"/><use xlink:href="#B" x="24.125" y="23.875" transform="rotate(39.013 42.371 29.779)"/><use xlink:href="#B" x="12.625" y="18.375" transform="rotate(39.013 30.871 24.279)"/><use xlink:href="#B" x="24.375" y="17.5" transform="rotate(39.013 42.621 23.404)"/><use xlink:href="#B" x="12.75" y="12.5" transform="rotate(39.013 30.996 18.404)"/><use xlink:href="#B" x="24.125" y="11.115" transform="rotate(39.013 42.371 17.029)"/><use xlink:href="#B" x="11.75" y="7.5" transform="rotate(39.013 29.996 13.404)"/><use xlink:href="#B" x="24.375" y="5.115" transform="rotate(39.013 42.621 11.029)"/><use xlink:href="#B" x="12.5" y="1.615" transform="rotate(39.013 30.746 7.529)"/><path d="M42.008 3.468l4.777 3.87-4.053 5.002-4.777-3.87z"/><use xlink:href="#B" x="11.875" transform="rotate(39.013 30.121 5.904)"/><use xlink:href="#B" x="23.5" transform="rotate(39.013 41.746 5.904)"/></g><g transform="matrix(.131724 0 0 .172212 -10.551976 -19.134861)"><path fill="#00edff" d="M144.76 119.9h71.33v253.17h-71.33z"/><path fill="#00c7e8" d="M180.43 119.9h35.667v253.17H180.43z"/><path fill="#ff0086" d="M233.76 119.9h71.33v253.17h-71.33z"/><path fill="#d72878" d="M269.05 119.9h36.05v253.17h-36.05z"/><path fill="#ffe000" d="M322 119.9h71.33v253.17H322z"/><path fill="#9196aa" d="M411 119.9h71.33v253.17H411z"/><use xlink:href="#C" fill="#fff"/><path d="M180.428 340.48c11.123 0 20.14-9.017 20.14-20.14s-20.14-33.527-20.14-33.527v53.667z" class="D"/><g fill="#fff"><use xlink:href="#C" x="88.62"/><use xlink:href="#C" x="177.242"/><use xlink:href="#C" x="266.242"/></g><path fill="#4ab8f7" d="M163.88 148.81h36.685v24H163.88z"/><path fill="#1ea1e3" d="M180.38 148.81h20.18v24h-20.18z"/><path fill="#d60569" d="M250.71 148.81h36.685v24H250.71z"/><path fill="#ffa426" d="M339.71 148.81h36.685v24H339.71z"/><path fill="#7e8596" d="M428.33 148.81h36.685v24H428.33z"/><path fill="#ffbc36" d="M357.16 119.9h36.18v253.17h-36.18z"/><path fill="#7e8596" d="M446.67 119.9h35.667v253.17H446.67z"/><use xlink:href="#D" class="D"/><g fill="#fff"><use xlink:href="#C" x="176.727"/><use xlink:href="#C" x="266.242"/></g><g class="D"><use xlink:href="#D" x="88.105"/><use xlink:href="#D" x="177.62"/></g><path fill="#cc116e" d="M269.43 148.81h17.964v24H269.43z"/><path fill="#fe8205" d="M357.16 148.81h19.236v24H357.16z"/><path fill="#636978" d="M446.67 148.81h18.343v24H446.67z"/></g></g><defs ><path id="B" d="M15.172 2.685h6.148v6.438h-6.148z"/><path id="C" d="M200.568 320.342c0 11.123-9.017 20.14-20.14 20.14s-20.14-9.017-20.14-20.14 20.14-33.527 20.14-33.527 20.14 22.404 20.14 33.527z"/><path id="D" d="M269.05 286.814s20.14 22.404 20.14 33.527-9.016 20.14-20.14 20.14v-53.667z"/></defs></svg>