<svg width="59.99999999999999" height="59.99999999999999" xmlns="http://www.w3.org/2000/svg">
 <!-- Created with Method Draw - http://github.com/duopixel/Method-Draw/ -->

 <g>
  <title>background</title>
  <rect fill="none" id="canvas_background" height="62" width="62" y="-1" x="-1"/>
  <g display="none" overflow="visible" y="0" x="0" height="100%" width="100%" id="canvasGrid">
   <rect fill="url(#gridpattern)" stroke-width="0" y="0" x="0" height="100%" width="100%"/>
  </g>
 </g>
 <g>
  <title>Layer 1</title>
  <ellipse transform="rotate(1.1095306873321533 29.6844234466547,30.250085830688583) matrix(0.9687854985180556,0,0,1,0.5038731021989418,0) " ry="27.251837" rx="27.501854" id="svg_3" cy="30.250087" cx="30.120753" stroke-width="1.5" fill="#848688"/>
  <g stroke="null" id="svg_579">
   <g stroke="null" id="svg_570">
    <g stroke="null" id="svg_571">
     <path stroke="null" id="svg_572" fill="#ffffff" class="active-path" d="m400.439882,216.651649l-166.491,0l0,-3.904l132.953,-17.156c4.107,-0.53 7.009,-4.29 6.479,-8.398s-4.286,-7.007 -8.398,-6.479l-131.034,16.908l0,-9.469c0,-2.126 -0.902,-4.152 -2.482,-5.574c-1.58,-1.422 -3.688,-2.103 -5.803,-1.885l-85.496,9c-3.817,0.402 -6.715,3.621 -6.715,7.459l0,413.979c0,4.142 3.358,7.5 7.5,7.5l14.999,0l0,4.5c0,4.142 3.358,7.5 7.5,7.5s7.5,-3.358 7.5,-7.5l0,-4.5l199.489,0l0,4.5c0,4.142 3.357,7.5 7.5,7.5s7.5,-3.358 7.5,-7.5l0,-4.5l14.999,0c4.143,0 7.5,-3.358 7.5,-7.5l0,-386.981c0,-4.142 -3.357,-7.5 -7.5,-7.5zm-251.987,282.486l244.487,0l0,48.497l-244.487,0l0,-48.497zm0,-10l0,-48.497l244.487,0l0,48.497l-244.487,0zm0,-58.497l0,-153.491l63.996,0l0,87.457c0,1.652 0.816,3.197 2.18,4.128c0.843,0.576 1.828,0.871 2.82,0.871c0.614,0 1.23,-0.113 1.818,-0.342c55.09,-21.504 115.064,-28.749 173.672,-21.035l0,82.413l-244.486,0l0,-0.001zm73.996,-87.174c54.211,-20.554 113.007,-27.39 170.491,-19.823l0,14.5c-57.448,-7.348 -116.136,-0.732 -170.491,19.223l0,-13.9zm170.491,-29.912c-57.451,-7.35 -116.135,-0.72 -170.491,19.236l0,-55.642l170.491,0l0,36.406zm-126.493,-46.406l-100.995,0l0,-3.51c0,-6.611 5.378,-11.989 11.988,-11.989l77.018,0c6.611,0 11.989,5.378 11.989,11.989l0,3.51zm126.493,0l-116.493,0l0,-3.51c0,-12.125 -9.864,-21.989 -21.989,-21.989l-77.018,0c-12.125,0 -21.988,9.864 -21.988,21.989l0,3.51l-6.999,0l0,-35.498l244.487,0l0,35.498zm-244.487,-63.244l70.496,-7.421l0,20.167l-70.496,0l0,-12.746zm0,399.727l0,-45.997l244.487,0l0,45.997l-244.487,0z"/>
     <path stroke="null" id="svg_573" fill="#ffffff" class="active-path" d="m277.445882,565.634649l-13.499,0c-2.761,0 -5,2.239 -5,5s2.239,5 5,5l13.499,0c2.762,0 5,-2.239 5,-5s-2.238,-5 -5,-5z"/>
     <path stroke="null" id="svg_574" fill="#ffffff" class="active-path" d="m277.445882,507.136649l-13.499,0c-2.761,0 -5,2.239 -5,5s2.239,5 5,5l13.499,0c2.762,0 5,-2.239 5,-5s-2.238,-5 -5,-5z"/>
     <path stroke="null" id="svg_575" fill="#ffffff" class="active-path" d="m277.445882,448.639649l-13.499,0c-2.761,0 -5,2.239 -5,5s2.239,5 5,5l13.499,0c2.762,0 5,-2.239 5,-5s-2.238,-5 -5,-5z"/>
     <path stroke="null" id="svg_576" fill="#ffffff" class="active-path" d="m179.949882,254.401649c-1.31,0 -2.6,0.53 -3.53,1.46c-0.94,0.93 -1.47,2.22 -1.47,3.54c0,1.31 0.53,2.6 1.47,3.53c0.93,0.93 2.22,1.47 3.53,1.47c1.32,0 2.61,-0.54 3.54,-1.47c0.93,-0.93 1.46,-2.22 1.46,-3.53c0,-1.32 -0.53,-2.61 -1.46,-3.54c-0.93,-0.93 -2.22,-1.46 -3.54,-1.46z"/>
     <path stroke="null" id="svg_577" fill="#ffffff" class="active-path" d="m197.949882,254.401649c-1.32,0 -2.6,0.53 -3.54,1.46c-0.93,0.93 -1.46,2.22 -1.46,3.54c0,1.32 0.53,2.6 1.46,3.53c0.94,0.93 2.22,1.47 3.54,1.47c1.32,0 2.61,-0.54 3.54,-1.47c0.93,-0.93 1.46,-2.21 1.46,-3.53c0,-1.32 -0.53,-2.61 -1.46,-3.54c-0.93,-0.93 -2.22,-1.46 -3.54,-1.46z"/>
     <path stroke="null" id="svg_578" fill="#ffffff" class="active-path" d="m199.449882,285.148649l-37.498,0c-2.761,0 -5,2.239 -5,5l0,26.999c0,2.761 2.239,5 5,5l37.498,0c2.761,0 5,-2.239 5,-5l0,-26.999c0,-2.761 -2.239,-5 -5,-5zm-5,26.998l-27.498,0l0,-16.999l27.498,0l0,16.999z"/>
    </g>
   </g>
   <g stroke="null" id="svg_589">
    <g stroke="null" id="svg_588">
     <path stroke="null" id="svg_581" fill="#ffffff" class="active-path" d="m400.439882,216.651649l-166.491,0l0,-3.904l132.953,-17.156c4.107,-0.53 7.009,-4.29 6.479,-8.398s-4.286,-7.007 -8.398,-6.479l-131.034,16.908l0,-9.469c0,-2.126 -0.902,-4.152 -2.482,-5.574c-1.58,-1.422 -3.688,-2.103 -5.803,-1.885l-85.496,9c-3.817,0.402 -6.715,3.621 -6.715,7.459l0,413.979c0,4.142 3.358,7.5 7.5,7.5l14.999,0l0,4.5c0,4.142 3.358,7.5 7.5,7.5s7.5,-3.358 7.5,-7.5l0,-4.5l199.489,0l0,4.5c0,4.142 3.357,7.5 7.5,7.5s7.5,-3.358 7.5,-7.5l0,-4.5l14.999,0c4.143,0 7.5,-3.358 7.5,-7.5l0,-386.981c0,-4.142 -3.357,-7.5 -7.5,-7.5zm-251.987,282.486l244.487,0l0,48.497l-244.487,0l0,-48.497zm0,-10l0,-48.497l244.487,0l0,48.497l-244.487,0zm0,-58.497l0,-153.491l63.996,0l0,87.457c0,1.652 0.816,3.197 2.18,4.128c0.843,0.576 1.828,0.871 2.82,0.871c0.614,0 1.23,-0.113 1.818,-0.342c55.09,-21.504 115.064,-28.749 173.672,-21.035l0,82.413l-244.486,0l0,-0.001zm73.996,-87.174c54.211,-20.554 113.007,-27.39 170.491,-19.823l0,14.5c-57.448,-7.348 -116.136,-0.732 -170.491,19.223l0,-13.9zm170.491,-29.912c-57.451,-7.35 -116.135,-0.72 -170.491,19.236l0,-55.642l170.491,0l0,36.406zm-126.493,-46.406l-100.995,0l0,-3.51c0,-6.611 5.378,-11.989 11.988,-11.989l77.018,0c6.611,0 11.989,5.378 11.989,11.989l0,3.51zm126.493,0l-116.493,0l0,-3.51c0,-12.125 -9.864,-21.989 -21.989,-21.989l-77.018,0c-12.125,0 -21.988,9.864 -21.988,21.989l0,3.51l-6.999,0l0,-35.498l244.487,0l0,35.498zm-244.487,-63.244l70.496,-7.421l0,20.167l-70.496,0l0,-12.746zm0,399.727l0,-45.997l244.487,0l0,45.997l-244.487,0z"/>
     <path stroke="null" id="svg_582" fill="#ffffff" class="active-path" d="m277.445882,565.634649l-13.499,0c-2.761,0 -5,2.239 -5,5s2.239,5 5,5l13.499,0c2.762,0 5,-2.239 5,-5s-2.238,-5 -5,-5z"/>
     <path stroke="null" id="svg_583" fill="#ffffff" class="active-path" d="m277.445882,507.136649l-13.499,0c-2.761,0 -5,2.239 -5,5s2.239,5 5,5l13.499,0c2.762,0 5,-2.239 5,-5s-2.238,-5 -5,-5z"/>
     <path stroke="null" id="svg_584" fill="#ffffff" class="active-path" d="m277.445882,448.639649l-13.499,0c-2.761,0 -5,2.239 -5,5s2.239,5 5,5l13.499,0c2.762,0 5,-2.239 5,-5s-2.238,-5 -5,-5z"/>
     <path stroke="null" id="svg_585" fill="#ffffff" class="active-path" d="m179.949882,254.401649c-1.31,0 -2.6,0.53 -3.53,1.46c-0.94,0.93 -1.47,2.22 -1.47,3.54c0,1.31 0.53,2.6 1.47,3.53c0.93,0.93 2.22,1.47 3.53,1.47c1.32,0 2.61,-0.54 3.54,-1.47c0.93,-0.93 1.46,-2.22 1.46,-3.53c0,-1.32 -0.53,-2.61 -1.46,-3.54c-0.93,-0.93 -2.22,-1.46 -3.54,-1.46z"/>
     <path stroke="null" id="svg_586" fill="#ffffff" class="active-path" d="m197.949882,254.401649c-1.32,0 -2.6,0.53 -3.54,1.46c-0.93,0.93 -1.46,2.22 -1.46,3.54c0,1.32 0.53,2.6 1.46,3.53c0.94,0.93 2.22,1.47 3.54,1.47c1.32,0 2.61,-0.54 3.54,-1.47c0.93,-0.93 1.46,-2.21 1.46,-3.53c0,-1.32 -0.53,-2.61 -1.46,-3.54c-0.93,-0.93 -2.22,-1.46 -3.54,-1.46z"/>
     <path stroke="null" id="svg_587" fill="#ffffff" class="active-path" d="m199.449882,285.148649l-37.498,0c-2.761,0 -5,2.239 -5,5l0,26.999c0,2.761 2.239,5 5,5l37.498,0c2.761,0 5,-2.239 5,-5l0,-26.999c0,-2.761 -2.239,-5 -5,-5zm-5,26.998l-27.498,0l0,-16.999l27.498,0l0,16.999z"/>
    </g>
   </g>
  </g>
  <!-- Created with Method Draw - http://github.com/duopixel/Method-Draw/ -->
  <!-- Created with Method Draw - http://github.com/duopixel/Method-Draw/ -->
  <g stroke="null" id="svg_746">
   <g stroke="null" transform="matrix(0.0544184728176615,0,0,0.05563898269179378,8.084794979178465,15.494560861060286) " id="svg_739">
    <path stroke="null" id="svg_740" fill="#ffffff" class="active-path" d="m38.710388,189.503849l301.878906,0l0,60.070313l-301.878906,0l0,-60.070313zm0,0"/>
    <path stroke="null" id="svg_741" fill="#ffffff" class="active-path" d="m38.710388,159.503849l301.878906,0l0,-121.714843l-135.28125,0l153.222656,-30.625l-5.878906,-29.417969l-313.917968,62.746094l0,57.347656l-0.023438,0l0,61.664062zm271.84375,-31.664062l-60.046875,0l0,-30l60.046875,0l0,30zm0,0"/>
    <path stroke="null" id="svg_742" fill="#ffffff" class="active-path" d="m-31.320862,97.839787l40.03125,0l0,211.757812l-40.03125,0l0,-211.757812zm0,0"/>
    <path stroke="null" id="svg_743" fill="#ffffff" class="active-path" d="m38.710388,279.574162l0,30.023437l0.023438,0l0,30.046876l301.855468,0l0,-60.070313l-301.878906,0zm0,0"/>
    <path stroke="null" id="svg_744" fill="#ffffff" class="active-path" d="m340.589294,369.644475l-301.855468,0l0,90.074218l30.023437,0l0,30.023438l30,0l0,-30.023438l241.832031,0l0,-90.074218zm0,0"/>
    <path stroke="null" id="svg_745" fill="#ffffff" class="active-path" d="m480.679138,159.503849l-110.089844,0l0,300.214844l50.066406,0l0,30.023438l30,0l0,-30.023438l30.023438,0l0,-300.214844zm0,0"/>
   </g>
  </g>
  <rect id="svg_747" height="14.876552" width="4.000417" y="19.811437" x="5.434939" stroke-width="1.5" fill="#848688"/>
  <rect id="svg_749" height="25.877701" width="7.500782" y="21.061568" x="27.312223" stroke-width="1.5" fill="#848688"/>
  <g stroke="null" fill="#ffffff" id="svg_734">
   <g stroke="null" transform="matrix(0.04880264076384464,0,0,0.03665583824732698,46.82702144754147,13.649174698119158) " id="svg_724">
    <g stroke="null" id="svg_725">
     <g stroke="null" id="svg_726">
      <path stroke="null" id="svg_727" fill="#ffffff" class="active-path" d="m-164.660212,305.617865l-102.524,-194.81l-103.305,194.473c-11.572,18.823 -17.695,40.517 -17.695,62.739c0,66.167 54.833,120 121,120s120,-53.833 120,-120c0,-22.48 -6.143,-43.762 -17.476,-62.402z"/>
     </g>
    </g>
    <g stroke="null" id="svg_728">
     <g stroke="null" id="svg_729">
      <path stroke="null" id="svg_730" fill="#ffffff" class="active-path" d="m106.339788,305.617865l-103.524,-194.81l-50.539,96.072l44.606,84.763c11.733,18.73 20.933,46.56 20.933,76.377c0,45.465 -20.768,85.774 -52.82,113.306c11.96,4.008 24.529,6.694 37.82,6.694c66.167,0 121,-53.833 121,-120c0,-22.44 -6.123,-43.729 -17.476,-62.402z"/>
     </g>
    </g>
    <g stroke="null" id="svg_731">
     <g stroke="null" id="svg_732">
      <path stroke="null" id="svg_733" fill="#ffffff" class="active-path" d="m-29.660212,305.617865l-102.524,-194.81l-50.539,96.072l44.606,84.763c11.733,18.73 20.933,46.56 20.933,76.377c0,45.465 -20.768,85.774 -52.82,113.306c11.96,4.008 24.529,6.694 37.82,6.694c66.167,0 120,-53.833 120,-120c0,-22.44 -6.123,-43.729 -17.476,-62.402z"/>
     </g>
    </g>
   </g>
  </g>
  <text transform="matrix(0.4758488195166423,0,0,0.8117465972900393,23.39028161485353,9.28913602126704) " font-weight="bold" xml:space="preserve" text-anchor="start" font-family="'Trebuchet MS', Gadget, sans-serif" font-size="10" id="svg_735" y="37.727959" x="9.593582" stroke-width="1.5" fill="#ffffff">BERWARNA</text>
 </g>
</svg>