<svg xmlns="http://www.w3.org/2000/svg" xmlns:xlink="http://www.w3.org/1999/xlink" width="60" height="60"><style>.E{stroke-width:.098}.F{fill:#083c76}.G{fill:#285e9c}.H{fill:#dad8db}</style><g stroke="null"><g stroke-width="1.5"><ellipse ry="29.004" rx="28.754" cy="30.25" cx="30.125" fill="#e200d3"/><ellipse ry="23.503" rx="23.878" cy="25.249" cx="30" fill="#ff51d3"/></g><g class="E F"><path d="M43.265.65H29.327v7.43h7.743V4.776c0-.456.347-.825.774-.825h5.42c.428 0 .774-.37.774-.825v-1.65c0-.456-.347-.825-.774-.825z"/><path d="M50.234 7.252H29.327v5.778h21.68V8.078c0-.456-.347-.825-.774-.825z"/></g><g class="E"><path fill="#eceaec" d="M13.066-1.002c-1.283 0-2.323 1.1-2.323 2.476V13.03h20.133V-.177c0-.456-.347-.825-.774-.825H13.066z"/><path d="M12.3-.863c-.9.34-1.55 1.26-1.55 2.337V13.03h1.55V-.863z" class="H"/><path d="M14.614 51h-1.55c-.428 0-.774-.37-.774-.825v-1.65h3.097v1.65c0 .456-.347.825-.774.825zm34.07 0h-1.55c-.428 0-.774-.37-.774-.825v-1.65h3.097v1.65c0 .456-.347.825-.774.825z" class="G"/><path fill="#eceaec" d="M10.743 21.284v27.24c0 .456.347.825.774.825h38.717c.428 0 .774-.37.774-.825v-27.24H10.743z"/><path d="M16.163 47.698c-2.138 0-3.872-1.848-3.872-4.127V21.284h-1.55v27.24c0 .456.347.825.774.825h38.717c.428 0 .774-.37.774-.825V47.7H16.163z" class="H"/><g class="F"><path d="M10.743 19.633h40.265v9.905H10.743z"/><path d="M10.743 20.46h40.265v2.476H10.743z"/><path d="M15.4 21.284h30.973v8.254H15.4z"/></g><path fill="#4b3f4e" d="M15.4 20.46h30.973v2.476H15.4z"/><path d="M51.008 21.284H10.743c-.855 0-1.55-.74-1.55-1.65V13.03c0-.912.693-1.65 1.55-1.65h40.265c.855 0 1.55.74 1.55 1.65v6.603c0 .912-.693 1.65-1.55 1.65z" class="G"/><g class="F"><path d="M36.296 17.983h-10.84c-.428 0-.774-.37-.774-.825v-6.603c0-.456.347-.825.774-.825h10.84c.428 0 .774.37.774.825v6.603c0 .456-.347.825-.774.825z"/><use xlink:href="#A"/><use xlink:href="#A" x="-19.359"/><use xlink:href="#A" x="-19.359" y="3.302"/><use xlink:href="#A" x="3.871"/></g><use xlink:href="#A" x="7.743" fill="#fb050c"/><g class="F"><use xlink:href="#A" y="3.302"/><use xlink:href="#A" x="3.871" y="3.302"/></g><use xlink:href="#A" x="7.743" y="3.302" fill="#00bfff"/><path d="M39.393 46.047H22.358c-.855 0-1.55.74-1.55 1.65v1.65H40.94v-1.65c0-.912-.693-1.65-1.55-1.65z" class="F"/><path d="M10.743 41.92h40.265v1.65H10.743z" class="H"/><path fill="#c8c5c9" d="M10.743 41.92h1.55v1.65h-1.55z"/><path d="M39.393 46.047H22.358c-.855 0-1.55.74-1.55 1.65H40.94c0-.912-.693-1.65-1.55-1.65z" class="G"/><g class="F"><path d="M17.712 21.284h1.55v8.254h-1.55z"/><path d="M17.712 21.284h1.55v1.65h-1.55zm24.788 0h1.55v8.254H42.5z"/><path d="M42.5 21.284h1.55v1.65H42.5zm-24.014 3.302h24.78v1.65h-24.78z"/></g><g class="G"><use xlink:href="#B"/><use xlink:href="#B" x="15.488"/><use xlink:href="#B" x="7.743"/></g><path fill="#c3ddff" d="M26.23 11.38h9.292v4.953H26.23z"/><path fill="#a4ccff" d="M27.778 13.856V11.38h-1.55v4.953h9.292v-1.65h-6.97c-.428 0-.774-.37-.774-.825z"/></g><use xlink:href="#C" fill="#4fc2e9"/><use xlink:href="#C" x="-5.583" fill="#ec87c0"/><path fill="#5d9cec" d="M31.125 33.73c-1.67 1.02-2.792 2.924-2.792 5.105s1.123 4.086 2.792 5.105c1.668-1.02 2.792-2.924 2.792-5.105s-1.123-4.086-2.792-5.105z"/><path fill="#ffce54" d="M31.125 40.3c-3.084 0-5.583-2.64-5.583-5.893s2.5-5.894 5.583-5.894 5.583 2.64 5.583 5.894-2.5 5.893-5.583 5.893z"/><path fill="#a0d468" d="M28.333 38.836a6.37 6.37 0 0 0 .04.709 5.33 5.33 0 0 0 2.752.764c3.083 0 5.583-2.64 5.583-5.893a6.4 6.4 0 0 0-.04-.71 5.335 5.335 0 0 0-2.752-.765c-3.083 0-5.583 2.64-5.583 5.894z"/><path fill="#ed5564" d="M28.333 32.942c-1 0-1.94.278-2.75.765a6.24 6.24 0 0 0-.04.709c0 3.255 2.5 5.893 5.583 5.893 1 0 1.94-.277 2.75-.764.027-.233.04-.47.04-.71 0-3.255-2.5-5.894-5.583-5.894z"/><path fill="#434a54" d="M31.284 40.307l.126-.005.127-.01.03-.002.12-.01.025-.003.102-.012a.28.28 0 0 1 .032-.004l.15-.022.1-.016.035-.006.1-.023a.55.55 0 0 0 .041-.009l.082-.02a.164.164 0 0 0 .038-.01l.153-.04.072-.02.066-.02.127-.04.062-.022.084-.03.053-.02.06-.023.05-.02.098-.04.04-.018.064-.028.026-.012.12-.056.033-.016.208-.1c.01-.004.018-.01.028-.015l.137-.08a5.95 5.95 0 0 0 .042-.71c0-2.18-1.123-4.086-2.792-5.105-1.67 1.02-2.792 2.924-2.792 5.105a6.37 6.37 0 0 0 .04.709l.167.096.208.108a.48.48 0 0 0 .034.017l.116.055.03.013.105.046.097.04.05.02.06.023.053.02.084.03.062.022.054.017.073.024.066.02.073.02.05.013.103.027.038.01.082.02.042.01.1.023.035.006.1.016.15.022.033.004.1.012.026.003.12.01.03.002.113.008.14.006.03.001.128.001.128-.001.03-.001z"/></g><defs><path id="A" d="M40.942 15.506h-.774c-.428 0-.774-.37-.774-.825s.346-.825.774-.825h.774c.428 0 .774.37.774.825s-.346.825-.774.825z"/><path id="B" d="M23.132 27.888c-.428 0-.774-.37-.774-.825v-1.65c0-.456.346-.825.774-.825s.774.37.774.825v1.65c0 .456-.346.825-.774.825z"/><path id="C" d="M28.333 38.836c0-3.255 2.5-5.894 5.583-5.894s5.583 2.64 5.583 5.894-2.5 5.894-5.583 5.894-5.583-2.64-5.583-5.894z"/></defs></svg>