<svg width="60" height="60" xmlns="http://www.w3.org/2000/svg">
 <!-- Created with Method Draw - http://github.com/duopixel/Method-Draw/ -->

 <g>
  <title>background</title>
  <rect fill="none" id="canvas_background" height="62" width="62" y="-1" x="-1"/>
  <g display="none" overflow="visible" y="0" x="0" height="100%" width="100%" id="canvasGrid">
   <rect fill="url(#gridpattern)" stroke-width="0" y="0" x="0" height="100%" width="100%"/>
  </g>
 </g>
 <g>
  <title>Layer 1</title>
  <g stroke="null" id="svg_862">
   <g stroke="null" transform="matrix(0.1477446447425718,0,0,0.130482086877808,-147.63298956403372,-126.50369112791176) " id="svg_854">
    <g stroke="null" id="svg_855">
     <g stroke="null" id="svg_856">
      <path stroke="null" id="svg_857" fill="#495f7e" class="active-path" d="m1266.557135,1379.062293c7.466,0 13.513,-6.046 13.513,-13.512l0,-9.127l9.341,0l0,-13.189l-9.402,0l-26.902,0l-104.037,0l-26.902,0l-12.038,0l0,13.189l11.977,0l0,9.127c0,7.466 6.05,13.512 13.512,13.512c7.462,0 13.512,-6.046 13.512,-13.512l0,-9.127l103.921,0l0,9.127c-0.006,7.466 6.046,13.512 13.505,13.512z"/>
      <path stroke="null" id="svg_858" fill="#495f7e" class="active-path" d="m1289.411135,1098.155293c0,-5.526 -1.925,-10.559 -5.042,-14.629c-0.457,-1.821 -1.443,-3.522 -2.978,-4.837l-87.124,-74.532c-3.921,-3.355 -9.828,-2.911 -13.189,1.029c-3.36,3.921 -2.898,9.828 1.029,13.183l65.008,55.612l-18.127,0l0,26.073l-118.857,0l0,49.935l179.273,0l0,-51.834l0.007,0zm-163.163,28.433c-3.474,0 -6.293,-2.819 -6.293,-6.293c0,-3.471 2.819,-6.291 6.293,-6.291c3.474,0 6.291,2.819 6.291,6.291c0,3.474 -2.817,6.293 -6.291,6.293zm21.151,0c-3.474,0 -6.293,-2.819 -6.293,-6.293c0,-3.471 2.819,-6.291 6.293,-6.291c3.471,0 6.29,2.819 6.29,6.291c0,3.474 -2.819,6.293 -6.29,6.293z"/>
      <path stroke="null" id="svg_859" fill="#495f7e" class="active-path" d="m1289.411135,1162.097293l-179.28,0l0,22.959c-20.926,-10.564 -40.636,-23.209 -60.204,-36.228c-10.075,-6.704 -19.427,9.502 -9.438,16.148c22.484,14.958 45.148,29.438 69.642,40.794l0,28.029l179.273,0l0,-71.702l0.007,0z"/>
      <polygon stroke="null" id="svg_860" fill="#495f7e" class="active-path" points="1289.4112548828125,1294.7583644390106 1110.1312255859375,1294.7583644390106 1110.1312255859375,1330.7693507671356 1132.3411865234375,1330.7693507671356 1138.899169921875,1330.7693507671356 1263.2822265625,1330.7693507671356 1269.8402099609375,1330.7693507671356 1289.4112548828125,1330.7693507671356 "/>
      <path stroke="null" id="svg_861" fill="#495f7e" class="active-path" d="m1289.411135,1246.270293l-179.28,0l0,1.139c-0.749,-0.384 -1.51,-0.749 -2.259,-1.139c-5.243,-2.691 -10.406,-5.522 -15.512,-8.445c-14.471,-8.294 -28.488,-17.372 -42.432,-26.652c-10.075,-6.704 -19.427,9.505 -9.438,16.148c22.484,14.961 45.148,29.441 69.642,40.798l0,14.169l179.273,0l0,-36.018l0.006,0z"/>
     </g>
    </g>
   </g>
   <ellipse stroke="null" ry="10.333334" rx="10.5" id="svg_985" cy="35.166667" cx="41.333333" stroke-opacity="null" stroke-width="null" fill="#f9f9f9"/>
  </g>
  <g stroke="null" id="svg_809">
   <g stroke="null" transform="matrix(0.03782145026728724,0,0,0.03521728286558688,-51.978859895665494,-46.6682504957312) " id="svg_784">
    <path stroke="null" id="svg_785" fill="#FF4B00" d="m2471.583288,2067.714724l-30,49.75l30,41.25l116.618,48.382l57.288,-27.288l6.322,-36.322c-46.173,-46.175 -109.923,-75.772 -180.228,-75.772z"/>
    <path stroke="null" id="svg_786" fill="#FF9F00" d="m2651.812288,2143.485724l-63.611,63.611l48.382,116.618l47.813,30l43.187,-30c0,-70.305 -29.597,-134.055 -75.771,-180.229z"/>
    <path stroke="null" id="svg_787" fill="#66BB00" d="m2636.583288,2323.714724l-48.382,116.618l2.913,62.913l60.698,0.698c46.174,-46.174 75.771,-109.924 75.771,-180.229l-91,0z"/>
    <path stroke="null" id="svg_788" fill="#00CC71" d="m2588.201288,2440.332724l-116.618,48.382l-30,49.688l30,41.312c70.305,0 134.055,-29.597 180.229,-75.771l-63.611,-63.611z"/>
    <path stroke="null" id="svg_789" fill="#0095FF" d="m2354.965288,2440.332724l-59.163,-0.837l-4.448,64.448c46.174,46.174 109.924,75.771 180.229,75.771l0,-91l-116.618,-48.382z"/>
    <path stroke="null" id="svg_790" fill="#6B77E8" d="m2306.583288,2323.714724l-44.063,-30l-46.937,30c0,70.305 29.597,134.055 75.771,180.229l63.611,-63.611l-48.382,-116.618z"/>
    <path stroke="null" id="svg_791" fill="#B760EA" d="m2329.554288,2151.683724l-38.199,-8.198c-46.175,46.174 -75.772,109.924 -75.772,180.229l91,0l48.382,-116.618l-25.411,-55.413z"/>
    <path stroke="null" id="svg_792" fill="#FF193D" d="m2471.583288,2158.714724l0,-91c-70.305,0 -134.055,29.597 -180.229,75.771l63.611,63.611c29.877,-29.877 71.127,-48.382 116.618,-48.382z"/>
    <path stroke="null" id="svg_793" fill="#FF7816" d="m2471.583288,2158.714724l-30,45l30,45l53.007,21.993l59.493,-29.493l4.118,-34.118c-29.877,-29.877 -71.127,-48.382 -116.618,-48.382z"/>
    <path stroke="null" id="svg_794" fill="#FDBF00" d="m2588.201288,2207.096724l-63.611,63.611l21.993,53.007l41.618,30l48.382,-30c0,-45.491 -18.505,-86.741 -48.382,-116.618z"/>
    <path stroke="null" id="svg_795" fill="#77DD00" d="m2546.583288,2323.714724l-21.993,53.007l7.106,37.106l56.505,26.505c29.877,-29.877 48.382,-71.127 48.382,-116.618l-90,0z"/>
    <path stroke="null" id="svg_796" fill="#00DD7B" d="m2524.590288,2376.721724l-53.007,21.993l-30,46.875l30,43.125c45.491,0 86.741,-18.505 116.618,-48.382l-63.611,-63.611z"/>
    <path stroke="null" id="svg_797" fill="#3AAAFF" d="m2418.576288,2376.721724l-63.867,3.867l0.256,59.744c29.877,29.877 71.127,48.382 116.618,48.382l0,-90l-53.007,-21.993z"/>
    <path stroke="null" id="svg_798" fill="#7984EB" d="m2396.583288,2323.714724l-41.874,-30l-48.126,30c0,45.491 18.505,86.741 48.382,116.618l63.611,-63.611l-21.993,-53.007z"/>
    <path stroke="null" id="svg_799" fill="#CB75F6" d="m2415.333288,2207.464724l-60.368,-0.368c-29.877,29.877 -48.382,71.127 -48.382,116.618l90,0l21.993,-53.007l-3.243,-63.243z"/>
    <path stroke="null" id="svg_800" fill="#FF4949" d="m2354.965288,2207.096724l63.611,63.611l53.007,-21.993l0,-90c-45.491,0 -86.741,18.505 -116.618,48.382z"/>
    <path stroke="null" id="svg_801" fill="#FF9F00" d="m2524.590288,2270.707724c-13.581,-13.581 -32.331,-21.993 -53.007,-21.993l-30,29.531l30,45.469l56.504,-26.504l-3.497,-26.503z"/>
    <path stroke="null" id="svg_802" fill="#FFD400" d="m2546.583288,2323.714724c0,-20.676 -8.412,-39.426 -21.993,-53.007l-53.007,53.007l47.812,30l27.188,-30z"/>
    <path stroke="null" id="svg_803" fill="#89F900" d="m2524.590288,2376.721724c13.581,-13.581 21.993,-32.331 21.993,-53.007l-75,0l26.504,56.504l26.503,-3.497z"/>
    <path stroke="null" id="svg_804" fill="#00EE84" d="m2471.583288,2323.714724l-30,42.187l30,32.813c20.676,0 39.426,-8.412 53.007,-21.993l-53.007,-53.007z"/>
    <path stroke="null" id="svg_805" fill="#73BCFF" d="m2471.583288,2323.714724l-45,15l-8.007,38.007c13.581,13.581 32.331,21.993 53.007,21.993l0,-75z"/>
    <path stroke="null" id="svg_806" fill="#979FEF" d="m2396.583288,2323.714724c0,20.676 8.412,39.426 21.993,53.007l53.007,-53.007l-44.062,-15l-30.938,15z"/>
    <path stroke="null" id="svg_807" fill="#DA90F8" d="m2418.576288,2270.707724c-13.581,13.581 -21.993,32.331 -21.993,53.007l75,0l-15,-45l-38.007,-8.007z"/>
    <path stroke="null" id="svg_808" fill="#FF6C6C" class="active-path" d="m2471.583288,2248.714724c-20.676,0 -39.426,8.412 -53.007,21.993l53.007,53.007l0,-75z"/>
   </g>
  </g>
 </g>
</svg>