<svg xmlns="http://www.w3.org/2000/svg" width="30" height="30" stroke="null" vector-effect="non-scaling-stroke"><path fill="none" d="M-1-1h32v32H-1z"/><g transform="matrix(.186255 0 0 .188765 .255759 -.280264)"><circle fill="#f4f3f3" r="78.2" cy="81.279" cx="79.363"/><path fill="#f6f6f8" d="M21.46 81.282c0-39.747 29.66-72.545 68.052-77.524C42.372-2.355 1.16 34.3 1.16 81.282c0 46.896 41.14 83.646 88.35 77.524-38.39-4.98-68.052-37.777-68.052-77.524z"/><g fill="#083d77"><path d="M-320.535 66.884c2.37-2.45 7.87-9.248 13.984-20.774 1.017-1.977 1.937-2.458 3.313-2.458h11.35c1.015 0 2.24.5 1.576 2.458-4.5 13.372-14.796 25.085-20.475 31.148 6.203 5.876 17.202 19.783 22.37 33.4.467 1.227.237 2.632-2.357 2.632h-13.553c-1.4 0-2.5-.138-3.44-2.454-3.363-8.377-8.614-17.16-14.6-22.937-6.545 6.947-11.533 15.514-14.893 22.937-.82 1.82-1.64 2.454-3.43 2.454h-12.43c-.83 0-1.675-.976-1.13-2.466 3.697-10.143 11.064-22.767 21.597-32.257-8.266-10.006-16.238-22.2-19.38-32.468-.473-1.544.353-2.458 1.5-2.458h14.6c1.578 0 2.402.643 3.183 2.458 3.587 8.37 8.496 16.343 12.23 20.774zM-95.187 78.4c0 20.556-14.574 35.783-35.154 35.783-20.982 0-35.227-14.572-35.227-35.768 0-20.046 14.053-35.795 35.227-35.795 20.58.001 35.154 15.226 35.154 35.78zm-18.172.004c0-12.017-4.645-22.68-16.972-22.68s-17.08 10.663-17.08 22.68 4.75 22.7 17.08 22.7 16.972-10.67 16.972-22.7zM-228.884 50.2c-5.498-4.9-12.88-7.528-22.004-7.528-18.82 0-34.75 15.008-34.75 36.158 0 22.33 14.4 35.427 36.734 35.427 9 0 19.894-3.4 24.56-6.286 1.633-1 2.145-1.443 1.722-3.093l-2.915-8.255c-.337-1.354-1.84-1.7-3.06-1.095-19.557 9.614-36.95 4.82-38.7-11.344h46.175c1.68 0 2.427-1.162 2.427-3.125 0-7.25.438-21.423-10.187-30.86zm-6.568 21.57h-31.87c1.383-9.337 7.9-15.983 17.015-15.983 9.222 0 14.856 6.264 14.856 15.56v.422zm59.846-29.032c3.133 0 6.98.35 9.395.922 1.6.376 1.833 1.617 1.54 3.212l-1.583 7.778c-.366 1.453-.764 1.868-1.908 1.868-.178 0-.517-.032-.932-.083l-5.56-.48c-15.77 0-14.975 9.92-14.975 19.248v34.56c0 2.276-.996 3.548-3.438 3.548h-10.548c-2.26 0-3.233-1.13-3.416-3.548v-33.93c-.002-14.22-.5-33.096 31.424-33.096z"/><path d="M-59.22 66.884c2.367-2.45 7.87-9.248 13.98-20.774 1.017-1.977 1.94-2.458 3.317-2.458h11.344c1.017 0 2.244.5 1.58 2.458-4.497 13.372-14.796 25.085-20.472 31.148 6.194 5.876 17.194 19.783 22.367 33.4.463 1.227.233 2.632-2.36 2.632h-13.553c-1.405 0-2.493-.138-3.444-2.454-3.36-8.377-8.6-17.16-14.6-22.937-6.547 6.947-11.534 15.514-14.894 22.937-.82 1.82-1.64 2.454-3.428 2.454H-91.82c-.827 0-1.678-.976-1.132-2.466 3.697-10.143 11.063-22.767 21.596-32.257-8.27-10.006-16.24-22.2-19.383-32.468-.47-1.544.356-2.458 1.5-2.458h14.602c1.575 0 2.403.643 3.182 2.458 3.6 8.37 8.5 16.343 12.235 20.774zm-66.42 33.602c1.427.386 2.986.598 4.697.598 12.328 0 16.973-10.67 16.973-22.7s-4.645-22.68-16.973-22.68c-1.7 0-3.27.212-4.697.598 8.832 2.394 12.282 11.733 12.282 22.082s-3.45 19.697-12.282 22.092zm-30.54-22.08c0-18.516 11.996-33.356 30.512-35.514a39.67 39.67 0 0 0-4.673-.28c-21.174 0-35.227 15.75-35.227 35.795 0 21.196 14.245 35.768 35.227 35.768 1.573 0 3.106-.1 4.605-.273-18.33-2.053-30.444-15.954-30.444-35.495zm-120.072.412c0-17.957 11.813-33.398 30.463-35.86-1.635-.195-3.334-.296-5.1-.296-18.82 0-34.75 15.008-34.75 36.158 0 22.33 14.4 35.427 36.734 35.427 1.4 0 2.866-.1 4.335-.243-19.246-1.827-31.68-14.4-31.68-35.185zm78.608 30.935v-33.93c0-12.548-.8-30.986 26.224-32.915a52.77 52.77 0 0 0-4.186-.18c-13.333 0-21.475 3.058-26.7 9.794-4.004 5.165-4.726 10.944-4.726 23.302v33.93c.183 2.418 1.157 3.548 3.416 3.548h9.388c-2.26 0-3.233-1.13-3.416-3.548zm-147.233 1.082c3.6-9.847 10.637-22.032 20.683-31.418.5-.476.57-1.253.13-1.795-7.982-9.82-15.555-21.568-18.598-31.512-.473-1.544.353-2.458 1.5-2.458h-9.388c-1.147 0-1.973.914-1.5 2.458 3.143 10.27 11.116 22.462 19.382 32.468-10.534 9.5-17.9 22.114-21.597 32.257-.545 1.5.3 2.466 1.13 2.466h9.388c-.83 0-1.676-.976-1.132-2.466zM43.05 23.95c22.512 0 42.9 7.455 59.374 18.1 1.406.908 3.273.037 3.494-1.622.68-5.103 1.042-10.188 1.042-15.198 0-10.782-2.308-16.07-4.096-18.54-27.896-8.78-59.34-1.438-80.5 21.1 4.182-1.9 11.65-3.82 20.685-3.82z"/><path d="M22.366 27.77c4.18-1.9 11.65-3.82 20.683-3.82a100.34 100.34 0 0 1 3.391.07C58.064 13.22 72.973 5.903 89.5 3.76c-25.5-3.3-50.188 5.97-67.134 24zM133.5 47.257c0 6.965-.524 13.736-1.5 20.27a3.33 3.33 0 0 0 .647 2.51c10.897 14.357 17.118 29.552 17.118 40.675 0 1.62-.17 3.764-.37 5.384 5.224-10.487 8.178-22.304 8.178-34.816 0-24.3-11.085-46-28.472-60.353 1.873 3.7 4.4 11.317 4.4 26.33zm.34 88.485c0-6.535-4.58-16.764-12.054-26.558-.854-1.118-2.598-.98-3.242.272-13.493 26.193-34.66 44.833-51.763 49.003 24.933 4.038 49.434-4.057 66.92-20.957a11.29 11.29 0 0 0 .14-1.76z"/><path d="M75.015 155.483c-2.817 1.326-5.58 2.327-8.244 2.976 7.76 1.257 15.362 1.303 22.74.346a77.72 77.72 0 0 1-14.496-3.322zm-1.75-86.52c6.4 3.468 12.535 7.386 18.282 11.56a3.62 3.62 0 0 1 1.168 4.407c-14.897 33-39.22 60.345-54.986 62.538C8.14 128.814-5.455 93.04 4.26 59.496c3-1.974 9.63-4.857 19.444-4.857 5.4 0 10.87.62 16.334 1.74 0 .001 17.334 3.82 33.23 12.583z"/><path d="M26.122 54.685l-2.418-.045c-9.814 0-16.445 2.883-19.444 4.857-9.63 33.254 3.672 69.188 33.47 87.97 3.763-.523 8.016-2.494 12.5-5.62-25.95-21.183-35.355-56.122-24.118-87.163zm-253.204 17.073c.233-.004.92-.094 1-.887-.188-9.036-5.773-15.096-14.838-15.096-1.63 0-3.182.22-4.64.628 6.37 1.802 10.1 7.36 10.1 14.933v.422h8.37zm164.655 7.25c.01-.01.005-.017.016-.027.373-.346.207-.682.086-.843l-.052-.063-.034-.036.003-.002c-8.1-9.903-15.856-21.84-18.943-31.927-.47-1.544.356-2.458 1.5-2.458h-9.388c-1.144 0-1.97.914-1.5 2.458 3.143 10.27 11.115 22.462 19.383 32.468-10.533 9.5-17.9 22.114-21.596 32.257-.546 1.5.305 2.466 1.132 2.466h9.388c-.827 0-1.678-.976-1.132-2.466 3.643-9.992 10.853-22.387 21.137-31.827z"/></g></g></svg>