<?xml version="1.0"?>
<svg xmlns="http://www.w3.org/2000/svg" xmlns:xlink="http://www.w3.org/1999/xlink" version="1.1" id="Capa_1" x="0px" y="0px" viewBox="0 0 490.164 490.164" style="enable-background:new 0 0 490.164 490.164;" xml:space="preserve" width="512px" height="512px" class=""><g><path d="M50.73,364.375h180.042l153.304,125.79v-125.79h55.358c27.933,0,50.648-23.118,50.648-51.545V51.545  C490.082,23.118,467.368,0,439.434,0H50.73C22.797,0,0.082,23.118,0.082,51.545v261.284C0.082,341.256,22.797,364.375,50.73,364.375  z M364.038,194.232c-19.709-6.639-27.32-17.361-27.126-28.681c0-17.75,15.223-31.208,38.82-31.208  c11.126,0,21.07,2.527,26.932,5.458l-5.264,20.486c-4.292-2.348-12.486-5.473-20.681-5.473c-7.223,0-11.32,2.931-11.32,7.806  c0,4.486,3.708,6.834,15.417,10.931c18.139,6.236,25.75,15.417,25.945,29.459c0,17.75-14.041,30.819-41.362,30.819  c-12.486,0-23.612-2.722-30.819-6.624l5.264-21.264c5.458,3.32,16.778,7.223,25.556,7.223c8.972,0,12.681-3.125,12.681-8  C378.08,200.274,375.149,197.941,364.038,194.232z M196.483,136.482l1.361,12.875h0.583c4.097-6.041,12.486-15.013,28.875-15.013  c12.292,0,22.042,6.236,26.139,16.18h0.389c3.514-4.875,7.806-8.778,12.292-11.499c5.279-3.125,11.125-4.68,18.154-4.68  c18.333,0,32.195,12.875,32.195,41.347v56.196h-28.875v-51.889c0-13.862-4.501-21.862-14.056-21.862  c-6.819,0-11.709,4.68-13.653,10.348c-0.778,2.138-1.166,5.264-1.166,7.611v55.792h-28.875v-53.459  c0-12.098-4.292-20.292-13.668-20.292c-7.597,0-12.098,5.862-13.847,10.737c-0.972,2.333-1.166,5.069-1.166,7.417v55.598h-28.875  v-64.973c0-11.888-0.389-22.042-0.778-30.431H196.483z M111.636,194.232c-19.709-6.639-27.32-17.361-27.126-28.681  c0-17.75,15.223-31.208,38.82-31.208c11.126,0,21.085,2.527,26.931,5.458l-5.264,20.486c-4.292-2.348-12.486-5.473-20.681-5.473  c-7.223,0-11.32,2.931-11.32,7.806c0,4.486,3.708,6.834,15.417,10.931c18.139,6.236,25.75,15.417,25.945,29.459  c0,17.75-14.041,30.819-41.362,30.819c-12.486,0-23.612-2.722-30.819-6.624l5.264-21.264c5.458,3.32,16.778,7.223,25.556,7.223  c8.972,0,12.681-3.125,12.681-8C125.678,200.274,122.747,197.941,111.636,194.232z" data-original="#000000" class="active-path" data-old_color="#083d77" fill="#083d77"/></g> </svg>
