<svg width="24" height="24" xmlns="http://www.w3.org/2000/svg">
 <!-- Created with Method Draw - http://github.com/duopixel/Method-Draw/ -->

 <g>
  <title>background</title>
  <rect fill="none" id="canvas_background" height="26" width="26" y="-1" x="-1"/>
  <g display="none" overflow="visible" y="0" x="0" height="100%" width="100%" id="canvasGrid">
   <rect fill="url(#gridpattern)" stroke-width="0" y="0" x="0" height="100%" width="100%"/>
  </g>
 </g>
 <g>
  <title>Layer 1</title>
  <!-- Created with Method Draw - http://github.com/duopixel/Method-Draw/ -->
  <!-- Created with Method Draw - http://github.com/duopixel/Method-Draw/ -->
  <!-- Created with Method Draw - http://github.com/duopixel/Method-Draw/ -->
  <!-- Created with Method Draw - http://github.com/duopixel/Method-Draw/ -->
  <!-- Created with Method Draw - http://github.com/duopixel/Method-Draw/ -->
  <!-- Created with Method Draw - http://github.com/duopixel/Method-Draw/ -->
  <!-- Created with Method Draw - http://github.com/duopixel/Method-Draw/ -->
  <!-- Created with Method Draw - http://github.com/duopixel/Method-Draw/ -->
  <!-- Created with Method Draw - http://github.com/duopixel/Method-Draw/ -->
  <!-- Created with Method Draw - http://github.com/duopixel/Method-Draw/ -->
  <g stroke="null" transform="matrix(1.0144229496304091,0,0,0.9813199088663815,-0.27618910856571377,-1.1264838634399688) " id="svg_241">
   <title stroke="null" transform="translate(-0.16326214373111725,0) translate(-0.16326214373111725,0) translate(0.16326214373111725,0) translate(0.16326214373111725,0) translate(0.16326214373111725,0) translate(0.16326214373111725,0) translate(0,-0.16983594000339508) translate(0,-0.16983594000339508) translate(-0.16326214373111725,0.33967188000679016) translate(-0.000002622603687996161,0) translate(0,1.6871496438980103) ">background</title>
   <rect stroke="null" x="-0.83674" y="0.68715" width="26" height="26" id="svg_239" fill="none"/>
   <g stroke="null" id="svg_238" display="none">
    <rect stroke="null" id="svg_242" width="24" height="24" x="0.16326" y="1.68715" stroke-width="0" fill="url(#gridpattern)"/>
   </g>
  </g>
  <g stroke="null" transform="matrix(1.0149873551105868,0,0,0.9947917690375434,-57.531740292651925,-66.84258758272873) " id="svg_234">
   <title stroke="null" fill="#98a0a9" transform="translate(-0.16317136585712433,-1.4210854715202004e-14) translate(-0.16317136585712433,-1.4210854715202004e-14) translate(0.16317136585712433,-1.4210854715202004e-14) translate(0.16317136585712433,-1.4210854715202004e-14) translate(0.16317136585712433,-1.4210854715202004e-14) translate(0.16317136585712433,-1.4210854715202004e-14) translate(0,-0.1675359606742859) translate(0,-0.1675359606742859) translate(-0.16317136585712433,0.3350719213485718) translate(0.17067667841911316,0) translate(-0.17067667841911316,0) translate(0.17067667841911316,0) translate(0,-1.4210854715202004e-14) translate(0.16829055547714233,-1.4210854715202004e-14) translate(-0.16829055547714233,-1.4210854715202004e-14) translate(-0.16829055547714233,-1.4210854715202004e-14) translate(0.16829055547714233,-1.4210854715202004e-14) translate(0.16829055547714233,-1.4210854715202004e-14) translate(-0.16829055547714233,-1.4210854715202004e-14) translate(0,-0.12330688536167145) translate(0,0.12330688536167145) translate(0,-0.12330688536167145) translate(0,-0.12330688536167145) translate(0,0.12330688536167145) translate(0,-0.12330688536167145) translate(0.12318360060453415,0) translate(0.12318360060453415,0) translate(0,-0.12330688536167145) translate(0,0.12330688536167145) translate(0,0.12330688536167145) translate(0,0.12330688536167145) translate(0,0.12330688536167145) translate(0,0.12330688536167145) translate(0,-0.12330688536167145) translate(0,-0.12330688536167145) translate(0,-0.12330688536167145) translate(0,-0.12330688536167145) translate(0,-0.12330688536167145) translate(0,-0.12330688536167145) translate(-7.514199733734131,0.4932275414466858) translate(0.12318360060453415,0) translate(0.12318360060453415,0) translate(0.12318360060453415,0) translate(0.12318360060453415,0) translate(0.12318360060453415,0) translate(0.12318360060453415,0) translate(0.12318360060453415,0) translate(0.12318360060453415,0) translate(0.12318360060453415,0) translate(0.12318360060453415,0) translate(0.12318360060453415,0) translate(0.12318360060453415,0) translate(0.12318360060453415,0) translate(0.12318360060453415,0) translate(0.12318360060453415,0) translate(0.12318360060453415,0) translate(0.12318360060453415,0) translate(0.12318360060453415,0) translate(0.12318360060453415,0) translate(0.12318360060453415,0) translate(0.12318360060453415,0) translate(0.12318360060453415,0) translate(0.12318360060453415,0) translate(0.12318360060453415,0) translate(0.12318360060453415,0) translate(0.12318360060453415,0) translate(0.12318360060453415,0) translate(0.12318360060453415,0) translate(0.12318360060453415,0) translate(0.12318360060453415,0) translate(0.12318360060453415,0) translate(0.12318360060453415,0) translate(0.12318360060453415,0) translate(0.12318360060453415,0) translate(0.12318360060453415,0) translate(0.12318360060453415,0) translate(0.12318360060453415,0) translate(0.12318360060453415,0) translate(0.12318360060453415,0) translate(0.12318360060453415,0) translate(0.12318360060453415,0) translate(0.12318360060453415,0) translate(0.12318360060453415,0) translate(0.12318360060453415,0) translate(0.12318360060453415,0) translate(0.12318360060453415,0) translate(0.12318360060453415,0) translate(0.12318360060453415,0) translate(0.12318360060453415,0) translate(0.12318360060453415,0) translate(0.12318360060453415,0) translate(0.12318360060453415,0) translate(0.12318360060453415,0) translate(0.12318360060453415,0) translate(0.12318360060453415,0) translate(0.12318360060453415,0) translate(0.12318360060453415,0) translate(0.12318360060453415,0) translate(0.12318360060453415,0) translate(0.12318360060453415,0) translate(0.12318360060453415,0) translate(0.12318360060453415,0) translate(-0.2463672012090683,-0.12330688536167145) translate(0,-0.12330688536167145) translate(-0.12318310141563416,0) translate(0,0.12330637872219086) translate(0,-0.12330637872219086) translate(0.12318310141563416,0) translate(-0.12318310141563416,0) translate(0.12318310141563416,0) translate(0.12318310141563416,0) translate(0,0.12330637872219086) translate(0,0.12330637872219086) translate(0,0.12330637872219086) translate(0,-0.12330637872219086) translate(0,-0.12330637872219086) translate(0,-0.12330637872219086) translate(0,-0.12330637872219086) translate(0,-0.12330637872219086) translate(-0.2463662028312683,0.2466127574443817) translate(0,-0.12936173379421234) translate(0,-0.12936173379421234) translate(0,0.12936173379421234) translate(-0.1262170970439911,0) translate(-0.37865129113197327,-0.7761704325675964) translate(0.5048683881759644,1.0348938703536987) translate(0,0.12936119735240936) translate(0,-0.12936119735240936) translate(0,-0.12936119735240936) translate(0,-0.12936119735240936) translate(0,-0.12936119735240936) translate(0,-0.12936119735240936) translate(0,-0.12936119735240936) translate(0,-0.12936119735240936) translate(0,0.12936119735240936) translate(-0.1262165606021881,0) translate(0,0.12936119735240936) translate(0.1262165606021881,0) translate(-0.1262165606021881,0) translate(-0.1262165606021881,0) translate(-4.0389299392700195,0) translate(4.291362762451172,0.3880835175514221) translate(-0.0000025845008622127352,0) translate(0,1.6643016338348389) ">Layer 1</title>
   <g stroke="null" id="svg_235">
    <g stroke="null" id="svg_236" transform="matrix(0.1504510618562539,0,0,0.12368449481173735,-0.7301059794070396,-0.6921321808765448) ">
     <path stroke="null" d="m427.054272,561.211534l0,-9.746c0,-1.761 1.433,-3.193 3.193,-3.193l60.053,0c1.761,0 3.193,1.433 3.193,3.193l0,9.746c0,1.761 -1.433,3.193 -3.193,3.193l-60.052,0c-1.761,0.001 -3.194,-1.432 -3.194,-3.193zm51.644,-27.939c-0.768,-9.5 -8.729,-17 -18.424,-17s-17.656,7.5 -18.424,17l36.848,0zm60.468,38.334l0,151.333c0,11.12 -9.047,20.167 -20.167,20.167l-117.45,0c-11.12,0 -20.167,-9.047 -20.167,-20.167l0,-151.333c0,-11.12 9.047,-20.167 20.167,-20.167l10.506,0c0,0.009 -0.001,0.018 -0.001,0.026l0,9.746c0,10.032 8.162,18.193 18.193,18.193l60.053,0c10.032,0 18.193,-8.161 18.193,-18.193l0,-9.746c0,-0.009 -0.001,-0.018 -0.001,-0.026l10.506,0c11.121,0 20.168,9.047 20.168,20.167zm-104.126,88.115c-3.526,-2.173 -8.147,-1.077 -10.32,2.449l-7.092,11.504l-3.661,-2.884c-3.252,-2.563 -7.97,-2.002 -10.532,1.252c-2.563,3.255 -2.002,7.97 1.252,10.533l10.271,8.089c1.332,1.049 2.969,1.607 4.64,1.607c0.436,0 0.875,-0.038 1.311,-0.115c2.105,-0.374 3.952,-1.629 5.074,-3.449l11.506,-18.666c2.174,-3.526 1.077,-8.146 -2.449,-10.32zm0,-54c-3.526,-2.174 -8.147,-1.076 -10.32,2.449l-7.092,11.504l-3.661,-2.884c-3.252,-2.562 -7.97,-2.002 -10.532,1.252c-2.563,3.255 -2.002,7.97 1.252,10.533l10.271,8.089c1.332,1.049 2.969,1.607 4.64,1.607c0.436,0 0.875,-0.038 1.311,-0.115c2.105,-0.374 3.952,-1.629 5.074,-3.449l11.506,-18.665c2.174,-3.527 1.077,-8.147 -2.449,-10.321zm77.675,79.051c0,-4.143 -3.357,-7.5 -7.5,-7.5l-49,0c-4.142,0 -7.5,3.357 -7.5,7.5s3.358,7.5 7.5,7.5l49,0c4.143,0 7.5,-3.357 7.5,-7.5zm0,-54c0,-4.143 -3.357,-7.5 -7.5,-7.5l-49,0c-4.142,0 -7.5,3.357 -7.5,7.5s3.358,7.5 7.5,7.5l49,0c4.143,0 7.5,-3.357 7.5,-7.5z" class="active-path" fill="#98a0a9" id="svg_237"/>
    </g>
   </g>
  </g>
  <rect stroke="null" transform="matrix(0.6161612446266818,0,0,0.5892427551827285,-34.51068577073603,-35.332622647785676) " id="svg_232" height="29.785808" width="30.286414" y="68.100075" x="58.987317" stroke-width="1.5" fill="#98a0a9"/>
  <!-- Created with Method Draw - http://github.com/duopixel/Method-Draw/ -->
  <rect stroke="null" transform="matrix(0.6161612446266818,0,0,0.5892427551827285,-34.51068577073603,-35.332622647785676) " id="svg_231" height="3.504213" width="33.540323" y="75.778984" x="58.748149" stroke-opacity="null" stroke-width="1.5" fill="#ffffff"/>
  <rect stroke="null" transform="matrix(0.6161612446266818,0,0,0.5892427551827285,-34.51068577073603,-35.332622647785676) " id="svg_230" height="3.754514" width="33.540323" y="88.008767" x="58.748149" stroke-opacity="null" stroke-width="1.5" fill="#ffffff"/>
  <!-- Created with Method Draw - http://github.com/duopixel/Method-Draw/ -->
  <!-- Created with Method Draw - http://github.com/duopixel/Method-Draw/ -->
 </g>
</svg>