<?xml version="1.0"?>
<svg xmlns="http://www.w3.org/2000/svg" xmlns:xlink="http://www.w3.org/1999/xlink" version="1.1" id="Layer_1" x="0px" y="0px" viewBox="0 0 490.438 490.438" style="enable-background:new 0 0 490.438 490.438;" xml:space="preserve" width="512px" height="512px"><g><g>
	<g>
		<path d="M408.619,403.738v-33.7c0-12.3-10-22.3-22.3-22.3h-128.9v-35h-25.3v35h-128.2c-12.3-0.2-22.4,9.8-22.4,22.1v33.8    c-18.5,5.3-32,22.3-32,42.5c0,24.4,19.8,44.2,44.2,44.2c24.4,0,44.2-19.8,44.2-44.2c0-19.8-13.1-36.6-31-42.2v-31h125.2v31    c-18.1,5.6-31.2,22.4-31.2,42.2c0,24.4,19.8,44.2,44.2,44.2c24.4,0,44.1-19.8,44.1-44.2c0-20.1-13.5-37.1-31.9-42.4v-30.8h125.9    v31.2c-17.8,5.7-30.7,22.4-30.7,42.1c0,24.4,19.8,44.2,44.2,44.2s44.2-19.8,44.2-44.2    C440.919,425.938,427.219,408.938,408.619,403.738z" data-original="#000000" class="active-path" data-old_color="#000000" fill="#9B9FA8"/>
	</g>
</g><g>
	<g>
		<path d="M372.819,226.038c-35.1-28.8-72.9-48-80.6-51.7c-0.9-0.4-1.4-1.3-1.4-2.3v-26.7c4.1-7.1,6.8-14.6,7.8-21.4    c3-0.2,6.9-4.4,11.2-19.4c5.4-19.2,0.4-23.1-4.6-23.1c0.5-1.6,0.9-3.3,1.2-4.9c8.8-53-17.3-54.9-17.3-54.9s-4.3-8.3-15.7-14.6    c-7.6-4.5-18.3-8-32.3-6.8c-4.5,0.2-8.8,1.1-12.9,2.5c-5.2,1.7-9.9,4.3-14.2,7.3c-5.2,3.3-10.2,7.4-14.6,12    c-6.9,7.1-13.1,16.2-15.8,27.6c-2.2,8.5-1.7,17.4,0.1,27c0.3,1.6,0.7,3.3,1.2,4.9c-4.9,0.1-9.7,4.1-4.4,23.1    c4.2,15,8.2,19.2,11.2,19.4c1.1,6.8,3.7,14.3,7.8,21.4v26.7c0.1,0.9-0.5,1.7-1.3,2.2c-7.7,3.7-45.3,22.8-80.3,51.5    c-6.4,5.2-10.1,13-10.1,21.3v24.8c0,7.7,6.2,13.9,13.9,13.9h107.8l9.6-43.9c-23.2-32.4,1.7-33.9,6.1-34c4.3,0,29.3,1.6,6.1,34    l9.6,43.9h107.8c7.7,0,13.9-6.2,13.9-13.9v-24.8C382.619,239.038,379.019,231.238,372.819,226.038z" data-original="#000000" class="active-path" data-old_color="#000000" fill="#9B9FA8"/>
	</g>
</g></g> </svg>
