<svg width="24" height="24" xmlns="http://www.w3.org/2000/svg">
 <!-- Created with Method Draw - http://github.com/duopixel/Method-Draw/ -->

 <g>
  <title>background</title>
  <rect fill="none" id="canvas_background" height="26" width="26" y="-1" x="-1"/>
  <g display="none" overflow="visible" y="0" x="0" height="100%" width="100%" id="canvasGrid">
   <rect fill="url(#gridpattern)" stroke-width="0" y="0" x="0" height="100%" width="100%"/>
  </g>
 </g>
 <g>
  <title>Layer 1</title>
  <!-- Created with Method Draw - http://github.com/duopixel/Method-Draw/ -->
  <!-- Created with Method Draw - http://github.com/duopixel/Method-Draw/ -->
  <!-- Created with Method Draw - http://github.com/duopixel/Method-Draw/ -->
  <!-- Created with Method Draw - http://github.com/duopixel/Method-Draw/ -->
  <!-- Created with Method Draw - http://github.com/duopixel/Method-Draw/ -->
  <!-- Created with Method Draw - http://github.com/duopixel/Method-Draw/ -->
  <g id="svg_138">
   <g transform="matrix(0.9996707710446487,0,0,0.9996707710446487,0,0) " id="svg_137">
    <title transform="translate(0.003953089471906424,0) translate(0,0.003953089471906424) ">Layer 1</title>
    <g id="svg_124" stroke="null">
     <g id="svg_125" transform="matrix(0.04646047858774747,0,0,0.04904939176601507,-0.17898111608046818,-0.1436068863109483) " stroke="null">
      <g id="svg_129" stroke="null">
       <g id="svg_130" stroke="null">
        <path d="m511.098127,220.544014l-229.718,-209.318c-10.083,-9.189 -25.288,-9.188 -35.367,-0.001l-229.719,209.32c-8.077,7.36 -10.745,18.7 -6.799,28.889c3.947,10.189 13.557,16.772 24.484,16.772l36.69,0l0,209.721c0,8.315 6.742,15.057 15.057,15.057l125.914,0c8.315,0 15.057,-6.741 15.057,-15.057l0,-127.336l74.002,0l0,127.337c0,8.315 6.742,15.057 15.057,15.057l125.908,0c8.315,0 15.057,-6.741 15.057,-15.057l0,-209.722l36.697,0c10.926,0 20.537,-6.584 24.484,-16.772c3.941,-10.19 1.273,-21.529 -6.804,-28.89z" class="active-path" fill="#98a0a9" id="svg_131" stroke="null"/>
       </g>
      </g>
      <g id="svg_126" stroke="null">
       <g id="svg_127" stroke="null">
        <path d="m452.788127,34.389014l-101.119,0l116.176,105.636l0,-90.58c0,-8.315 -6.741,-15.056 -15.057,-15.056z" class="active-path" fill="#98a0a9" id="svg_128" stroke="null"/>
       </g>
      </g>
     </g>
    </g>
   </g>
  </g>
 </g>
</svg>