<svg width="24.000000000000004" height="24.000000000000004" xmlns="http://www.w3.org/2000/svg">
 <!-- Created with Method Draw - http://github.com/duopixel/Method-Draw/ -->

 <g>
  <title>background</title>
  <rect fill="none" id="canvas_background" height="26" width="26" y="-1" x="-1"/>
  <g display="none" overflow="visible" y="0" x="0" height="100%" width="100%" id="canvasGrid">
   <rect fill="url(#gridpattern)" stroke-width="0" y="0" x="0" height="100%" width="100%"/>
  </g>
 </g>
 <g>
  <title>Layer 1</title>
  <!-- Created with Method Draw - http://github.com/duopixel/Method-Draw/ -->
  <!-- Created with Method Draw - http://github.com/duopixel/Method-Draw/ -->
  <!-- Created with Method Draw - http://github.com/duopixel/Method-Draw/ -->
  <!-- Created with Method Draw - http://github.com/duopixel/Method-Draw/ -->
  <!-- Created with Method Draw - http://github.com/duopixel/Method-Draw/ -->
  <!-- Created with Method Draw - http://github.com/duopixel/Method-Draw/ -->
  <!-- Created with Method Draw - http://github.com/duopixel/Method-Draw/ -->
  <!-- Created with Method Draw - http://github.com/duopixel/Method-Draw/ -->
  <!-- Created with Method Draw - http://github.com/duopixel/Method-Draw/ -->
  <!-- Created with Method Draw - http://github.com/duopixel/Method-Draw/ -->
  <!-- Created with Method Draw - http://github.com/duopixel/Method-Draw/ -->
  <!-- Created with Method Draw - http://github.com/duopixel/Method-Draw/ -->
  <!-- Created with Method Draw - http://github.com/duopixel/Method-Draw/ -->
  <!-- Created with Method Draw - http://github.com/duopixel/Method-Draw/ -->
  <!-- Created with Method Draw - http://github.com/duopixel/Method-Draw/ -->
  <!-- Created with Method Draw - http://github.com/duopixel/Method-Draw/ -->
  <g stroke="null" transform="matrix(0.9999244227384594,0,0,0.9999244227384594,0,0) " id="svg_312">
   <title stroke="null" transform="translate(0.0009077281574718654,0) translate(0,0.0009077281574718654) ">Layer 1</title>
   <g stroke="null" id="svg_301">
    <g stroke="null" id="svg_302" transform="matrix(0.05805766821973082,0,0,0.05357283433558825,2.21757014742704,3.038846958187655) ">
     <g stroke="null" id="svg_303">
      <g stroke="null" id="svg_304">
       <path stroke="null" d="m167.920936,167.92674c30.271,0 56.108,-10.71 77.518,-32.121c21.412,-21.411 32.12,-47.248 32.12,-77.515c0,-30.262 -10.708,-56.1 -32.12,-77.516c-21.417,-21.41 -47.255,-32.115 -77.518,-32.115s-56.105,10.705 -77.515,32.115c-21.414,21.416 -32.121,47.253 -32.121,77.516c0,30.267 10.707,56.104 32.121,77.515c21.416,21.411 47.251,32.121 77.515,32.121z" class="active-path" fill="#9b9fa8" id="svg_306"/>
       <path stroke="null" d="m367.913936,283.69574c-0.668,-9.609 -2.002,-19.985 -3.997,-31.121c-1.999,-11.136 -4.524,-21.457 -7.57,-30.978c-3.046,-9.514 -7.139,-18.794 -12.278,-27.836c-5.137,-9.041 -11.037,-16.748 -17.703,-23.127c-6.666,-6.377 -14.801,-11.465 -24.406,-15.271c-9.617,-3.805 -20.229,-5.711 -31.84,-5.711c-1.711,0 -5.709,2.046 -11.991,6.139c-6.276,4.093 -13.367,8.662 -21.266,13.708c-7.898,5.037 -18.182,9.609 -30.834,13.695c-12.658,4.093 -25.361,6.14 -38.118,6.14c-12.752,0 -25.456,-2.047 -38.112,-6.14c-12.655,-4.086 -22.936,-8.658 -30.835,-13.695c-7.898,-5.046 -14.987,-9.614 -21.267,-13.708c-6.283,-4.093 -10.278,-6.139 -11.991,-6.139c-11.61,0 -22.222,1.906 -31.833,5.711c-9.613,3.806 -17.749,8.898 -24.412,15.271c-6.661,6.379 -12.562,14.086 -17.699,23.127c-5.137,9.042 -9.229,18.326 -12.275,27.836c-3.045,9.521 -5.568,19.842 -7.566,30.978c-2,11.136 -3.332,21.505 -3.999,31.121c-0.666,9.616 -0.998,19.466 -0.998,29.554c0,22.836 6.949,40.875 20.842,54.104c13.896,13.224 32.36,19.835 55.39,19.835l249.533,0c23.028,0 41.49,-6.611 55.388,-19.835c13.901,-13.229 20.845,-31.265 20.845,-54.104c-0.002,-10.088 -0.334,-19.938 -1.008,-29.554z" class="active-path" fill="#9b9fa8" id="svg_305"/>
      </g>
     </g>
    </g>
   </g>
  </g>
 </g>
</svg>