<svg xmlns="http://www.w3.org/2000/svg" xmlns:xlink="http://www.w3.org/1999/xlink" viewBox="0 0 360 68"><defs><path d="M351.999 0a8 8 0 018 8v2.462c-1.739 0-3.149 1.756-3.149 3.923 0 2.166 1.41 3.923 3.149 3.923v5.23c-1.739 0-3.149 1.757-3.149 3.924 0 2.166 1.41 3.923 3.149 3.923v5.23c-1.739 0-3.149 1.757-3.149 3.923 0 2.167 1.41 3.924 3.149 3.924v5.23c-1.739 0-3.149 1.757-3.149 3.923 0 2.167 1.41 3.923 3.149 3.923V60a8 8 0 01-8 8H8a8 8 0 01-8-8v-2.462c1.739 0 3.149-1.756 3.149-3.923 0-2.166-1.41-3.923-3.149-3.923v-5.23c1.739 0 3.149-1.757 3.149-3.924 0-2.166-1.41-3.923-3.149-3.923v-5.23c1.739 0 3.149-1.757 3.149-3.923 0-2.167-1.41-3.924-3.149-3.924v-5.23c1.739 0 3.149-1.757 3.149-3.923 0-2.167-1.41-3.923-3.149-3.923V8a8 8 0 018-8h343.999z" id="a"/></defs><g fill="none" fill-rule="evenodd"><mask id="b" fill="#fff"><use xlink:href="#a"/></mask><use fill="#FFF" fill-rule="nonzero" xlink:href="#a"/><g mask="url(#b)"><path d="M448.478 93.144c-50.508 26.143-112.94 10.956-139.448-33.92-26.507-44.877-7.05-102.45 43.457-128.593 50.508-26.143 112.94-10.956 139.448 33.92 26.507 44.878 7.05 102.45-43.457 128.593z" fill="#DAF3FF" opacity=".343"/><path d="M203.027 154.803c84.793-192.329 106.082-37.155 186.19-266.847L355.85 111.425l-152.824 43.378z" fill="#A7E3FF" opacity=".263"/></g></g></svg>