<?xml version="1.0"?>
<svg xmlns="http://www.w3.org/2000/svg" id="Layer_1_1_" enable-background="new 0 0 64 64" height="512px" viewBox="0 0 64 64" width="512px"><g><path d="m59 54.141v-9.141h-5v-6h-12v-11h-7l-10.506-6.304c.237-3.338-1.585-6.518-4.583-8.012 2.376-.799 4.089-3.039 4.089-5.684 0-.369-.038-.728-.102-1.078l2.357-.506c1.08-.232 1.767-1.295 1.535-2.375l-4.584.985c-1.095-1.913-3.208-3.168-5.604-3.013-2.913.188-5.341 2.568-5.581 5.477-.245 2.97 1.676 5.528 4.353 6.281-2.503 1.56-3.942 4.468-3.538 7.498l1.164 8.731-1 12-6 19v1h7l-1-3h-.333l2.685-8.054.648 11.054h7l-1-3h-1.871l1.871-29 1.485-4.419 11.515 5.419h5v24.38c-.615.703-1 1.613-1 2.62 0 2.209 1.791 4 4 4s4-1.791 4-4c0-.732-.211-1.41-.555-2h8.109c-.343.59-.554 1.268-.554 2 0 2.209 1.791 4 4 4s4-1.791 4-4c0-1.862-1.278-3.413-3-3.859zm-16 4.859c-.552 0-1-.448-1-1s.448-1 1-1 1 .448 1 1-.448 1-1 1zm5-16h-4v-2h4zm10 16c-.552 0-1-.448-1-1s.448-1 1-1 1 .448 1 1-.448 1-1 1z" data-original="#000000" class="active-path" data-old_color="#000000" fill="#3272D9"/></g> </svg>
