<svg width="80" height="80" xmlns="http://www.w3.org/2000/svg">
 <!-- Created with Method Draw - http://github.com/duopixel/Method-Draw/ -->

 <g>
  <title>background</title>
  <rect fill="none" id="canvas_background" height="82" width="82" y="-1" x="-1"/>
  <g display="none" overflow="visible" y="0" x="0" height="100%" width="100%" id="canvasGrid">
   <rect fill="url(#gridpattern)" stroke-width="0" y="0" x="0" height="100%" width="100%"/>
  </g>
 </g>
 <g>
  <title>Layer 1</title>
  <g stroke="null" id="svg_105">
   <g stroke="null" transform="matrix(0.15495461998209722,0,0,0.15539813693733812,4.200635576843652,4.603567649755558) " id="svg_75">
    <g stroke="null" id="svg_76">
     <g stroke="null" id="svg_77">
      <path stroke="null" id="svg_78" fill="#7acaa6" d="m-21.797138,54.287299c0,-44.939 36.754,-81.294 81.842,-80.645c43.675,0.628 79.188,36.446 79.464,80.124c0.155,24.461 -10.583,46.414 -27.645,61.305c-1.801,1.571 -1.541,4.439 0.516,5.656l15.197,8.992c2.457,1.454 1.426,5.22 -1.429,5.22l-68.818,-0.017c-43.839,-0.815 -79.127,-36.602 -79.127,-80.635z"/>
     </g>
    </g>
    <path stroke="null" id="svg_79" fill="#57be92" d="m127.576862,129.719299l-15.198,-8.992c-2.046,-1.21 -2.33,-4.074 -0.539,-5.636c17.257,-15.049 28.051,-37.322 27.66,-62.108c-0.677,-42.873 -35.377,-78.066 -78.238,-79.315c-6.078,-0.177 -12.01,0.32 -17.727,1.419c37.047,7.102 65.281,39.757 65.527,78.678c0.119,18.849 -6.23,36.209 -16.956,49.996c-6.477,8.325 -4.372,20.397 4.706,25.769l0.318,0.188c2.43,1.438 1.444,5.132 -1.339,5.212l30.356,0.007c2.855,0.002 3.887,-3.765 1.43,-5.218z"/>
    <g stroke="null" id="svg_80">
     <g stroke="null" id="svg_81">
      <path stroke="null" id="svg_82" fill="#c59191" d="m371.188862,266.388299l-182.966,0c-45.698,0 -70.706,-53.256 -41.519,-88.42l1.623,-1.956c12.858,-15.491 19.896,-34.99 19.896,-55.122l0,-35.283c0.001,-61.842 50.133,-111.974 111.975,-111.974c61.842,0 111.974,50.132 111.974,111.974l0,36.474c0,20.343 7.186,40.032 20.29,55.593c29.551,35.092 4.605,88.714 -41.273,88.714z"/>
      <path stroke="null" id="svg_83" fill="#fff" d="m467.366862,357.063299l0,120.96l-375.32,0l0,-120.05c0,-27.18 16.29,-51.71 41.33,-62.25l60.59,-26.34l20.4,-8.87c15.48,-6.73 25.49,-22 25.49,-38.88l0,-7.83l79.69,0l0,7.43c0,16.95 10.11,32.28 25.7,38.96l81.95,35.13c24.42,10.82 40.17,35.02 40.17,61.74z"/>
      <path stroke="null" id="svg_84" fill="#ffcebf" d="m193.961862,298.223299c20.679,6.179 51.116,12.769 88.217,12.12c34.811,-0.608 63.387,-7.377 83.271,-13.728l9.88,-23.527l-30.086,-12.895c-15.586,-6.681 -25.692,-22.006 -25.692,-38.964l0,-7.424l-79.69,0l0,7.828c0,16.878 -10.012,32.147 -25.489,38.877l-24.368,10.595l3.957,27.118z"/>
      <g stroke="null" id="svg_85" fill="#8795de">
       <path stroke="null" id="svg_86" d="m427.192862,295.318299l-61.732,-26.459l-0.011,0.001l0,209.161l101.918,0l0,-120.957c0,-26.717 -15.749,-50.922 -40.175,-61.746z"/>
       <path stroke="null" id="svg_87" d="m193.966862,269.383299l0,208.64l-101.92,0l0,-120.05c0,-27.18 16.29,-51.71 41.33,-62.25l60.59,-26.34z"/>
      </g>
     </g>
     <g stroke="null" id="svg_88">
      <path stroke="null" id="svg_89" fill="#ffb09e" d="m307.329862,257.545299c9.168,0 17.904,-1.841 25.867,-5.163c-8.542,-7.885 -13.646,-19.105 -13.646,-31.152l0,-7.424l-79.69,0l0,7.827c0,6.097 -1.313,11.982 -3.712,17.332c12.067,11.503 28.392,18.579 46.379,18.579l24.802,0l0,0.001z"/>
      <path stroke="null" id="svg_90" fill="#ffcebf" d="m359.353862,93.926299l0,65.925c0,37.14 -30.108,67.247 -67.247,67.247l-24.801,0c-37.14,0 -67.247,-30.108 -67.247,-67.247l0,-65.925c0,-24.161 19.586,-43.748 43.748,-43.748l71.8,0c24.161,0.001 43.747,19.587 43.747,43.748z"/>
      <path stroke="null" id="svg_91" fill="#7a6d79" d="m359.353862,128.226299c-0.03,0.091 -0.067,0.179 -0.094,0.272c-2.431,8.395 -8.811,24.253 -24.229,36.142c-7.179,5.537 -15.368,9.537 -24.338,11.891c-4.066,1.067 -6.498,5.228 -5.431,9.294c0.898,3.419 3.981,5.682 7.358,5.682c0.639,0 1.289,-0.081 1.937,-0.251c10.952,-2.874 20.968,-7.773 29.771,-14.56c6.079,-4.688 10.999,-9.866 14.982,-15.072c0.015,-0.59 0.045,-1.177 0.045,-1.771l0,-31.627l-0.001,0z"/>
      <path stroke="null" id="svg_92" fill="#685e68" d="m302.345862,197.572299l-17.837,0c-8.119,0 -14.701,-6.582 -14.701,-14.701c0,-8.119 6.582,-14.701 14.701,-14.701l17.837,0c8.119,0 14.701,6.582 14.701,14.701c-0.001,8.12 -6.582,14.701 -14.701,14.701z"/>
      <g stroke="null" id="svg_93">
       <path stroke="null" id="svg_94" fill="#b98080" d="m295.597862,32.730299c1.708,-21.54 22.33,-35.835 42.067,-43.239c32.649,19.563 54.507,55.284 54.507,96.115l0,7.698c-1.805,0.379 -3.601,0.711 -5.377,0.976c-10.873,1.624 -20.132,0.921 -26.458,0c-40.763,-5.43 -66.802,-35.535 -64.739,-61.55z"/>
       <path stroke="null" id="svg_95" fill="#c59191" d="m280.197862,-26.366701c25.288,0 48.616,8.386 67.361,22.525c-9.351,16.271 -30.823,48.441 -71.086,72.257c-29.89,17.681 -58.074,23.622 -75.43,25.865l-32.818,0l0,-8.674c-0.001,-61.841 50.131,-111.973 111.973,-111.973z"/>
      </g>
     </g>
    </g>
    <path stroke="null" id="svg_96" fill="#efedef" d="m405.367862,478.021299l-243.654,0l-13.439,-126.775c-0.953,-8.992 6.096,-16.828 15.138,-16.828l240.257,0c9.042,0 16.091,7.836 15.138,16.828l-13.44,126.775z"/>
    <path stroke="null" id="svg_97" fill="#e5e1e5" d="m403.668862,334.418299l-30.446,0c9.042,0 16.091,7.836 15.138,16.828l-13.439,126.776l30.446,0l13.439,-126.776c0.954,-8.992 -6.095,-16.828 -15.138,-16.828z"/>
    <g stroke="null" id="svg_98">
     <path stroke="null" id="svg_99" fill="#c9bfc8" d="m478.896862,485.633299l-497,0c-4.143,0 -7.5,-3.358 -7.5,-7.5s3.357,-7.5 7.5,-7.5l497,0c4.143,0 7.5,3.358 7.5,7.5s-3.357,7.5 -7.5,7.5z"/>
    </g>
    <circle stroke="null" id="svg_100" r="21.312" fill="#c9bfc8" cy="406.220299" cx="283.540862"/>
    <g stroke="null" id="svg_101" fill="#fff">
     <circle stroke="null" id="svg_102" r="7.611" cy="54.286299" cx="28.410862"/>
     <circle stroke="null" id="svg_103" r="7.611" cy="54.286299" cx="58.856862"/>
     <circle stroke="null" id="svg_104" r="7.611" cy="54.286299" cx="89.302862"/>
    </g>
   </g>
  </g>
 </g>
</svg>