<svg width="18" height="18" xmlns="http://www.w3.org/2000/svg">
 <!-- Created with Method Draw - http://github.com/duopixel/Method-Draw/ -->

 <g>
  <title>background</title>
  <rect fill="none" id="canvas_background" height="20" width="20" y="-1" x="-1"/>
  <g display="none" overflow="visible" y="0" x="0" height="100%" width="100%" id="canvasGrid">
   <rect fill="url(#gridpattern)" stroke-width="0" y="0" x="0" height="100%" width="100%"/>
  </g>
 </g>
 <g>
  <title>Layer 1</title>
  <g id="svg_20">
   <g transform="matrix(0.0351571999554432,0,0,0.0351571999554432,0,0) " id="svg_15">
    <g id="svg_16">
     <path id="svg_17" fill="#0770CD" class="active-path" d="m468.322083,358.965083c-7.263,-3.989 -16.382,-1.336 -20.369,5.924c-3.989,7.261 -1.337,16.381 5.924,20.369c17.868,9.816 28.116,20.698 28.116,29.856c0,11.201 -15.87,28.561 -60.413,43.694c-44.005,14.952 -102.812,23.185 -165.587,23.185s-121.582,-8.233 -165.587,-23.185c-44.543,-15.132 -60.413,-32.493 -60.413,-43.694c0,-9.158 10.248,-20.04 28.116,-29.857c7.261,-3.988 9.913,-13.108 5.924,-20.369c-3.989,-7.26 -13.106,-9.913 -20.369,-5.924c-19.922,10.945 -43.671,29.571 -43.671,56.15c0,20.374 14.012,49.422 80.762,72.1c47.032,15.979 109.266,24.779 175.238,24.779s128.206,-8.8 175.238,-24.779c66.75,-22.678 80.762,-51.726 80.762,-72.1c0,-26.579 -23.749,-45.205 -43.671,-56.149z"/>
     <path id="svg_18" fill="#0770CD" class="active-path" d="m142.745083,437.123083c30.45,8.602 70.669,13.34 113.248,13.34s82.798,-4.737 113.248,-13.34c37.253,-10.523 56.142,-25.757 56.142,-45.275c0,-19.519 -18.889,-34.751 -56.142,-45.274c-8.27,-2.336 -17.264,-4.385 -26.826,-6.133c-5.193,8.972 -10.634,18.207 -16.323,27.708c10.584,1.588 20.521,3.535 29.545,5.834c27.416,6.983 37.432,14.844 39.491,17.866c-2.06,3.023 -12.074,10.884 -39.49,17.866c-25.949,6.609 -59.335,10.379 -94.498,10.716c-1.703,0.126 -3.419,0.197 -5.147,0.197c-1.729,0 -3.444,-0.071 -5.148,-0.197c-35.163,-0.337 -68.549,-4.106 -94.498,-10.716c-27.416,-6.982 -37.431,-14.844 -39.49,-17.866c2.059,-3.022 12.075,-10.883 39.491,-17.866c9.024,-2.298 18.961,-4.246 29.546,-5.834c-5.689,-9.5 -11.13,-18.737 -16.323,-27.708c-9.562,1.749 -18.557,3.797 -26.826,6.133c-37.253,10.523 -56.142,25.756 -56.142,45.274c0,19.518 18.889,34.751 56.142,45.275z"/>
     <path id="svg_19" fill="#0770CD" class="active-path" d="m255.993083,390.627083c13.353,0 25.482,-6.804 32.448,-18.201c48.81,-79.857 106.992,-185.103 106.992,-232.994c0,-76.887 -62.552,-139.439 -139.44,-139.439s-139.44,62.552 -139.44,139.439c0,47.891 58.183,153.137 106.992,232.994c6.966,11.397 19.096,18.201 32.448,18.201zm-56.047,-260.769c0,-30.903 25.143,-56.045 56.047,-56.045s56.047,25.142 56.047,56.045c0,30.904 -25.143,56.046 -56.047,56.046s-56.047,-25.141 -56.047,-56.046z"/>
    </g>
   </g>
  </g>
 </g>
</svg>