<svg width="26" height="26" xmlns="http://www.w3.org/2000/svg">
 <!-- Created with Method Draw - http://github.com/duopixel/Method-Draw/ -->

 <g>
  <title>background</title>
  <rect fill="none" id="canvas_background" height="28" width="28" y="-1" x="-1"/>
  <g display="none" overflow="visible" y="0" x="0" height="100%" width="100%" id="canvasGrid">
   <rect fill="url(#gridpattern)" stroke-width="0" y="0" x="0" height="100%" width="100%"/>
  </g>
 </g>
 <g>
  <title>Layer 1</title>
  <g stroke="null" id="svg_74">
   <g stroke="null" transform="matrix(0.04930543739717995,0,0,0.053483009230972524,3.9992263006092172,8.132408861432733) " id="svg_68">
    <path stroke="null" id="svg_69" fill="#083D77" class="active-path" d="m60.917542,-66.71373c8.285156,0 15,-6.714844 15,-15l0,-48c0,-8.285156 -6.714844,-15 -15,-15s-15,6.714844 -15,15l0,48c0,8.285156 6.714844,15 15,15zm0,0"/>
    <path stroke="null" id="svg_70" fill="#083D77" class="active-path" d="m16.523011,-75.319199l-36,-36c-5.855469,-5.859375 -15.355469,-5.859375 -21.210938,0c-5.859375,5.855469 -5.859375,15.355469 0,21.210938l36,36c2.925781,2.929687 6.765625,4.394531 10.605469,4.394531c3.835938,0 7.675781,-1.464844 10.605469,-4.394531c5.859375,-5.855469 5.859375,-15.355469 0,-21.210938zm0,0"/>
    <path stroke="null" id="svg_71" fill="#083D77" class="active-path" d="m-11.082458,-24.71373l-48,0c-8.285156,0 -15,6.714844 -15,15s6.714844,15 15,15l48,0c8.285156,0 15,-6.714844 15,-15s-6.714844,-15 -15,-15zm0,0"/>
    <path stroke="null" id="svg_72" fill="#083D77" class="active-path" d="m151.81598,-59.045761c12.042968,-12.042969 28.050781,-18.671875 45.078124,-18.671875c17.027344,0 33.039063,6.628906 45.078126,18.671875l84.019531,84.019531c12.390625,-24.402344 37.738281,-41.164062 66.925781,-41.164062c5.136719,0 10.152344,0.523437 15,1.511718l0,-16.519531c0,-12.019531 -4.679688,-23.320313 -13.179688,-31.820313s-19.800781,-13.179687 -31.820312,-13.179687c-24.8125,0 -45,20.1875 -45,45l0,7.082031l-69.050781,-69.046875c-17.351563,-17.351562 -45.582031,-17.351562 -62.933594,0c-4.019531,4.019531 -7.097656,8.628907 -9.253906,13.550781c-17.167969,-9.738281 -39.414063,-7.308593 -54.03125,7.308594c-0.5,0.496094 -0.984375,1.007813 -1.453125,1.523438c10.347656,2.390625 19.929687,7.339844 27.976562,14.535156c0.851563,-0.953125 1.734375,-1.890625 2.644532,-2.800781zm0,0"/>
    <path stroke="null" id="svg_73" fill="#083D77" class="active-path" d="m392.917542,13.809708c-24.8125,0 -45,20.1875 -45,45l0,30.515624l-55.5625,-55.5625l-71.59375,-71.597656c-13.183594,-13.179687 -34.550781,-13.179687 -47.730469,0c-13.179687,13.179688 -13.179687,34.550782 0,47.730469l-42.425781,-42.425781c-13.179688,-13.179688 -34.550781,-13.179688 -47.730469,0c-13.179687,13.179687 -13.179687,34.550781 0,47.730468c-13.179687,-13.179687 -34.550781,-13.179687 -47.730469,0c-13.179687,13.179688 -13.179687,34.550782 0,47.730469l42.425782,42.425781c-13.179688,-13.179687 -34.550782,-13.179687 -47.730469,0c-13.179687,13.179688 -13.179687,34.550782 0,47.730469l71.59375,71.59375l77.785156,77.78125c18.519531,18.523438 42.847657,27.78125 67.171875,27.78125c24.328125,0 48.65625,-9.257812 67.175782,-27.78125l108.242187,-108.238281c10.386719,-10.390625 16.109375,-24.199219 16.109375,-38.890625l0,-96.519531c0,-24.816406 -20.1875,-45.003906 -45,-45.003906zm0,0"/>
   </g>
  </g>
 </g>
</svg>