<svg xmlns="http://www.w3.org/2000/svg" viewBox="0 0 16.459 16.457"><defs><style>.a{fill:#fff;}</style></defs><g transform="translate(0 0)"><path class="a" d="M364.229,336.55a8.229,8.229,0,1,0,8.229,8.229A8.23,8.23,0,0,0,364.229,336.55Zm.568,9.235a.646.646,0,0,1-.007.065c0,.016,0,.033-.007.049s-.01.033-.015.049-.013.04-.021.059c0,0,0,.007,0,.01a.566.566,0,0,1-.043.075l0,0a.585.585,0,0,1-.06.073l-.018.018a.566.566,0,0,1-.06.049l-.02.014a.558.558,0,0,1-.085.046l-.02.007a.541.541,0,0,1-.077.024l-.028.006a.575.575,0,0,1-.1.01l-.021,0a.571.571,0,0,1-.1-.01l-.029-.009a.63.63,0,0,1-.085-.029l-.009,0-3.155-1.488a.569.569,0,0,1,.486-1.03l2.344,1.1v-4.913a.569.569,0,1,1,1.138,0v5.81h0A.056.056,0,0,0,364.8,345.785Z" transform="translate(-356 -336.55)"/></g></svg>