<svg xmlns="http://www.w3.org/2000/svg" viewBox="0 0 99.988 61.445"><defs><style>.a{fill:#fff;}</style></defs><g transform="translate(-484 -3321)"><g transform="translate(484 3321)"><path class="a" d="M194.905,14.141a9.145,9.145,0,0,0,3.567-5.764,5.153,5.153,0,0,0-1.6-4.793c-1.06-.99-1.936-.751-2.37.608-.122.382-.251.688-.39,1.064-.144-.019-.312.027-.456.008.114-1.579.207-3.162.386-4.734.061-.536.783-.5.994-.378a5.916,5.916,0,0,1,2.17,1.575,8.752,8.752,0,0,1,.5,10.315c-.125.207-.22.433-.338.669a2.206,2.206,0,0,0,2.86-1.743,36.469,36.469,0,0,0,.593-4.331c.059-.5.074-1,.093-1.5.074-1.914.382-3.8,2.413-4.572a7.451,7.451,0,0,1,6.858.591,4.045,4.045,0,0,1,1.636,3.514c.15,3.088.025,5.583.036,8.677a2.881,2.881,0,0,1-.338,1.224,4.665,4.665,0,0,1-.207-1.256c-.032-1.965-.118-4.017-.171-5.982-.044-1.655-.15-3.432-1.927-4.183a6.082,6.082,0,0,0-6.1.532,3.439,3.439,0,0,0-1.2,1.809,38.7,38.7,0,0,0-.76,4.19C200.59,13.36,198.844,14.663,194.905,14.141Z" transform="translate(-152.784 0.006)"/><rect class="a" width="99.987" height="0.376" transform="translate(0 50.072)"/><g transform="translate(40.336 56.603)"><path class="a" d="M191.1,268.162h.471v2.852a5.076,5.076,0,0,0,.023.633,1.045,1.045,0,0,0,.163.466.952.952,0,0,0,.393.312,1.238,1.238,0,0,0,.536.127,1.336,1.336,0,0,0,.64-.042.92.92,0,0,0,.551-.3,1.4,1.4,0,0,0,.211-.458,3.34,3.34,0,0,0,.051-.737V268.16h.471v2.852a3.475,3.475,0,0,1-.125,1.024,1.378,1.378,0,0,1-.5.678,2.138,2.138,0,0,1-1.279.289,1.7,1.7,0,0,1-.979-.274,1.317,1.317,0,0,1-.542-.72,3.776,3.776,0,0,1-.089-1v-2.849Z" transform="translate(-191.1 -268.16)"/><path class="a" d="M215.6,268.47h1.5a2.22,2.22,0,0,1,.863.133,1.042,1.042,0,0,1,.477.412,1.128,1.128,0,0,1,.173.612,1.094,1.094,0,0,1-.154.574,1.148,1.148,0,0,1-.454.418,1.738,1.738,0,0,1,.57.3,1.189,1.189,0,0,1,.308.405,1.22,1.22,0,0,1,.112.519,1.277,1.277,0,0,1-.418.965,1.562,1.562,0,0,1-1.114.393H215.6Zm.462.462v1.513h.838a2.088,2.088,0,0,0,.722-.093.793.793,0,0,0,.367-.289.75.75,0,0,0,.135-.439.628.628,0,0,0-.226-.511,1.136,1.136,0,0,0-.72-.186h-1.117Zm0,1.988v1.813h1.152a2.078,2.078,0,0,0,.756-.1.868.868,0,0,0,.386-.314.833.833,0,0,0-.059-1.017,1.037,1.037,0,0,0-.566-.321,4.18,4.18,0,0,0-.838-.057h-.832Z" transform="translate(-210.429 -268.405)"/><path class="a" d="M238.862,268.162h.471v2.852a5.076,5.076,0,0,0,.023.633,1.046,1.046,0,0,0,.163.466.953.953,0,0,0,.393.312,1.238,1.238,0,0,0,.536.127,1.336,1.336,0,0,0,.64-.042.92.92,0,0,0,.551-.3,1.4,1.4,0,0,0,.211-.458,3.34,3.34,0,0,0,.051-.737V268.16h.471v2.852a3.475,3.475,0,0,1-.125,1.024,1.391,1.391,0,0,1-.5.678,2.138,2.138,0,0,1-1.279.289,1.7,1.7,0,0,1-.979-.274,1.317,1.317,0,0,1-.542-.72,3.775,3.775,0,0,1-.089-1v-2.849Z" transform="translate(-228.779 -268.16)"/><path class="a" d="M263.75,273.194V268.47h.977a4.915,4.915,0,0,1,1.541.173,2.041,2.041,0,0,1,1.072.834,2.541,2.541,0,0,1,.386,1.416,2.493,2.493,0,0,1-.308,1.25,1.969,1.969,0,0,1-.8.8,3,3,0,0,1-1.372.255h-1.5Zm.454-.45h.545a5.171,5.171,0,0,0,1.359-.12,1.568,1.568,0,0,0,.838-.623,1.914,1.914,0,0,0,.306-1.1,2.032,2.032,0,0,0-.329-1.169,1.652,1.652,0,0,0-.922-.663,5.539,5.539,0,0,0-1.463-.137H264.2v3.816Z" transform="translate(-248.416 -268.405)"/></g><g transform="translate(4.703 25.71)"><path class="a" d="M152.332,140.01h1v15.866l-9.682-12.909v12.909h-1V140.01l9.682,12.88Z" transform="translate(-117.243 -136.166)"/><path class="a" d="M233.316,155.876H232.29l4.948-15.866,4.977,15.866h-1.026l-3.951-12.548Z" transform="translate(-187.963 -136.166)"/><path class="a" d="M322.927,147.891l5.338,7.993h-1.207l-5.942-8.928h1.207a2.843,2.843,0,0,0,2.081-.874,2.878,2.878,0,0,0,.874-2.111,2.825,2.825,0,0,0-.874-2.1,2.87,2.87,0,0,0-2.081-.859h-2.987v14.87h-1V140.02h3.981a3.964,3.964,0,0,1,3.951,3.951,3.879,3.879,0,0,1-.95,2.594A3.757,3.757,0,0,1,322.927,147.891Z" transform="translate(-255.85 -136.174)"/><path class="a" d="M405.446,155.876H404.42l4.948-15.866,4.977,15.866h-1.026l-3.951-12.548Z" transform="translate(-323.761 -136.166)"/><rect class="a" width="5.71" height="0.785" transform="translate(82.766)"/><path class="a" d="M99.876,154.321V140.04h-1v15.852h1Z" transform="translate(-82.712 -136.19)"/><path class="a" d="M29.051,141.171a3.8,3.8,0,0,0-2.79-1.161H22.28v15.866h3.983a3.958,3.958,0,0,0,3.945-3.8v-8.268A3.808,3.808,0,0,0,29.051,141.171Zm-.709,12.85a2.87,2.87,0,0,1-2.081.859H23.276V141.006h2.987a2.87,2.87,0,0,1,2.081.859,2.808,2.808,0,0,1,.868,1.944v8.268A2.824,2.824,0,0,1,28.342,154.021Z" transform="translate(-22.28 -136.166)"/></g></g></g></svg>