<svg xmlns="http://www.w3.org/2000/svg" viewBox="0 0 8.309 15.355"><defs><style>.a{fill:#fff;}</style></defs><path class="a" d="M238.989,208H237a3.5,3.5,0,0,0-3.684,3.779v1.738h-1.993a.32.32,0,0,0-.319.319v2.52a.32.32,0,0,0,.319.319h1.993v6.363a.32.32,0,0,0,.319.319h2.615a.32.32,0,0,0,.319-.319v-6.363h2.344a.32.32,0,0,0,.319-.319v-2.52a.327.327,0,0,0-.319-.319h-2.344V212.05c0-.7.175-1.068,1.084-1.068h1.34a.32.32,0,0,0,.319-.319v-2.344A.331.331,0,0,0,238.989,208Z" transform="translate(-231 -208)"/></svg>