<svg xmlns="http://www.w3.org/2000/svg" viewBox="0 0 114.565 34.792"><defs><style>.a,.b{fill:#fafafa;}.a{font-size:10px;font-family:WorkSans-Light, Work Sans;font-weight:300;}.b{font-size:16px;font-family:CormorantGaramond-Bold, Cormorant Garamond;font-weight:700;}.c{fill:none;stroke:#c3c3c3;stroke-width:2px;}.d{fill:#c3c3c3;}</style></defs><g transform="translate(12478.926 253.232)"><text class="a" transform="translate(-12430.098 -243.232)"><tspan x="0" y="0">Best Rate </tspan></text><text class="b" transform="translate(-12431.36 -226.496)"><tspan x="0" y="0">Guarantee</tspan></text><path class="c" d="M32.792,16.4A16.4,16.4,0,1,0,16.4,32.8,16.4,16.4,0,0,0,32.792,16.4Z" transform="translate(-12477.926 -252.235)"/><path class="d" d="M127.866,153.746c-.386-1-1.172-.838-2.025-.669-.509.106-2.773.769-6.355,4.546a30.283,30.283,0,0,0-3.113,3.77c-.394-.484-.846-1-1.321-1.477a19.113,19.113,0,0,0-3.155-2.5,1.451,1.451,0,0,0-1.515,2.474,16.34,16.34,0,0,1,2.619,2.08,22.509,22.509,0,0,1,2.358,2.912,1.45,1.45,0,0,0,2.615-.454c0-.013.579-1.6,3.617-4.807a14.5,14.5,0,0,1,4.645-3.629l.017,0,.052-.024c.1-.036.149-.05.152-.051a.389.389,0,0,1-.042.009v-.005c.262-.114.752-.325.762-.329A1.362,1.362,0,0,0,127.866,153.746Z" transform="translate(-12580.368 -394.289)"/></g></svg>