<svg xmlns="http://www.w3.org/2000/svg" viewBox="0 0 16.996 17"><defs><style>.a{fill:#fff;}</style></defs><g transform="translate(0)"><path class="a" d="M12.408,0H4.592A4.6,4.6,0,0,0,0,4.592V12.4A4.6,4.6,0,0,0,4.592,17H12.4A4.6,4.6,0,0,0,17,12.408V4.592A4.6,4.6,0,0,0,12.408,0Zm3.217,12.408A3.224,3.224,0,0,1,12.4,15.628H4.592a3.224,3.224,0,0,1-3.221-3.221V4.592A3.224,3.224,0,0,1,4.592,1.371H12.4a3.224,3.224,0,0,1,3.221,3.221Z"/><g transform="translate(4.454 4.653)"><g transform="translate(0 0)"><path class="a" d="M149.721,143.378a3.763,3.763,0,0,0-1.076-2.135,3.8,3.8,0,0,0-2.135-1.076,3.719,3.719,0,0,0-1.119,0,3.812,3.812,0,0,0,.551,7.583,3.637,3.637,0,0,0,.568-.043,3.81,3.81,0,0,0,3.211-4.33Zm-3.413,2.972a2.438,2.438,0,0,1-.714-4.824,2.432,2.432,0,0,1,.717,0,2.438,2.438,0,0,1,0,4.824Z" transform="translate(-142.136 -140.125)"/></g></g><g transform="translate(11.844 3.516)"><g transform="translate(0 0)"><path class="a" d="M365.872,106.1a.681.681,0,1,0,.2.485A.677.677,0,0,0,365.872,106.1Z" transform="translate(-364.7 -105.9)"/></g></g></g></svg>