<svg xmlns="http://www.w3.org/2000/svg" viewBox="0 0 104.592 11.973"><defs><style>.a{fill:#a78823;}</style></defs><g transform="translate(-198 -5343.938)"><path class="a" d="M6.3,0,8.238,3.937l4.354.632L9.447,7.646l.739,4.327L6.3,9.931l-3.9,2.043.739-4.327L0,4.569l4.354-.632Z" transform="translate(198 5343.938)"/><path class="a" d="M6.3,0,8.238,3.937l4.354.632L9.447,7.646l.739,4.327L6.3,9.931l-3.9,2.043.739-4.327L0,4.569l4.354-.632Z" transform="translate(221 5343.938)"/><path class="a" d="M6.3,0,8.238,3.937l4.354.632L9.447,7.646l.739,4.327L6.3,9.931l-3.9,2.043.739-4.327L0,4.569l4.354-.632Z" transform="translate(244 5343.938)"/><path class="a" d="M6.3,0,8.238,3.937l4.354.632L9.447,7.646l.739,4.327L6.3,9.931l-3.9,2.043.739-4.327L0,4.569l4.354-.632Z" transform="translate(267 5343.938)"/><path class="a" d="M6.3,0,8.238,3.937l4.354.632L9.447,7.646l.739,4.327L6.3,9.931l-3.9,2.043.739-4.327L0,4.569l4.354-.632Z" transform="translate(290 5343.938)"/></g></svg>