<svg width="31" height="31" xmlns="http://www.w3.org/2000/svg">
 <!-- Created with Method Draw - http://github.com/duopixel/Method-Draw/ -->

 <g>
  <title>background</title>
  <rect fill="none" id="canvas_background" height="33" width="33" y="-1" x="-1"/>
  <g display="none" overflow="visible" y="0" x="0" height="100%" width="100%" id="canvasGrid">
   <rect fill="url(#gridpattern)" stroke-width="0" y="0" x="0" height="100%" width="100%"/>
  </g>
 </g>
 <g>
  <title>Layer 1</title>
  <g stroke="null" id="svg_168">
   <path stroke="null" id="svg_152" fill="#4867aa" d="m-0.122588,0.002412l0,31.495178l16.639961,0l0,-12.165931l-4.067708,0l0,-4.96647l4.067708,0l0,-4.170953c0,-3.033414 2.439528,-5.492461 5.448863,-5.492461l4.252479,0l0,4.465981l-3.042862,0c-0.956216,0 -1.731432,0.781419 -1.731432,1.745286l0,3.452216l4.697849,0l-0.64927,4.96647l-4.048579,0l0,12.165862l9.678168,0l0,-31.495178l-31.245177,0z"/>
   <g stroke="null" transform="matrix(0.06856072033142463,0,0,0.06910929193926893,-16.79721224290627,-16.805629871104866) " id="svg_153"/>
   <g stroke="null" transform="matrix(0.06856072033142463,0,0,0.06910929193926893,-16.79721224290627,-16.805629871104866) " id="svg_154"/>
   <g stroke="null" transform="matrix(0.06856072033142463,0,0,0.06910929193926893,-16.79721224290627,-16.805629871104866) " id="svg_155"/>
   <g stroke="null" transform="matrix(0.06856072033142463,0,0,0.06910929193926893,-16.79721224290627,-16.805629871104866) " id="svg_156"/>
   <g stroke="null" transform="matrix(0.06856072033142463,0,0,0.06910929193926893,-16.79721224290627,-16.805629871104866) " id="svg_157"/>
   <g stroke="null" transform="matrix(0.06856072033142463,0,0,0.06910929193926893,-16.79721224290627,-16.805629871104866) " id="svg_158"/>
   <g stroke="null" transform="matrix(0.06856072033142463,0,0,0.06910929193926893,-16.79721224290627,-16.805629871104866) " id="svg_159"/>
   <g stroke="null" transform="matrix(0.06856072033142463,0,0,0.06910929193926893,-16.79721224290627,-16.805629871104866) " id="svg_160"/>
   <g stroke="null" transform="matrix(0.06856072033142463,0,0,0.06910929193926893,-16.79721224290627,-16.805629871104866) " id="svg_161"/>
   <g stroke="null" transform="matrix(0.06856072033142463,0,0,0.06910929193926893,-16.79721224290627,-16.805629871104866) " id="svg_162"/>
   <g stroke="null" transform="matrix(0.06856072033142463,0,0,0.06910929193926893,-16.79721224290627,-16.805629871104866) " id="svg_163"/>
   <g stroke="null" transform="matrix(0.06856072033142463,0,0,0.06910929193926893,-16.79721224290627,-16.805629871104866) " id="svg_164"/>
   <g stroke="null" transform="matrix(0.06856072033142463,0,0,0.06910929193926893,-16.79721224290627,-16.805629871104866) " id="svg_165"/>
   <g stroke="null" transform="matrix(0.06856072033142463,0,0,0.06910929193926893,-16.79721224290627,-16.805629871104866) " id="svg_166"/>
   <g stroke="null" transform="matrix(0.06856072033142463,0,0,0.06910929193926893,-16.79721224290627,-16.805629871104866) " id="svg_167"/>
  </g>
 </g>
</svg>