<svg width="31" height="31" xmlns="http://www.w3.org/2000/svg">
 <!-- Created with Method Draw - http://github.com/duopixel/Method-Draw/ -->

 <g>
  <title>background</title>
  <rect fill="none" id="canvas_background" height="33" width="33" y="-1" x="-1"/>
  <g display="none" overflow="visible" y="0" x="0" height="100%" width="100%" id="canvasGrid">
   <rect fill="url(#gridpattern)" stroke-width="0" y="0" x="0" height="100%" width="100%"/>
  </g>
 </g>
 <g>
  <title>Layer 1</title>
  <g stroke="null" id="svg_210">
   <path stroke="null" id="svg_194" fill-rule="evenodd" clip-rule="evenodd" fill="#dc4e41" d="m-0.134618,-0.384619l0,31.519238l31.644238,0l0,-31.519238l-31.644238,0zm11.244624,23.738628c-4.463089,0 -8.010652,-3.533618 -8.010652,-7.979009s3.547563,-7.979009 8.010652,-7.979009c2.174342,0 4.005326,0.797887 5.378547,2.165753l-2.174342,2.051729c-0.57217,-0.569909 -1.602103,-1.253842 -3.204275,-1.253842c-2.746442,0 -4.920783,2.279707 -4.920783,5.015369s2.174342,5.015369 4.920783,5.015369c3.204275,0 4.348614,-2.279707 4.577496,-3.419595l-4.577496,0l0,-2.735662l7.552889,0c0.114476,0.455955 0.114476,0.797887 0.114476,1.367866c0.00007,4.559414 -3.089799,7.751031 -7.667295,7.751031zm17.165643,-6.83912l-2.288748,0l0,2.279707l-2.288817,0l0,-2.279707l-2.288748,0l0,-2.279707l2.288748,0l0,-2.279707l2.288817,0l0,2.279707l2.288748,0l0,2.279707z"/>
   <g stroke="null" transform="matrix(0.06954777668701037,0,0,0.06927305080326056,0.14901157460773717,0.422542442317031) " id="svg_195"/>
   <g stroke="null" transform="matrix(0.06954777668701037,0,0,0.06927305080326056,0.14901157460773717,0.422542442317031) " id="svg_196"/>
   <g stroke="null" transform="matrix(0.06954777668701037,0,0,0.06927305080326056,0.14901157460773717,0.422542442317031) " id="svg_197"/>
   <g stroke="null" transform="matrix(0.06954777668701037,0,0,0.06927305080326056,0.14901157460773717,0.422542442317031) " id="svg_198"/>
   <g stroke="null" transform="matrix(0.06954777668701037,0,0,0.06927305080326056,0.14901157460773717,0.422542442317031) " id="svg_199"/>
   <g stroke="null" transform="matrix(0.06954777668701037,0,0,0.06927305080326056,0.14901157460773717,0.422542442317031) " id="svg_200"/>
   <g stroke="null" transform="matrix(0.06954777668701037,0,0,0.06927305080326056,0.14901157460773717,0.422542442317031) " id="svg_201"/>
   <g stroke="null" transform="matrix(0.06954777668701037,0,0,0.06927305080326056,0.14901157460773717,0.422542442317031) " id="svg_202"/>
   <g stroke="null" transform="matrix(0.06954777668701037,0,0,0.06927305080326056,0.14901157460773717,0.422542442317031) " id="svg_203"/>
   <g stroke="null" transform="matrix(0.06954777668701037,0,0,0.06927305080326056,0.14901157460773717,0.422542442317031) " id="svg_204"/>
   <g stroke="null" transform="matrix(0.06954777668701037,0,0,0.06927305080326056,0.14901157460773717,0.422542442317031) " id="svg_205"/>
   <g stroke="null" transform="matrix(0.06954777668701037,0,0,0.06927305080326056,0.14901157460773717,0.422542442317031) " id="svg_206"/>
   <g stroke="null" transform="matrix(0.06954777668701037,0,0,0.06927305080326056,0.14901157460773717,0.422542442317031) " id="svg_207"/>
   <g stroke="null" transform="matrix(0.06954777668701037,0,0,0.06927305080326056,0.14901157460773717,0.422542442317031) " id="svg_208"/>
   <g stroke="null" transform="matrix(0.06954777668701037,0,0,0.06927305080326056,0.14901157460773717,0.422542442317031) " id="svg_209"/>
  </g>
 </g>
</svg>