<svg width="31" height="31" xmlns="http://www.w3.org/2000/svg">
 <!-- Created with Method Draw - http://github.com/duopixel/Method-Draw/ -->

 <g>
  <title>background</title>
  <rect fill="none" id="canvas_background" height="33" width="33" y="-1" x="-1"/>
  <g display="none" overflow="visible" y="0" x="0" height="100%" width="100%" id="canvasGrid">
   <rect fill="url(#gridpattern)" stroke-width="0" y="0" x="0" height="100%" width="100%"/>
  </g>
 </g>
 <g>
  <title>Layer 1</title>
  <g stroke="null" id="svg_233">
   <g stroke="null" transform="matrix(0.06856049855619419,0,0,0.06938336012789166,0.26829421370292295,0.41307359631480267) " id="svg_218"/>
   <g stroke="null" transform="matrix(0.06856049855619419,0,0,0.06938336012789166,0.26829421370292295,0.41307359631480267) " id="svg_219"/>
   <g stroke="null" transform="matrix(0.06856049855619419,0,0,0.06938336012789166,0.26829421370292295,0.41307359631480267) " id="svg_220"/>
   <g stroke="null" transform="matrix(0.06856049855619419,0,0,0.06938336012789166,0.26829421370292295,0.41307359631480267) " id="svg_221"/>
   <g stroke="null" transform="matrix(0.06856049855619419,0,0,0.06938336012789166,0.26829421370292295,0.41307359631480267) " id="svg_222"/>
   <g stroke="null" transform="matrix(0.06856049855619419,0,0,0.06938336012789166,0.26829421370292295,0.41307359631480267) " id="svg_223"/>
   <g stroke="null" transform="matrix(0.06856049855619419,0,0,0.06938336012789166,0.26829421370292295,0.41307359631480267) " id="svg_224"/>
   <g stroke="null" transform="matrix(0.06856049855619419,0,0,0.06938336012789166,0.26829421370292295,0.41307359631480267) " id="svg_225"/>
   <g stroke="null" transform="matrix(0.06856049855619419,0,0,0.06938336012789166,0.26829421370292295,0.41307359631480267) " id="svg_226"/>
   <g stroke="null" transform="matrix(0.06856049855619419,0,0,0.06938336012789166,0.26829421370292295,0.41307359631480267) " id="svg_227"/>
   <g stroke="null" transform="matrix(0.06856049855619419,0,0,0.06938336012789166,0.26829421370292295,0.41307359631480267) " id="svg_228"/>
   <g stroke="null" transform="matrix(0.06856049855619419,0,0,0.06938336012789166,0.26829421370292295,0.41307359631480267) " id="svg_229"/>
   <g stroke="null" transform="matrix(0.06856049855619419,0,0,0.06938336012789166,0.26829421370292295,0.41307359631480267) " id="svg_230"/>
   <g stroke="null" transform="matrix(0.06856049855619419,0,0,0.06938336012789166,0.26829421370292295,0.41307359631480267) " id="svg_231"/>
   <g stroke="null" transform="matrix(0.06856049855619419,0,0,0.06938336012789166,0.26829421370292295,0.41307359631480267) " id="svg_232"/>
   <g stroke="null" id="svg_261">
    <g stroke="null" transform="matrix(0.0696576447035338,0,0,0.0696576447035338,0.41617939947076366,0.5558104860154174) " id="svg_238">
     <rect stroke="null" id="svg_239" fill="#00C200" height="455.731" width="455.731" y="-15.12233" x="-11.323288"/>
     <g stroke="null" id="svg_240">
      <path stroke="null" id="svg_241" fill="#FFFFFF" d="m381.948712,204.48267c0.766,-4.035 1.145,-7.43 1.319,-10.093c0.288,-4.395 -0.04,-10.92 -0.157,-12.963c-4.048,-70.408 -77.096,-126.503 -166.616,-126.503c-92.118,0 -166.793,59.397 -166.793,132.667c0,67.346 63.088,122.97 144.821,131.526c4.997,0.523 8.6,5.034 8.046,10.027l-3.48,31.322c-0.79,7.11 6.562,12.283 13.005,9.173c69.054,-33.326 110.346,-67.611 135.004,-97.314c4.487,-5.405 19.118,-25.904 22.101,-31.288c6.332,-11.43 10.697,-23.704 12.75,-36.554z"/>
      <path stroke="null" id="svg_242" fill="#00C500" d="m124.779712,214.46567l0,-55.882c0,-4.712 -3.82,-8.532 -8.532,-8.532l0,0c-4.712,0 -8.532,3.82 -8.532,8.532l0,64.414c0,4.712 3.82,8.532 8.532,8.532l34.127,0c4.712,0 8.532,-3.82 8.532,-8.532l0,0c0,-4.712 -3.82,-8.532 -8.532,-8.532l-25.595,0z"/>
      <path stroke="null" id="svg_243" fill="#00C500" d="m177.407712,231.52967l-3.73,0c-3.682,0 -6.667,-2.985 -6.667,-6.667l0,-68.144c0,-3.682 2.985,-6.667 6.667,-6.667l3.73,0c3.682,0 6.667,2.985 6.667,6.667l0,68.144c0,3.682 -2.985,6.667 -6.667,6.667z"/>
      <path stroke="null" id="svg_244" fill="#00C500" d="m246.354712,158.58367l0,39.351c0,0 -34.073,-44.443 -34.593,-45.027c-1.628,-1.827 -4.027,-2.951 -6.69,-2.85c-4.641,0.176 -8.2,4.232 -8.2,8.876l0,64.063c0,4.712 3.82,8.532 8.532,8.532l0,0c4.712,0 8.532,-3.82 8.532,-8.532l0,-39.112c0,0 34.591,44.83 35.099,45.312c1.509,1.428 3.536,2.312 5.773,2.332c4.738,0.043 8.611,-4.148 8.611,-8.886l0,-64.059c0,-4.712 -3.82,-8.532 -8.532,-8.532l0,0c-4.712,0.001 -8.532,3.82 -8.532,8.532z"/>
      <path stroke="null" id="svg_245" fill="#00C500" d="m327.405712,158.58367l0,0c0,-4.712 -3.82,-8.532 -8.532,-8.532l-34.127,0c-4.712,0 -8.532,3.82 -8.532,8.532l0,64.414c0,4.712 3.82,8.532 8.532,8.532l34.127,0c4.712,0 8.532,-3.82 8.532,-8.532l0,0c0,-4.712 -3.82,-8.532 -8.532,-8.532l-25.595,0l0,-15.144l25.595,0c4.712,0 8.532,-3.82 8.532,-8.532l0,0c0,-4.712 -3.82,-8.532 -8.532,-8.532l-25.595,0l0,-15.144l25.595,0c4.712,0.002 8.532,-3.818 8.532,-8.53z"/>
     </g>
    </g>
    <g stroke="null" transform="matrix(0.0696576447035338,0,0,0.0696576447035338,0.41617939947076366,0.5558104860154174) " id="svg_246"/>
    <g stroke="null" transform="matrix(0.0696576447035338,0,0,0.0696576447035338,0.41617939947076366,0.5558104860154174) " id="svg_247"/>
    <g stroke="null" transform="matrix(0.0696576447035338,0,0,0.0696576447035338,0.41617939947076366,0.5558104860154174) " id="svg_248"/>
    <g stroke="null" transform="matrix(0.0696576447035338,0,0,0.0696576447035338,0.41617939947076366,0.5558104860154174) " id="svg_249"/>
    <g stroke="null" transform="matrix(0.0696576447035338,0,0,0.0696576447035338,0.41617939947076366,0.5558104860154174) " id="svg_250"/>
    <g stroke="null" transform="matrix(0.0696576447035338,0,0,0.0696576447035338,0.41617939947076366,0.5558104860154174) " id="svg_251"/>
    <g stroke="null" transform="matrix(0.0696576447035338,0,0,0.0696576447035338,0.41617939947076366,0.5558104860154174) " id="svg_252"/>
    <g stroke="null" transform="matrix(0.0696576447035338,0,0,0.0696576447035338,0.41617939947076366,0.5558104860154174) " id="svg_253"/>
    <g stroke="null" transform="matrix(0.0696576447035338,0,0,0.0696576447035338,0.41617939947076366,0.5558104860154174) " id="svg_254"/>
    <g stroke="null" transform="matrix(0.0696576447035338,0,0,0.0696576447035338,0.41617939947076366,0.5558104860154174) " id="svg_255"/>
    <g stroke="null" transform="matrix(0.0696576447035338,0,0,0.0696576447035338,0.41617939947076366,0.5558104860154174) " id="svg_256"/>
    <g stroke="null" transform="matrix(0.0696576447035338,0,0,0.0696576447035338,0.41617939947076366,0.5558104860154174) " id="svg_257"/>
    <g stroke="null" transform="matrix(0.0696576447035338,0,0,0.0696576447035338,0.41617939947076366,0.5558104860154174) " id="svg_258"/>
    <g stroke="null" transform="matrix(0.0696576447035338,0,0,0.0696576447035338,0.41617939947076366,0.5558104860154174) " id="svg_259"/>
    <g stroke="null" transform="matrix(0.0696576447035338,0,0,0.0696576447035338,0.41617939947076366,0.5558104860154174) " id="svg_260"/>
   </g>
  </g>
 </g>
</svg>