<svg width="31" height="31" xmlns="http://www.w3.org/2000/svg">
 <!-- Created with Method Draw - http://github.com/duopixel/Method-Draw/ -->

 <g>
  <title>background</title>
  <rect fill="none" id="canvas_background" height="33" width="33" y="-1" x="-1"/>
  <g display="none" overflow="visible" y="0" x="0" height="100%" width="100%" id="canvasGrid">
   <rect fill="url(#gridpattern)" stroke-width="0" y="0" x="0" height="100%" width="100%"/>
  </g>
 </g>
 <g>
  <title>Layer 1</title>
  <g stroke="null" id="svg_189">
   <path stroke="null" id="svg_173" fill-rule="evenodd" clip-rule="evenodd" fill="#00aced" d="m-0.259619,-0.259619l0,31.394238l31.644238,0l0,-31.394238l-31.644238,0zm24.533048,11.264598c0.008554,0.191332 0.012936,0.3837 0.012936,0.576826c0,5.892664 -4.520745,12.687136 -12.787958,12.687136c-2.538216,0 -4.900754,-0.738075 -6.88975,-2.003504c0.351634,0.041468 0.709318,0.062581 1.072218,0.062581c2.105768,0 4.043716,-0.712822 5.582044,-1.909046c-1.966811,-0.03581 -3.626777,-1.325044 -4.198808,-3.096645c0.274575,0.052232 0.556174,0.080245 0.845771,0.080245c0.409915,0 0.807032,-0.054785 1.18419,-0.156488c-2.056041,-0.409781 -3.605426,-2.211879 -3.605426,-4.372286c0,-0.018837 0,-0.037535 0.000417,-0.056165c0.6059,0.333952 1.298874,0.534599 2.035733,0.557782c-1.206098,-0.799622 -1.999359,-2.164546 -1.999359,-3.71142c0,-0.817285 0.221649,-1.583167 0.608613,-2.241894c2.216696,2.697904 5.528561,4.473023 9.263972,4.659181c-0.076711,-0.3265 -0.116632,-0.666869 -0.116632,-1.016276c0,-2.462412 2.012574,-4.458879 4.494595,-4.458879c1.292824,0 2.460948,0.54143 3.280777,1.40798c1.023674,-0.19975 1.985659,-0.57103 2.854102,-1.081963c-0.335498,1.041323 -1.048155,1.91498 -1.9762,2.466966c0.909268,-0.107844 1.775416,-0.347614 2.581474,-0.702265c-0.602423,0.894149 -1.364388,1.679557 -2.242707,2.308132z"/>
   <g stroke="null" transform="matrix(0.06954777668701037,0,0,0.06899832491951075,0.2873780644654289,0.28305659818897766) " id="svg_174"/>
   <g stroke="null" transform="matrix(0.06954777668701037,0,0,0.06899832491951075,0.2873780644654289,0.28305659818897766) " id="svg_175"/>
   <g stroke="null" transform="matrix(0.06954777668701037,0,0,0.06899832491951075,0.2873780644654289,0.28305659818897766) " id="svg_176"/>
   <g stroke="null" transform="matrix(0.06954777668701037,0,0,0.06899832491951075,0.2873780644654289,0.28305659818897766) " id="svg_177"/>
   <g stroke="null" transform="matrix(0.06954777668701037,0,0,0.06899832491951075,0.2873780644654289,0.28305659818897766) " id="svg_178"/>
   <g stroke="null" transform="matrix(0.06954777668701037,0,0,0.06899832491951075,0.2873780644654289,0.28305659818897766) " id="svg_179"/>
   <g stroke="null" transform="matrix(0.06954777668701037,0,0,0.06899832491951075,0.2873780644654289,0.28305659818897766) " id="svg_180"/>
   <g stroke="null" transform="matrix(0.06954777668701037,0,0,0.06899832491951075,0.2873780644654289,0.28305659818897766) " id="svg_181"/>
   <g stroke="null" transform="matrix(0.06954777668701037,0,0,0.06899832491951075,0.2873780644654289,0.28305659818897766) " id="svg_182"/>
   <g stroke="null" transform="matrix(0.06954777668701037,0,0,0.06899832491951075,0.2873780644654289,0.28305659818897766) " id="svg_183"/>
   <g stroke="null" transform="matrix(0.06954777668701037,0,0,0.06899832491951075,0.2873780644654289,0.28305659818897766) " id="svg_184"/>
   <g stroke="null" transform="matrix(0.06954777668701037,0,0,0.06899832491951075,0.2873780644654289,0.28305659818897766) " id="svg_185"/>
   <g stroke="null" transform="matrix(0.06954777668701037,0,0,0.06899832491951075,0.2873780644654289,0.28305659818897766) " id="svg_186"/>
   <g stroke="null" transform="matrix(0.06954777668701037,0,0,0.06899832491951075,0.2873780644654289,0.28305659818897766) " id="svg_187"/>
   <g stroke="null" transform="matrix(0.06954777668701037,0,0,0.06899832491951075,0.2873780644654289,0.28305659818897766) " id="svg_188"/>
  </g>
 </g>
</svg>